<?xml version="1.0" encoding="UTF-8" standalone="no"?>
<!DOCTYPE svg PUBLIC "-//W3C//DTD SVG 1.1//EN"
 "http://www.w3.org/Graphics/SVG/1.1/DTD/svg11.dtd">
<!-- Generated by graphviz version 2.44.0 (20200408.0750)
 -->
<!-- Title: dependency&#45;cruiser output Pages: 1 -->
<svg width="682pt" height="744pt"
 viewBox="0.00 0.00 682.00 744.00" xmlns="http://www.w3.org/2000/svg" xmlns:xlink="http://www.w3.org/1999/xlink">
<g id="graph0" class="graph" transform="scale(1 1) rotate(0) translate(4 740)">
<title>dependency&#45;cruiser output</title>
<polygon fill="white" stroke="transparent" points="-4,4 -4,-740 678,-740 678,4 -4,4"/>
<g id="clust1" class="cluster">
<title>cluster_data&#45;access</title>
<path fill="#ffffff" stroke="black" stroke-width="2" d="M433.5,-8C433.5,-8 486.5,-8 486.5,-8 492.5,-8 498.5,-14 498.5,-20 498.5,-20 498.5,-111 498.5,-111 498.5,-117 492.5,-123 486.5,-123 486.5,-123 433.5,-123 433.5,-123 427.5,-123 421.5,-117 421.5,-111 421.5,-111 421.5,-20 421.5,-20 421.5,-14 427.5,-8 433.5,-8"/>
<text text-anchor="middle" x="460" y="-110.9" font-family="Helvetica,sans-Serif" font-weight="bold" font-size="9.00">data&#45;access</text>
</g>
<g id="clust2" class="cluster">
<title>cluster_lib</title>
<path fill="#ffffff" stroke="black" stroke-width="2" d="M436,-131C436,-131 484,-131 484,-131 490,-131 496,-137 496,-143 496,-143 496,-172 496,-172 496,-178 490,-184 484,-184 484,-184 436,-184 436,-184 430,-184 424,-178 424,-172 424,-172 424,-143 424,-143 424,-137 430,-131 436,-131"/>
<text text-anchor="middle" x="460" y="-171.9" font-family="Helvetica,sans-Serif" font-weight="bold" font-size="9.00">lib</text>
</g>
<g id="clust3" class="cluster">
<title>cluster_separated</title>
<path fill="#ffffff" stroke="black" stroke-width="2" d="M20,-192C20,-192 656,-192 656,-192 662,-192 668,-198 668,-204 668,-204 668,-716 668,-716 668,-722 662,-728 656,-728 656,-728 20,-728 20,-728 14,-728 8,-722 8,-716 8,-716 8,-204 8,-204 8,-198 14,-192 20,-192"/>
<text text-anchor="middle" x="338" y="-715.9" font-family="Helvetica,sans-Serif" font-weight="bold" font-size="9.00">separated</text>
</g>
<g id="clust4" class="cluster">
<title>cluster_separated/todos</title>
<path fill="#ffffff" stroke="black" stroke-width="2" d="M28,-200C28,-200 648,-200 648,-200 654,-200 660,-206 660,-212 660,-212 660,-689 660,-689 660,-695 654,-701 648,-701 648,-701 28,-701 28,-701 22,-701 16,-695 16,-689 16,-689 16,-212 16,-212 16,-206 22,-200 28,-200"/>
<text text-anchor="middle" x="338" y="-688.9" font-family="Helvetica,sans-Serif" font-weight="bold" font-size="9.00">todos</text>
</g>
<g id="clust5" class="cluster">
<title>cluster_separated/todos/business&#45;logic</title>
<path fill="#ffffff" stroke="black" stroke-width="2" d="M327.01,-208C327.01,-208 394,-208 394,-208 400,-208 406,-214 406,-220 406,-220 406,-373 406,-373 406,-379 400,-385 394,-385 394,-385 327.01,-385 327.01,-385 321.01,-385 315.01,-379 315.01,-373 315.01,-373 315.01,-220 315.01,-220 315.01,-214 321.01,-208 327.01,-208"/>
<text text-anchor="middle" x="360.5" y="-372.9" font-family="Helvetica,sans-Serif" font-weight="bold" font-size="9.00">business&#45;logic</text>
</g>
<g id="clust6" class="cluster">
<title>cluster_separated/todos/data</title>
<path fill="#ffffff" stroke="black" stroke-width="2" d="M426,-301C426,-301 494,-301 494,-301 500,-301 506,-307 506,-313 506,-313 506,-373 506,-373 506,-379 500,-385 494,-385 494,-385 426,-385 426,-385 420,-385 414,-379 414,-373 414,-373 414,-313 414,-313 414,-307 420,-301 426,-301"/>
<text text-anchor="middle" x="460" y="-372.9" font-family="Helvetica,sans-Serif" font-weight="bold" font-size="9.00">data</text>
</g>
<g id="clust7" class="cluster">
<title>cluster_separated/todos/presentations</title>
<path fill="#ffffff" stroke="black" stroke-width="2" d="M36,-393C36,-393 640,-393 640,-393 646,-393 652,-399 652,-405 652,-405 652,-662 652,-662 652,-668 646,-674 640,-674 640,-674 36,-674 36,-674 30,-674 24,-668 24,-662 24,-662 24,-405 24,-405 24,-399 30,-393 36,-393"/>
<text text-anchor="middle" x="338" y="-661.9" font-family="Helvetica,sans-Serif" font-weight="bold" font-size="9.00">presentations</text>
</g>
<g id="clust8" class="cluster">
<title>cluster_separated/todos/presentations/integrate&#45;dryer</title>
<path fill="#ffffff" stroke="black" stroke-width="2" d="M44,-401C44,-401 632,-401 632,-401 638,-401 644,-407 644,-413 644,-413 644,-635 644,-635 644,-641 638,-647 632,-647 632,-647 44,-647 44,-647 38,-647 32,-641 32,-635 32,-635 32,-413 32,-413 32,-407 38,-401 44,-401"/>
<text text-anchor="middle" x="338" y="-634.9" font-family="Helvetica,sans-Serif" font-weight="bold" font-size="9.00">integrate&#45;dryer</text>
</g>
<g id="clust9" class="cluster">
<title>cluster_separated/todos/presentations/integrate&#45;dryer/src</title>
<path fill="#ffffff" stroke="black" stroke-width="2" d="M52,-409C52,-409 624,-409 624,-409 630,-409 636,-415 636,-421 636,-421 636,-608 636,-608 636,-614 630,-620 624,-620 624,-620 52,-620 52,-620 46,-620 40,-614 40,-608 40,-608 40,-421 40,-421 40,-415 46,-409 52,-409"/>
<text text-anchor="middle" x="338" y="-607.9" font-family="Helvetica,sans-Serif" font-weight="bold" font-size="9.00">src</text>
</g>
<g id="clust10" class="cluster">
<title>cluster_separated/todos/presentations/integrate&#45;dryer/src/components</title>
<path fill="#ffffff" stroke="black" stroke-width="2" d="M337.5,-448C337.5,-448 483,-448 483,-448 489,-448 495,-454 495,-460 495,-460 495,-489 495,-489 495,-495 489,-501 483,-501 483,-501 337.5,-501 337.5,-501 331.5,-501 325.5,-495 325.5,-489 325.5,-489 325.5,-460 325.5,-460 325.5,-454 331.5,-448 337.5,-448"/>
<text text-anchor="middle" x="410.25" y="-488.9" font-family="Helvetica,sans-Serif" font-weight="bold" font-size="9.00">components</text>
</g>
<g id="clust11" class="cluster">
<title>cluster_separated/todos/presentations/integrate&#45;dryer/src/custom&#45;events</title>
<path fill="#ffffff" stroke="black" stroke-width="2" d="M566,-433C566,-433 616,-433 616,-433 622,-433 628,-439 628,-445 628,-445 628,-505 628,-505 628,-511 622,-517 616,-517 616,-517 566,-517 566,-517 560,-517 554,-511 554,-505 554,-505 554,-445 554,-445 554,-439 560,-433 566,-433"/>
<text text-anchor="middle" x="591" y="-504.9" font-family="Helvetica,sans-Serif" font-weight="bold" font-size="9.00">custom&#45;events</text>
</g>
<g id="clust12" class="cluster">
<title>cluster_separated/todos/presentations/integrate&#45;dryer/src/handlers</title>
<path fill="#ffffff" stroke="black" stroke-width="2" d="M224,-417C224,-417 295.01,-417 295.01,-417 301.01,-417 307.01,-423 307.01,-429 307.01,-429 307.01,-520 307.01,-520 307.01,-526 301.01,-532 295.01,-532 295.01,-532 224,-532 224,-532 218,-532 212,-526 212,-520 212,-520 212,-429 212,-429 212,-423 218,-417 224,-417"/>
<text text-anchor="middle" x="259.5" y="-519.9" font-family="Helvetica,sans-Serif" font-weight="bold" font-size="9.00">handlers</text>
</g>
<g id="clust13" class="cluster">
<title>cluster_separated/todos/presentations/integrate&#45;dryer/src/init</title>
<path fill="#ffffff" stroke="black" stroke-width="2" d="M60,-417C60,-417 184,-417 184,-417 190,-417 196,-423 196,-429 196,-429 196,-458 196,-458 196,-464 190,-470 184,-470 184,-470 60,-470 60,-470 54,-470 48,-464 48,-458 48,-458 48,-429 48,-429 48,-423 54,-417 60,-417"/>
<text text-anchor="middle" x="122" y="-457.9" font-family="Helvetica,sans-Serif" font-weight="bold" font-size="9.00">init</text>
</g>
<g id="clust14" class="cluster">
<title>cluster_separated/todos/presentations/integrate&#45;dryer/src/listeners</title>
<path fill="#ffffff" stroke="black" stroke-width="2" d="M130,-478C130,-478 192,-478 192,-478 198,-478 204,-484 204,-490 204,-490 204,-581 204,-581 204,-587 198,-593 192,-593 192,-593 130,-593 130,-593 124,-593 118,-587 118,-581 118,-581 118,-490 118,-490 118,-484 124,-478 130,-478"/>
<text text-anchor="middle" x="161" y="-580.9" font-family="Helvetica,sans-Serif" font-weight="bold" font-size="9.00">listeners</text>
</g>
<!-- data&#45;access/initialize.js -->
<g id="node1" class="node">
<title>data&#45;access/initialize.js</title>
<g id="a_node1"><a xlink:href="data-access/initialize.js" xlink:title="initialize.js">
<polygon fill="#ffffcc" stroke="black" points="488.49,-34.3 486.94,-36.37 476.09,-36.37 474.54,-34.3 431.51,-34.3 431.51,-15.7 488.49,-15.7 488.49,-34.3"/>
<text text-anchor="middle" x="460" y="-22.3" font-family="Helvetica,sans-Serif" font-size="9.00">initialize.js</text>
</a>
</g>
</g>
<!-- data&#45;access/read&#45;one.js -->
<g id="node2" class="node">
<title>data&#45;access/read&#45;one.js</title>
<g id="a_node2"><a xlink:href="data-access/read-one.js" xlink:title="read&#45;one.js">
<polygon fill="#ffffcc" stroke="black" points="490.51,-65.3 488.96,-67.37 478.11,-67.37 476.56,-65.3 429.49,-65.3 429.49,-46.7 490.51,-46.7 490.51,-65.3"/>
<text text-anchor="middle" x="460" y="-53.3" font-family="Helvetica,sans-Serif" font-size="9.00">read&#45;one.js</text>
</a>
</g>
</g>
<!-- data&#45;access/update.js -->
<g id="node3" class="node">
<title>data&#45;access/update.js</title>
<g id="a_node3"><a xlink:href="data-access/update.js" xlink:title="update.js">
<polygon fill="#ffffcc" stroke="black" points="487,-96.3 485.45,-98.37 474.6,-98.37 473.05,-96.3 433,-96.3 433,-77.7 487,-77.7 487,-96.3"/>
<text text-anchor="middle" x="460" y="-84.3" font-family="Helvetica,sans-Serif" font-size="9.00">update.js</text>
</a>
</g>
</g>
<!-- lib/validate.js -->
<g id="node4" class="node">
<title>lib/validate.js</title>
<g id="a_node4"><a xlink:href="lib/validate.js" xlink:title="validate.js">
<polygon fill="#ffffcc" stroke="black" points="488.01,-157.3 486.46,-159.37 475.6,-159.37 474.05,-157.3 431.99,-157.3 431.99,-138.7 488.01,-138.7 488.01,-157.3"/>
<text text-anchor="middle" x="460" y="-145.3" font-family="Helvetica,sans-Serif" font-size="9.00">validate.js</text>
</a>
</g>
</g>
<!-- separated/todos/business&#45;logic/all&#45;items.js -->
<g id="node5" class="node">
<title>separated/todos/business&#45;logic/all&#45;items.js</title>
<g id="a_node5"><a xlink:href="separated/todos/business-logic/all-items.js" xlink:title="all&#45;items.js">
<path fill="#ffffcc" stroke="black" d="M383.79,-265.3C383.79,-265.3 337.21,-265.3 337.21,-265.3 334.11,-265.3 331.01,-262.2 331.01,-259.1 331.01,-259.1 331.01,-252.9 331.01,-252.9 331.01,-249.8 334.11,-246.7 337.21,-246.7 337.21,-246.7 383.79,-246.7 383.79,-246.7 386.89,-246.7 389.99,-249.8 389.99,-252.9 389.99,-252.9 389.99,-259.1 389.99,-259.1 389.99,-262.2 386.89,-265.3 383.79,-265.3"/>
<text text-anchor="middle" x="360.5" y="-253.3" font-family="Helvetica,sans-Serif" font-size="9.00">all&#45;items.js</text>
</a>
</g>
</g>
<!-- separated/todos/business&#45;logic/all&#45;items.js&#45;&gt;data&#45;access/read&#45;one.js -->
<g id="edge1" class="edge">
<title>separated/todos/business&#45;logic/all&#45;items.js&#45;&gt;data&#45;access/read&#45;one.js</title>
<path fill="none" stroke="#000000" stroke-width="2" stroke-opacity="0.200000" d="M390.14,-251.2C396.29,-248.82 402.09,-245.28 406,-240 428.22,-209.95 391.73,-102.01 414,-72 416.52,-68.6 419.83,-65.92 423.51,-63.81"/>
<polygon fill="#000000" fill-opacity="0.200000" stroke="#000000" stroke-width="2" stroke-opacity="0.200000" points="424.62,-65.6 429.11,-61.1 422.8,-61.82 424.62,-65.6"/>
</g>
<!-- separated/todos/business&#45;logic/create&#45;item.js -->
<g id="node6" class="node">
<title>separated/todos/business&#45;logic/create&#45;item.js</title>
<g id="a_node6"><a xlink:href="separated/todos/business-logic/create-item.js" xlink:title="create&#45;item.js">
<path fill="#ffffcc" stroke="black" d="M389.3,-296.3C389.3,-296.3 331.7,-296.3 331.7,-296.3 328.6,-296.3 325.5,-293.2 325.5,-290.1 325.5,-290.1 325.5,-283.9 325.5,-283.9 325.5,-280.8 328.6,-277.7 331.7,-277.7 331.7,-277.7 389.3,-277.7 389.3,-277.7 392.4,-277.7 395.5,-280.8 395.5,-283.9 395.5,-283.9 395.5,-290.1 395.5,-290.1 395.5,-293.2 392.4,-296.3 389.3,-296.3"/>
<text text-anchor="middle" x="360.5" y="-284.3" font-family="Helvetica,sans-Serif" font-size="9.00">create&#45;item.js</text>
</a>
</g>
</g>
<!-- separated/todos/business&#45;logic/create&#45;item.js&#45;&gt;data&#45;access/read&#45;one.js -->
<g id="edge2" class="edge">
<title>separated/todos/business&#45;logic/create&#45;item.js&#45;&gt;data&#45;access/read&#45;one.js</title>
<path fill="none" stroke="#000000" stroke-width="2" stroke-opacity="0.200000" d="M395.56,-279.75C399.62,-277.56 403.28,-274.71 406,-271 419.09,-253.16 400.88,-89.82 414,-72 416.51,-68.59 419.81,-65.9 423.48,-63.79"/>
<polygon fill="#000000" fill-opacity="0.200000" stroke="#000000" stroke-width="2" stroke-opacity="0.200000" points="424.6,-65.58 429.08,-61.08 422.77,-61.8 424.6,-65.58"/>
</g>
<!-- separated/todos/business&#45;logic/create&#45;item.js&#45;&gt;data&#45;access/update.js -->
<g id="edge3" class="edge">
<title>separated/todos/business&#45;logic/create&#45;item.js&#45;&gt;data&#45;access/update.js</title>
<path fill="none" stroke="#000000" stroke-width="2" stroke-opacity="0.200000" d="M395.51,-279.71C399.58,-277.52 403.25,-274.69 406,-271 425.02,-245.49 400.33,-156.74 414,-128 419.36,-116.73 429.36,-107.13 438.57,-100.06"/>
<polygon fill="#000000" fill-opacity="0.200000" stroke="#000000" stroke-width="2" stroke-opacity="0.200000" points="439.97,-101.63 443.57,-96.39 437.49,-98.24 439.97,-101.63"/>
</g>
<!-- separated/todos/business&#45;logic/get&#45;title.js -->
<g id="node7" class="node">
<title>separated/todos/business&#45;logic/get&#45;title.js</title>
<g id="a_node7"><a xlink:href="separated/todos/business-logic/get-title.js" xlink:title="get&#45;title.js">
<path fill="#ffffcc" stroke="black" d="M381.3,-234.3C381.3,-234.3 339.7,-234.3 339.7,-234.3 336.6,-234.3 333.5,-231.2 333.5,-228.1 333.5,-228.1 333.5,-221.9 333.5,-221.9 333.5,-218.8 336.6,-215.7 339.7,-215.7 339.7,-215.7 381.3,-215.7 381.3,-215.7 384.41,-215.7 387.51,-218.8 387.51,-221.9 387.51,-221.9 387.51,-228.1 387.51,-228.1 387.51,-231.2 384.41,-234.3 381.3,-234.3"/>
<text text-anchor="middle" x="360.5" y="-222.3" font-family="Helvetica,sans-Serif" font-size="9.00">get&#45;title.js</text>
</a>
</g>
</g>
<!-- separated/todos/business&#45;logic/get&#45;title.js&#45;&gt;data&#45;access/read&#45;one.js -->
<g id="edge4" class="edge">
<title>separated/todos/business&#45;logic/get&#45;title.js&#45;&gt;data&#45;access/read&#45;one.js</title>
<path fill="none" stroke="#000000" stroke-width="2" stroke-opacity="0.200000" d="M366.31,-215.62C375.41,-197.45 395.24,-155.99 406,-119 411.92,-98.65 400.37,-88.22 414,-72 416.65,-68.84 419.97,-66.31 423.6,-64.28"/>
<polygon fill="#000000" fill-opacity="0.200000" stroke="#000000" stroke-width="2" stroke-opacity="0.200000" points="424.59,-66.13 429.09,-61.64 422.77,-62.34 424.59,-66.13"/>
</g>
<!-- separated/todos/business&#45;logic/remove&#45;item.js -->
<g id="node8" class="node">
<title>separated/todos/business&#45;logic/remove&#45;item.js</title>
<g id="a_node8"><a xlink:href="separated/todos/business-logic/remove-item.js" xlink:title="remove&#45;item.js">
<path fill="#ffffcc" stroke="black" d="M391.79,-327.3C391.79,-327.3 329.21,-327.3 329.21,-327.3 326.11,-327.3 323.01,-324.2 323.01,-321.1 323.01,-321.1 323.01,-314.9 323.01,-314.9 323.01,-311.8 326.11,-308.7 329.21,-308.7 329.21,-308.7 391.79,-308.7 391.79,-308.7 394.89,-308.7 398,-311.8 398,-314.9 398,-314.9 398,-321.1 398,-321.1 398,-324.2 394.89,-327.3 391.79,-327.3"/>
<text text-anchor="middle" x="360.5" y="-315.3" font-family="Helvetica,sans-Serif" font-size="9.00">remove&#45;item.js</text>
</a>
</g>
</g>
<!-- separated/todos/business&#45;logic/remove&#45;item.js&#45;&gt;data&#45;access/read&#45;one.js -->
<g id="edge5" class="edge">
<title>separated/todos/business&#45;logic/remove&#45;item.js&#45;&gt;data&#45;access/read&#45;one.js</title>
<path fill="none" stroke="#000000" stroke-width="2" stroke-opacity="0.200000" d="M398.13,-309.26C401.16,-307.31 403.87,-304.92 406,-302 421.07,-281.34 398.89,-92.63 414,-72 416.5,-68.58 419.79,-65.89 423.46,-63.78"/>
<polygon fill="#000000" fill-opacity="0.200000" stroke="#000000" stroke-width="2" stroke-opacity="0.200000" points="424.58,-65.57 429.06,-61.07 422.75,-61.79 424.58,-65.57"/>
</g>
<!-- separated/todos/business&#45;logic/remove&#45;item.js&#45;&gt;data&#45;access/update.js -->
<g id="edge6" class="edge">
<title>separated/todos/business&#45;logic/remove&#45;item.js&#45;&gt;data&#45;access/update.js</title>
<path fill="none" stroke="#000000" stroke-width="2" stroke-opacity="0.200000" d="M398.09,-309.23C401.13,-307.29 403.85,-304.91 406,-302 417.49,-286.43 405.77,-145.52 414,-128 419.3,-116.7 429.29,-107.1 438.52,-100.03"/>
<polygon fill="#000000" fill-opacity="0.200000" stroke="#000000" stroke-width="2" stroke-opacity="0.200000" points="439.92,-101.61 443.53,-96.38 437.44,-98.22 439.92,-101.61"/>
</g>
<!-- separated/todos/business&#45;logic/update&#45;item.js -->
<g id="node9" class="node">
<title>separated/todos/business&#45;logic/update&#45;item.js</title>
<g id="a_node9"><a xlink:href="separated/todos/business-logic/update-item.js" xlink:title="update&#45;item.js">
<path fill="#ffffcc" stroke="black" d="M390.31,-358.3C390.31,-358.3 330.69,-358.3 330.69,-358.3 327.59,-358.3 324.49,-355.2 324.49,-352.1 324.49,-352.1 324.49,-345.9 324.49,-345.9 324.49,-342.8 327.59,-339.7 330.69,-339.7 330.69,-339.7 390.31,-339.7 390.31,-339.7 393.41,-339.7 396.51,-342.8 396.51,-345.9 396.51,-345.9 396.51,-352.1 396.51,-352.1 396.51,-355.2 393.41,-358.3 390.31,-358.3"/>
<text text-anchor="middle" x="360.5" y="-346.3" font-family="Helvetica,sans-Serif" font-size="9.00">update&#45;item.js</text>
</a>
</g>
</g>
<!-- separated/todos/business&#45;logic/update&#45;item.js&#45;&gt;data&#45;access/read&#45;one.js -->
<g id="edge7" class="edge">
<title>separated/todos/business&#45;logic/update&#45;item.js&#45;&gt;data&#45;access/read&#45;one.js</title>
<path fill="none" stroke="#000000" stroke-width="2" stroke-opacity="0.200000" d="M396.88,-341.04C400.42,-338.96 403.59,-336.32 406,-333 423.05,-309.52 396.91,-95.45 414,-72 416.49,-68.58 419.78,-65.89 423.45,-63.77"/>
<polygon fill="#000000" fill-opacity="0.200000" stroke="#000000" stroke-width="2" stroke-opacity="0.200000" points="424.56,-65.56 429.05,-61.05 422.73,-61.78 424.56,-65.56"/>
</g>
<!-- separated/todos/business&#45;logic/update&#45;item.js&#45;&gt;data&#45;access/update.js -->
<g id="edge8" class="edge">
<title>separated/todos/business&#45;logic/update&#45;item.js&#45;&gt;data&#45;access/update.js</title>
<path fill="none" stroke="#000000" stroke-width="2" stroke-opacity="0.200000" d="M396.86,-341.02C400.4,-338.94 403.57,-336.31 406,-333 419.47,-314.61 404.38,-148.67 414,-128 419.26,-116.68 429.25,-107.08 438.48,-100.02"/>
<polygon fill="#000000" fill-opacity="0.200000" stroke="#000000" stroke-width="2" stroke-opacity="0.200000" points="439.89,-101.59 443.5,-96.36 437.41,-98.2 439.89,-101.59"/>
</g>
<!-- separated/todos/business&#45;logic/update&#45;item.js&#45;&gt;lib/validate.js -->
<g id="edge9" class="edge">
<title>separated/todos/business&#45;logic/update&#45;item.js&#45;&gt;lib/validate.js</title>
<path fill="none" stroke="#000000" stroke-width="2" stroke-opacity="0.200000" d="M396.72,-340.32C400.19,-338.35 403.39,-335.95 406,-333 416.58,-321.06 409.93,-313.43 414,-298 427.1,-248.35 445.36,-190.32 454.04,-163.3"/>
<polygon fill="#000000" fill-opacity="0.200000" stroke="#000000" stroke-width="2" stroke-opacity="0.200000" points="456.1,-163.77 455.94,-157.41 452.1,-162.48 456.1,-163.77"/>
</g>
<!-- separated/todos/data/item.schema.js -->
<g id="node10" class="node">
<title>separated/todos/data/item.schema.js</title>
<g id="a_node10"><a xlink:href="separated/todos/data/item.schema.js" xlink:title="item.schema.js">
<path fill="#ffffcc" stroke="black" d="M491.8,-327.3C491.8,-327.3 428.2,-327.3 428.2,-327.3 425.1,-327.3 422,-324.2 422,-321.1 422,-321.1 422,-314.9 422,-314.9 422,-311.8 425.1,-308.7 428.2,-308.7 428.2,-308.7 491.8,-308.7 491.8,-308.7 494.9,-308.7 498,-311.8 498,-314.9 498,-314.9 498,-321.1 498,-321.1 498,-324.2 494.9,-327.3 491.8,-327.3"/>
<text text-anchor="middle" x="460" y="-315.3" font-family="Helvetica,sans-Serif" font-size="9.00">item.schema.js</text>
</a>
</g>
</g>
<!-- separated/todos/business&#45;logic/update&#45;item.js&#45;&gt;separated/todos/data/item.schema.js -->
<g id="edge10" class="edge">
<title>separated/todos/business&#45;logic/update&#45;item.js&#45;&gt;separated/todos/data/item.schema.js</title>
<path fill="none" stroke="#000000" stroke-width="2" stroke-opacity="0.200000" d="M391.02,-339.61C401.33,-336.34 413,-332.62 423.73,-329.21"/>
<polygon fill="#000000" fill-opacity="0.200000" stroke="#000000" stroke-width="2" stroke-opacity="0.200000" points="424.5,-331.17 429.58,-327.35 423.23,-327.17 424.5,-331.17"/>
</g>
<!-- separated/todos/data/todos.js -->
<g id="node11" class="node">
<title>separated/todos/data/todos.js</title>
<g id="a_node11"><a xlink:href="separated/todos/data/todos.js" xlink:title="todos.js">
<path fill="#ffffcc" stroke="black" d="M480.8,-358.3C480.8,-358.3 439.2,-358.3 439.2,-358.3 436.1,-358.3 433,-355.2 433,-352.1 433,-352.1 433,-345.9 433,-345.9 433,-342.8 436.1,-339.7 439.2,-339.7 439.2,-339.7 480.8,-339.7 480.8,-339.7 483.9,-339.7 487,-342.8 487,-345.9 487,-345.9 487,-352.1 487,-352.1 487,-355.2 483.9,-358.3 480.8,-358.3"/>
<text text-anchor="middle" x="460" y="-346.3" font-family="Helvetica,sans-Serif" font-size="9.00">todos.js</text>
</a>
</g>
</g>
<!-- separated/todos/presentations/integrate&#45;dryer/src/components/item.js -->
<g id="node12" class="node">
<title>separated/todos/presentations/integrate&#45;dryer/src/components/item.js</title>
<g id="a_node12"><a xlink:href="separated/todos/presentations/integrate-dryer/src/components/item.js" xlink:title="item.js">
<path fill="#ffffcc" stroke="black" d="M480.8,-474.3C480.8,-474.3 439.2,-474.3 439.2,-474.3 436.1,-474.3 433,-471.2 433,-468.1 433,-468.1 433,-461.9 433,-461.9 433,-458.8 436.1,-455.7 439.2,-455.7 439.2,-455.7 480.8,-455.7 480.8,-455.7 483.9,-455.7 487,-458.8 487,-461.9 487,-461.9 487,-468.1 487,-468.1 487,-471.2 483.9,-474.3 480.8,-474.3"/>
<text text-anchor="middle" x="460" y="-462.3" font-family="Helvetica,sans-Serif" font-size="9.00">item.js</text>
</a>
</g>
</g>
<!-- separated/todos/presentations/integrate&#45;dryer/src/custom&#45;events/delete.js -->
<g id="node13" class="node">
<title>separated/todos/presentations/integrate&#45;dryer/src/custom&#45;events/delete.js</title>
<g id="a_node13"><a xlink:href="separated/todos/presentations/integrate-dryer/src/custom-events/delete.js" xlink:title="delete.js">
<path fill="#ffffcc" stroke="black" d="M611.8,-490.3C611.8,-490.3 570.2,-490.3 570.2,-490.3 567.1,-490.3 564,-487.2 564,-484.1 564,-484.1 564,-477.9 564,-477.9 564,-474.8 567.1,-471.7 570.2,-471.7 570.2,-471.7 611.8,-471.7 611.8,-471.7 614.9,-471.7 618,-474.8 618,-477.9 618,-477.9 618,-484.1 618,-484.1 618,-487.2 614.9,-490.3 611.8,-490.3"/>
<text text-anchor="middle" x="591" y="-478.3" font-family="Helvetica,sans-Serif" font-size="9.00">delete.js</text>
</a>
</g>
</g>
<!-- separated/todos/presentations/integrate&#45;dryer/src/components/item.js&#45;&gt;separated/todos/presentations/integrate&#45;dryer/src/custom&#45;events/delete.js -->
<g id="edge11" class="edge">
<title>separated/todos/presentations/integrate&#45;dryer/src/components/item.js&#45;&gt;separated/todos/presentations/integrate&#45;dryer/src/custom&#45;events/delete.js</title>
<path fill="none" stroke="#000000" stroke-width="2" stroke-opacity="0.200000" d="M487.1,-468.24C507.56,-470.78 536.12,-474.32 557.96,-477.03"/>
<polygon fill="#000000" fill-opacity="0.200000" stroke="#000000" stroke-width="2" stroke-opacity="0.200000" points="557.72,-479.11 563.93,-477.77 558.24,-474.94 557.72,-479.11"/>
</g>
<!-- separated/todos/presentations/integrate&#45;dryer/src/custom&#45;events/update.js -->
<g id="node14" class="node">
<title>separated/todos/presentations/integrate&#45;dryer/src/custom&#45;events/update.js</title>
<g id="a_node14"><a xlink:href="separated/todos/presentations/integrate-dryer/src/custom-events/update.js" xlink:title="update.js">
<path fill="#ffffcc" stroke="black" d="M611.8,-459.3C611.8,-459.3 570.2,-459.3 570.2,-459.3 567.1,-459.3 564,-456.2 564,-453.1 564,-453.1 564,-446.9 564,-446.9 564,-443.8 567.1,-440.7 570.2,-440.7 570.2,-440.7 611.8,-440.7 611.8,-440.7 614.9,-440.7 618,-443.8 618,-446.9 618,-446.9 618,-453.1 618,-453.1 618,-456.2 614.9,-459.3 611.8,-459.3"/>
<text text-anchor="middle" x="591" y="-447.3" font-family="Helvetica,sans-Serif" font-size="9.00">update.js</text>
</a>
</g>
</g>
<!-- separated/todos/presentations/integrate&#45;dryer/src/components/item.js&#45;&gt;separated/todos/presentations/integrate&#45;dryer/src/custom&#45;events/update.js -->
<g id="edge12" class="edge">
<title>separated/todos/presentations/integrate&#45;dryer/src/components/item.js&#45;&gt;separated/todos/presentations/integrate&#45;dryer/src/custom&#45;events/update.js</title>
<path fill="none" stroke="#000000" stroke-width="2" stroke-opacity="0.200000" d="M487.1,-461.96C507.56,-459.59 536.12,-456.26 557.96,-453.73"/>
<polygon fill="#000000" fill-opacity="0.200000" stroke="#000000" stroke-width="2" stroke-opacity="0.200000" points="558.22,-455.81 563.93,-453.03 557.73,-451.64 558.22,-455.81"/>
</g>
<!-- separated/todos/presentations/integrate&#45;dryer/src/components/list.js -->
<g id="node15" class="node">
<title>separated/todos/presentations/integrate&#45;dryer/src/components/list.js</title>
<g id="a_node15"><a xlink:href="separated/todos/presentations/integrate-dryer/src/components/list.js" xlink:title="list.js">
<path fill="#ffffcc" stroke="black" d="M381.3,-474.3C381.3,-474.3 339.7,-474.3 339.7,-474.3 336.6,-474.3 333.5,-471.2 333.5,-468.1 333.5,-468.1 333.5,-461.9 333.5,-461.9 333.5,-458.8 336.6,-455.7 339.7,-455.7 339.7,-455.7 381.3,-455.7 381.3,-455.7 384.4,-455.7 387.5,-458.8 387.5,-461.9 387.5,-461.9 387.5,-468.1 387.5,-468.1 387.5,-471.2 384.4,-474.3 381.3,-474.3"/>
<text text-anchor="middle" x="360.5" y="-462.3" font-family="Helvetica,sans-Serif" font-size="9.00">list.js</text>
</a>
</g>
</g>
<!-- separated/todos/presentations/integrate&#45;dryer/src/components/list.js&#45;&gt;separated/todos/presentations/integrate&#45;dryer/src/components/item.js -->
<g id="edge13" class="edge">
<title>separated/todos/presentations/integrate&#45;dryer/src/components/list.js&#45;&gt;separated/todos/presentations/integrate&#45;dryer/src/components/item.js</title>
<path fill="none" stroke="#000000" stroke-width="2" stroke-opacity="0.200000" d="M387.63,-465C399.65,-465 414.03,-465 426.72,-465"/>
<polygon fill="#000000" fill-opacity="0.200000" stroke="#000000" stroke-width="2" stroke-opacity="0.200000" points="426.8,-467.1 432.8,-465 426.8,-462.9 426.8,-467.1"/>
</g>
<!-- separated/todos/presentations/integrate&#45;dryer/src/handlers/create.js -->
<g id="node16" class="node">
<title>separated/todos/presentations/integrate&#45;dryer/src/handlers/create.js</title>
<g id="a_node16"><a xlink:href="separated/todos/presentations/integrate-dryer/src/handlers/create.js" xlink:title="create.js">
<path fill="#ffffcc" stroke="black" d="M280.3,-474.3C280.3,-474.3 238.7,-474.3 238.7,-474.3 235.6,-474.3 232.5,-471.2 232.5,-468.1 232.5,-468.1 232.5,-461.9 232.5,-461.9 232.5,-458.8 235.6,-455.7 238.7,-455.7 238.7,-455.7 280.3,-455.7 280.3,-455.7 283.4,-455.7 286.5,-458.8 286.5,-461.9 286.5,-461.9 286.5,-468.1 286.5,-468.1 286.5,-471.2 283.4,-474.3 280.3,-474.3"/>
<text text-anchor="middle" x="259.5" y="-462.3" font-family="Helvetica,sans-Serif" font-size="9.00">create.js</text>
</a>
</g>
</g>
<!-- separated/todos/presentations/integrate&#45;dryer/src/handlers/create.js&#45;&gt;separated/todos/business&#45;logic/create&#45;item.js -->
<g id="edge14" class="edge">
<title>separated/todos/presentations/integrate&#45;dryer/src/handlers/create.js&#45;&gt;separated/todos/business&#45;logic/create&#45;item.js</title>
<path fill="none" stroke="#000000" stroke-width="2" stroke-opacity="0.200000" d="M286.99,-461.58C294.61,-459.26 302.17,-455.4 307.01,-449 326.59,-423.08 295.6,-329.06 315.01,-303 316.55,-300.93 318.39,-299.12 320.42,-297.55"/>
<polygon fill="#000000" fill-opacity="0.200000" stroke="#000000" stroke-width="2" stroke-opacity="0.200000" points="321.58,-299.3 325.49,-294.29 319.31,-295.77 321.58,-299.3"/>
</g>
<!-- separated/todos/presentations/integrate&#45;dryer/src/handlers/create.js&#45;&gt;separated/todos/presentations/integrate&#45;dryer/src/components/list.js -->
<g id="edge15" class="edge">
<title>separated/todos/presentations/integrate&#45;dryer/src/handlers/create.js&#45;&gt;separated/todos/presentations/integrate&#45;dryer/src/components/list.js</title>
<path fill="none" stroke="#000000" stroke-width="2" stroke-opacity="0.200000" d="M286.51,-465C298.92,-465 313.89,-465 327.03,-465"/>
<polygon fill="#000000" fill-opacity="0.200000" stroke="#000000" stroke-width="2" stroke-opacity="0.200000" points="327.32,-467.1 333.32,-465 327.32,-462.9 327.32,-467.1"/>
</g>
<!-- separated/todos/presentations/integrate&#45;dryer/src/handlers/initialize&#45;ui.js -->
<g id="node17" class="node">
<title>separated/todos/presentations/integrate&#45;dryer/src/handlers/initialize&#45;ui.js</title>
<g id="a_node17"><a xlink:href="separated/todos/presentations/integrate-dryer/src/handlers/initialize-ui.js" xlink:title="initialize&#45;ui.js">
<path fill="#ffffcc" stroke="black" d="M286.79,-443.3C286.79,-443.3 232.21,-443.3 232.21,-443.3 229.11,-443.3 226.01,-440.2 226.01,-437.1 226.01,-437.1 226.01,-430.9 226.01,-430.9 226.01,-427.8 229.11,-424.7 232.21,-424.7 232.21,-424.7 286.79,-424.7 286.79,-424.7 289.89,-424.7 292.99,-427.8 292.99,-430.9 292.99,-430.9 292.99,-437.1 292.99,-437.1 292.99,-440.2 289.89,-443.3 286.79,-443.3"/>
<text text-anchor="middle" x="259.5" y="-431.3" font-family="Helvetica,sans-Serif" font-size="9.00">initialize&#45;ui.js</text>
</a>
</g>
</g>
<!-- separated/todos/presentations/integrate&#45;dryer/src/handlers/initialize&#45;ui.js&#45;&gt;separated/todos/business&#45;logic/all&#45;items.js -->
<g id="edge16" class="edge">
<title>separated/todos/presentations/integrate&#45;dryer/src/handlers/initialize&#45;ui.js&#45;&gt;separated/todos/business&#45;logic/all&#45;items.js</title>
<path fill="none" stroke="#000000" stroke-width="2" stroke-opacity="0.200000" d="M260.92,-424.5C262.66,-397.01 271.4,-316.52 315.01,-272 317.94,-269.01 321.47,-266.57 325.25,-264.59"/>
<polygon fill="#000000" fill-opacity="0.200000" stroke="#000000" stroke-width="2" stroke-opacity="0.200000" points="326.33,-266.4 330.92,-262 324.59,-262.58 326.33,-266.4"/>
</g>
<!-- separated/todos/presentations/integrate&#45;dryer/src/handlers/initialize&#45;ui.js&#45;&gt;separated/todos/business&#45;logic/get&#45;title.js -->
<g id="edge17" class="edge">
<title>separated/todos/presentations/integrate&#45;dryer/src/handlers/initialize&#45;ui.js&#45;&gt;separated/todos/business&#45;logic/get&#45;title.js</title>
<path fill="none" stroke="#000000" stroke-width="2" stroke-opacity="0.200000" d="M260.32,-424.52C260.25,-393.75 264.19,-295.5 315.01,-241 318.47,-237.29 322.85,-234.44 327.51,-232.25"/>
<polygon fill="#000000" fill-opacity="0.200000" stroke="#000000" stroke-width="2" stroke-opacity="0.200000" points="328.31,-234.19 333.07,-229.96 326.72,-230.3 328.31,-234.19"/>
</g>
<!-- separated/todos/presentations/integrate&#45;dryer/src/handlers/initialize&#45;ui.js&#45;&gt;separated/todos/presentations/integrate&#45;dryer/src/components/list.js -->
<g id="edge18" class="edge">
<title>separated/todos/presentations/integrate&#45;dryer/src/handlers/initialize&#45;ui.js&#45;&gt;separated/todos/presentations/integrate&#45;dryer/src/components/list.js</title>
<path fill="none" stroke="#000000" stroke-width="2" stroke-opacity="0.200000" d="M290.47,-443.39C302.1,-447.03 315.45,-451.21 327.29,-454.91"/>
<polygon fill="#000000" fill-opacity="0.200000" stroke="#000000" stroke-width="2" stroke-opacity="0.200000" points="326.97,-457.01 333.32,-456.8 328.22,-453 326.97,-457.01"/>
</g>
<!-- separated/todos/presentations/integrate&#45;dryer/src/handlers/item&#45;changes.js -->
<g id="node18" class="node">
<title>separated/todos/presentations/integrate&#45;dryer/src/handlers/item&#45;changes.js</title>
<g id="a_node18"><a xlink:href="separated/todos/presentations/integrate-dryer/src/handlers/item-changes.js" xlink:title="item&#45;changes.js">
<path fill="#ffffcc" stroke="black" d="M292.81,-505.3C292.81,-505.3 226.2,-505.3 226.2,-505.3 223.09,-505.3 219.99,-502.2 219.99,-499.1 219.99,-499.1 219.99,-492.9 219.99,-492.9 219.99,-489.8 223.09,-486.7 226.2,-486.7 226.2,-486.7 292.81,-486.7 292.81,-486.7 295.91,-486.7 299.01,-489.8 299.01,-492.9 299.01,-492.9 299.01,-499.1 299.01,-499.1 299.01,-502.2 295.91,-505.3 292.81,-505.3"/>
<text text-anchor="middle" x="259.5" y="-493.3" font-family="Helvetica,sans-Serif" font-size="9.00">item&#45;changes.js</text>
</a>
</g>
</g>
<!-- separated/todos/presentations/integrate&#45;dryer/src/handlers/item&#45;changes.js&#45;&gt;separated/todos/business&#45;logic/remove&#45;item.js -->
<g id="edge19" class="edge">
<title>separated/todos/presentations/integrate&#45;dryer/src/handlers/item&#45;changes.js&#45;&gt;separated/todos/business&#45;logic/remove&#45;item.js</title>
<path fill="none" stroke="#000000" stroke-width="2" stroke-opacity="0.200000" d="M299.13,-487.15C302.14,-485.21 304.84,-482.86 307.01,-480 326.59,-454.08 295.6,-360.06 315.01,-334 315.95,-332.73 317,-331.57 318.14,-330.49"/>
<polygon fill="#000000" fill-opacity="0.200000" stroke="#000000" stroke-width="2" stroke-opacity="0.200000" points="319.47,-332.12 322.94,-326.78 316.91,-328.79 319.47,-332.12"/>
</g>
<!-- separated/todos/presentations/integrate&#45;dryer/src/handlers/item&#45;changes.js&#45;&gt;separated/todos/business&#45;logic/update&#45;item.js -->
<g id="edge20" class="edge">
<title>separated/todos/presentations/integrate&#45;dryer/src/handlers/item&#45;changes.js&#45;&gt;separated/todos/business&#45;logic/update&#45;item.js</title>
<path fill="none" stroke="#000000" stroke-width="2" stroke-opacity="0.200000" d="M299.08,-486.48C302.02,-484.68 304.72,-482.54 307.01,-480 317.67,-468.13 309.84,-460.1 315.01,-445 325.09,-415.48 341.38,-382.89 351.2,-364.28"/>
<polygon fill="#000000" fill-opacity="0.200000" stroke="#000000" stroke-width="2" stroke-opacity="0.200000" points="353.29,-364.82 354.26,-358.53 349.59,-362.84 353.29,-364.82"/>
</g>
<!-- separated/todos/presentations/integrate&#45;dryer/src/handlers/item&#45;changes.js&#45;&gt;separated/todos/presentations/integrate&#45;dryer/src/components/list.js -->
<g id="edge21" class="edge">
<title>separated/todos/presentations/integrate&#45;dryer/src/handlers/item&#45;changes.js&#45;&gt;separated/todos/presentations/integrate&#45;dryer/src/components/list.js</title>
<path fill="none" stroke="#000000" stroke-width="2" stroke-opacity="0.200000" d="M290.47,-486.61C302.1,-482.97 315.45,-478.79 327.29,-475.09"/>
<polygon fill="#000000" fill-opacity="0.200000" stroke="#000000" stroke-width="2" stroke-opacity="0.200000" points="328.22,-477 333.32,-473.2 326.97,-472.99 328.22,-477"/>
</g>
<!-- separated/todos/presentations/integrate&#45;dryer/src/init/index.js -->
<g id="node19" class="node">
<title>separated/todos/presentations/integrate&#45;dryer/src/init/index.js</title>
<g id="a_node19"><a xlink:href="separated/todos/presentations/integrate-dryer/src/init/index.js" xlink:title="index.js">
<path fill="#ffffcc" stroke="black" d="M103.8,-443.3C103.8,-443.3 62.2,-443.3 62.2,-443.3 59.1,-443.3 56,-440.2 56,-437.1 56,-437.1 56,-430.9 56,-430.9 56,-427.8 59.1,-424.7 62.2,-424.7 62.2,-424.7 103.8,-424.7 103.8,-424.7 106.9,-424.7 110,-427.8 110,-430.9 110,-430.9 110,-437.1 110,-437.1 110,-440.2 106.9,-443.3 103.8,-443.3"/>
<text text-anchor="middle" x="83" y="-431.3" font-family="Helvetica,sans-Serif" font-size="9.00">index.js</text>
</a>
</g>
</g>
<!-- separated/todos/presentations/integrate&#45;dryer/src/listeners/changes.js -->
<g id="node20" class="node">
<title>separated/todos/presentations/integrate&#45;dryer/src/listeners/changes.js</title>
<g id="a_node20"><a xlink:href="separated/todos/presentations/integrate-dryer/src/listeners/changes.js" xlink:title="changes.js">
<path fill="#ffffcc" stroke="black" d="M184.31,-566.3C184.31,-566.3 137.69,-566.3 137.69,-566.3 134.59,-566.3 131.49,-563.2 131.49,-560.1 131.49,-560.1 131.49,-553.9 131.49,-553.9 131.49,-550.8 134.59,-547.7 137.69,-547.7 137.69,-547.7 184.31,-547.7 184.31,-547.7 187.41,-547.7 190.51,-550.8 190.51,-553.9 190.51,-553.9 190.51,-560.1 190.51,-560.1 190.51,-563.2 187.41,-566.3 184.31,-566.3"/>
<text text-anchor="middle" x="161" y="-554.3" font-family="Helvetica,sans-Serif" font-size="9.00">changes.js</text>
</a>
</g>
</g>
<!-- separated/todos/presentations/integrate&#45;dryer/src/init/index.js&#45;&gt;separated/todos/presentations/integrate&#45;dryer/src/listeners/changes.js -->
<g id="edge22" class="edge">
<title>separated/todos/presentations/integrate&#45;dryer/src/init/index.js&#45;&gt;separated/todos/presentations/integrate&#45;dryer/src/listeners/changes.js</title>
<path fill="none" stroke="#000000" stroke-width="2" stroke-opacity="0.200000" d="M84.34,-443.36C85.59,-463.79 91.36,-512.81 118,-541 120.28,-543.41 122.96,-545.46 125.84,-547.21"/>
<polygon fill="#000000" fill-opacity="0.200000" stroke="#000000" stroke-width="2" stroke-opacity="0.200000" points="124.92,-549.1 131.21,-550.03 126.88,-545.38 124.92,-549.1"/>
</g>
<!-- separated/todos/presentations/integrate&#45;dryer/src/listeners/create&#45;item.js -->
<g id="node21" class="node">
<title>separated/todos/presentations/integrate&#45;dryer/src/listeners/create&#45;item.js</title>
<g id="a_node21"><a xlink:href="separated/todos/presentations/integrate-dryer/src/listeners/create-item.js" xlink:title="create&#45;item.js">
<path fill="#ffffcc" stroke="black" d="M189.8,-535.3C189.8,-535.3 132.2,-535.3 132.2,-535.3 129.1,-535.3 126,-532.2 126,-529.1 126,-529.1 126,-522.9 126,-522.9 126,-519.8 129.1,-516.7 132.2,-516.7 132.2,-516.7 189.8,-516.7 189.8,-516.7 192.9,-516.7 196,-519.8 196,-522.9 196,-522.9 196,-529.1 196,-529.1 196,-532.2 192.9,-535.3 189.8,-535.3"/>
<text text-anchor="middle" x="161" y="-523.3" font-family="Helvetica,sans-Serif" font-size="9.00">create&#45;item.js</text>
</a>
</g>
</g>
<!-- separated/todos/presentations/integrate&#45;dryer/src/init/index.js&#45;&gt;separated/todos/presentations/integrate&#45;dryer/src/listeners/create&#45;item.js -->
<g id="edge23" class="edge">
<title>separated/todos/presentations/integrate&#45;dryer/src/init/index.js&#45;&gt;separated/todos/presentations/integrate&#45;dryer/src/listeners/create&#45;item.js</title>
<path fill="none" stroke="#000000" stroke-width="2" stroke-opacity="0.200000" d="M85.8,-443.54C89.27,-459.44 98.35,-491.44 118,-510 119.28,-511.21 120.65,-512.32 122.1,-513.36"/>
<polygon fill="#000000" fill-opacity="0.200000" stroke="#000000" stroke-width="2" stroke-opacity="0.200000" points="121.06,-515.19 127.27,-516.57 123.28,-511.62 121.06,-515.19"/>
</g>
<!-- separated/todos/presentations/integrate&#45;dryer/src/listeners/load.js -->
<g id="node22" class="node">
<title>separated/todos/presentations/integrate&#45;dryer/src/listeners/load.js</title>
<g id="a_node22"><a xlink:href="separated/todos/presentations/integrate-dryer/src/listeners/load.js" xlink:title="load.js">
<path fill="#ffffcc" stroke="black" d="M181.8,-504.3C181.8,-504.3 140.2,-504.3 140.2,-504.3 137.1,-504.3 134,-501.2 134,-498.1 134,-498.1 134,-491.9 134,-491.9 134,-488.8 137.1,-485.7 140.2,-485.7 140.2,-485.7 181.8,-485.7 181.8,-485.7 184.9,-485.7 188,-488.8 188,-491.9 188,-491.9 188,-498.1 188,-498.1 188,-501.2 184.9,-504.3 181.8,-504.3"/>
<text text-anchor="middle" x="161" y="-492.3" font-family="Helvetica,sans-Serif" font-size="9.00">load.js</text>
</a>
</g>
</g>
<!-- separated/todos/presentations/integrate&#45;dryer/src/init/index.js&#45;&gt;separated/todos/presentations/integrate&#45;dryer/src/listeners/load.js -->
<g id="edge24" class="edge">
<title>separated/todos/presentations/integrate&#45;dryer/src/init/index.js&#45;&gt;separated/todos/presentations/integrate&#45;dryer/src/listeners/load.js</title>
<path fill="none" stroke="#000000" stroke-width="2" stroke-opacity="0.200000" d="M90.72,-443.56C97.04,-452.06 107.14,-464.43 118,-473 122.56,-476.6 127.79,-479.88 132.98,-482.75"/>
<polygon fill="#000000" fill-opacity="0.200000" stroke="#000000" stroke-width="2" stroke-opacity="0.200000" points="132.27,-484.75 138.56,-485.7 134.23,-481.04 132.27,-484.75"/>
</g>
<!-- separated/todos/presentations/integrate&#45;dryer/src/init/state.js -->
<g id="node23" class="node">
<title>separated/todos/presentations/integrate&#45;dryer/src/init/state.js</title>
<g id="a_node23"><a xlink:href="separated/todos/presentations/integrate-dryer/src/init/state.js" xlink:title="state.js">
<path fill="#ffffcc" stroke="black" d="M181.8,-443.3C181.8,-443.3 140.2,-443.3 140.2,-443.3 137.1,-443.3 134,-440.2 134,-437.1 134,-437.1 134,-430.9 134,-430.9 134,-427.8 137.1,-424.7 140.2,-424.7 140.2,-424.7 181.8,-424.7 181.8,-424.7 184.9,-424.7 188,-427.8 188,-430.9 188,-430.9 188,-437.1 188,-437.1 188,-440.2 184.9,-443.3 181.8,-443.3"/>
<text text-anchor="middle" x="161" y="-431.3" font-family="Helvetica,sans-Serif" font-size="9.00">state.js</text>
</a>
</g>
</g>
<!-- separated/todos/presentations/integrate&#45;dryer/src/init/index.js&#45;&gt;separated/todos/presentations/integrate&#45;dryer/src/init/state.js -->
<g id="edge25" class="edge">
<title>separated/todos/presentations/integrate&#45;dryer/src/init/index.js&#45;&gt;separated/todos/presentations/integrate&#45;dryer/src/init/state.js</title>
<path fill="none" stroke="#000000" stroke-width="2" stroke-opacity="0.200000" d="M110.15,-434C115.77,-434 121.76,-434 127.58,-434"/>
<polygon fill="#000000" fill-opacity="0.200000" stroke="#000000" stroke-width="2" stroke-opacity="0.200000" points="127.8,-436.1 133.8,-434 127.8,-431.9 127.8,-436.1"/>
</g>
<!-- separated/todos/presentations/integrate&#45;dryer/src/listeners/changes.js&#45;&gt;separated/todos/presentations/integrate&#45;dryer/src/handlers/item&#45;changes.js -->
<g id="edge28" class="edge">
<title>separated/todos/presentations/integrate&#45;dryer/src/listeners/changes.js&#45;&gt;separated/todos/presentations/integrate&#45;dryer/src/handlers/item&#45;changes.js</title>
<path fill="none" stroke="#000000" stroke-width="2" stroke-opacity="0.200000" d="M190.6,-547.55C195.2,-545.63 199.82,-543.43 204,-541 219.08,-532.22 234.23,-519.31 244.71,-509.56"/>
<polygon fill="#000000" fill-opacity="0.200000" stroke="#000000" stroke-width="2" stroke-opacity="0.200000" points="246.27,-510.98 249.18,-505.34 243.38,-507.93 246.27,-510.98"/>
</g>
<!-- separated/todos/presentations/integrate&#45;dryer/src/listeners/create&#45;item.js&#45;&gt;separated/todos/presentations/integrate&#45;dryer/src/handlers/create.js -->
<g id="edge29" class="edge">
<title>separated/todos/presentations/integrate&#45;dryer/src/listeners/create&#45;item.js&#45;&gt;separated/todos/presentations/integrate&#45;dryer/src/handlers/create.js</title>
<path fill="none" stroke="#000000" stroke-width="2" stroke-opacity="0.200000" d="M195.95,-516.48C198.93,-514.68 201.69,-512.54 204,-510 212.99,-500.11 202.84,-490.74 212,-481 215.95,-476.8 221.05,-473.7 226.43,-471.41"/>
<polygon fill="#000000" fill-opacity="0.200000" stroke="#000000" stroke-width="2" stroke-opacity="0.200000" points="227.42,-473.28 232.32,-469.24 225.97,-469.34 227.42,-473.28"/>
</g>
<!-- separated/todos/presentations/integrate&#45;dryer/src/listeners/load.js&#45;&gt;separated/todos/presentations/integrate&#45;dryer/src/handlers/initialize&#45;ui.js -->
<g id="edge30" class="edge">
<title>separated/todos/presentations/integrate&#45;dryer/src/listeners/load.js&#45;&gt;separated/todos/presentations/integrate&#45;dryer/src/handlers/initialize&#45;ui.js</title>
<path fill="none" stroke="#000000" stroke-width="2" stroke-opacity="0.200000" d="M187.29,-485.64C193.41,-482.41 199.48,-478.24 204,-473 211.07,-464.8 204.33,-457.64 212,-450 214.42,-447.59 217.22,-445.54 220.22,-443.8"/>
<polygon fill="#000000" fill-opacity="0.200000" stroke="#000000" stroke-width="2" stroke-opacity="0.200000" points="221.38,-445.57 225.8,-440.99 219.49,-441.81 221.38,-445.57"/>
</g>
<!-- separated/todos/presentations/integrate&#45;dryer/src/init/state.js&#45;&gt;data&#45;access/initialize.js -->
<g id="edge26" class="edge">
<title>separated/todos/presentations/integrate&#45;dryer/src/init/state.js&#45;&gt;data&#45;access/initialize.js</title>
<path fill="none" stroke="#000000" stroke-width="2" stroke-opacity="0.200000" d="M165.42,-424.42C183.21,-375.93 269.91,-155.41 414,-41 417.48,-38.23 421.48,-35.93 425.62,-34"/>
<polygon fill="#000000" fill-opacity="0.200000" stroke="#000000" stroke-width="2" stroke-opacity="0.200000" points="426.61,-35.87 431.33,-31.62 424.99,-31.99 426.61,-35.87"/>
</g>
<!-- separated/todos/presentations/integrate&#45;dryer/src/init/state.js&#45;&gt;separated/todos/data/todos.js -->
<g id="edge27" class="edge">
<title>separated/todos/presentations/integrate&#45;dryer/src/init/state.js&#45;&gt;separated/todos/data/todos.js</title>
<path fill="none" stroke="#000000" stroke-width="2" stroke-opacity="0.200000" d="M182.05,-424.66C191.03,-420.82 201.87,-416.66 212,-414 296.14,-391.9 325.33,-420.57 406,-388 420.56,-382.12 434.77,-371.3 444.81,-362.55"/>
<polygon fill="#000000" fill-opacity="0.200000" stroke="#000000" stroke-width="2" stroke-opacity="0.200000" points="446.31,-364.02 449.38,-358.45 443.51,-360.89 446.31,-364.02"/>
</g>
</g>
</svg>
