<?xml version="1.0" encoding="UTF-8" standalone="no"?>
<!DOCTYPE svg PUBLIC "-//W3C//DTD SVG 1.1//EN"
 "http://www.w3.org/Graphics/SVG/1.1/DTD/svg11.dtd">
<!-- Generated by graphviz version 2.44.0 (20200408.0750)
 -->
<!-- Title: dependency&#45;cruiser output Pages: 1 -->
<svg width="553pt" height="467pt"
 viewBox="0.00 0.00 553.30 467.00" xmlns="http://www.w3.org/2000/svg" xmlns:xlink="http://www.w3.org/1999/xlink">
<g id="graph0" class="graph" transform="scale(1 1) rotate(0) translate(4 463)">
<title>dependency&#45;cruiser output</title>
<polygon fill="white" stroke="transparent" points="-4,4 -4,-463 549.3,-463 549.3,4 -4,4"/>
<g id="clust1" class="cluster">
<title>cluster_data&#45;access</title>
<path fill="#ffffff" stroke="black" stroke-width="2" d="M472.29,-124C472.29,-124 525.3,-124 525.3,-124 531.3,-124 537.3,-130 537.3,-136 537.3,-136 537.3,-227 537.3,-227 537.3,-233 531.3,-239 525.3,-239 525.3,-239 472.29,-239 472.29,-239 466.29,-239 460.29,-233 460.29,-227 460.29,-227 460.29,-136 460.29,-136 460.29,-130 466.29,-124 472.29,-124"/>
<text text-anchor="middle" x="498.8" y="-226.9" font-family="Helvetica,sans-Serif" font-weight="bold" font-size="9.00">data&#45;access</text>
</g>
<g id="clust2" class="cluster">
<title>cluster_example&#45;apps</title>
<path fill="#ffffff" stroke="black" stroke-width="2" d="M20,-8C20,-8 440.29,-8 440.29,-8 446.29,-8 452.29,-14 452.29,-20 452.29,-20 452.29,-439 452.29,-439 452.29,-445 446.29,-451 440.29,-451 440.29,-451 20,-451 20,-451 14,-451 8,-445 8,-439 8,-439 8,-20 8,-20 8,-14 14,-8 20,-8"/>
<text text-anchor="middle" x="230.15" y="-438.9" font-family="Helvetica,sans-Serif" font-weight="bold" font-size="9.00">example&#45;apps</text>
</g>
<g id="clust3" class="cluster">
<title>cluster_example&#45;apps/welcome</title>
<path fill="#ffffff" stroke="black" stroke-width="2" d="M28,-16C28,-16 432.29,-16 432.29,-16 438.29,-16 444.29,-22 444.29,-28 444.29,-28 444.29,-412 444.29,-412 444.29,-418 438.29,-424 432.29,-424 432.29,-424 28,-424 28,-424 22,-424 16,-418 16,-412 16,-412 16,-28 16,-28 16,-22 22,-16 28,-16"/>
<text text-anchor="middle" x="230.15" y="-411.9" font-family="Helvetica,sans-Serif" font-weight="bold" font-size="9.00">welcome</text>
</g>
<g id="clust4" class="cluster">
<title>cluster_example&#45;apps/welcome/business&#45;logic</title>
<path fill="#ffffff" stroke="black" stroke-width="2" d="M340.27,-109C340.27,-109 424.29,-109 424.29,-109 430.29,-109 436.29,-115 436.29,-121 436.29,-121 436.29,-274 436.29,-274 436.29,-280 430.29,-286 424.29,-286 424.29,-286 340.27,-286 340.27,-286 334.27,-286 328.27,-280 328.27,-274 328.27,-274 328.27,-121 328.27,-121 328.27,-115 334.27,-109 340.27,-109"/>
<text text-anchor="middle" x="382.28" y="-273.9" font-family="Helvetica,sans-Serif" font-weight="bold" font-size="9.00">business&#45;logic</text>
</g>
<g id="clust5" class="cluster">
<title>cluster_example&#45;apps/welcome/data</title>
<path fill="#ffffff" stroke="black" stroke-width="2" d="M227.76,-344C227.76,-344 273.76,-344 273.76,-344 279.76,-344 285.76,-350 285.76,-356 285.76,-356 285.76,-385 285.76,-385 285.76,-391 279.76,-397 273.76,-397 273.76,-397 227.76,-397 227.76,-397 221.76,-397 215.76,-391 215.76,-385 215.76,-385 215.76,-356 215.76,-356 215.76,-350 221.76,-344 227.76,-344"/>
<text text-anchor="middle" x="250.76" y="-384.9" font-family="Helvetica,sans-Serif" font-weight="bold" font-size="9.00">data</text>
</g>
<g id="clust6" class="cluster">
<title>cluster_example&#45;apps/welcome/presentations</title>
<path fill="#ffffff" stroke="black" stroke-width="2" d="M36,-24C36,-24 308.27,-24 308.27,-24 314.27,-24 320.27,-30 320.27,-36 320.27,-36 320.27,-324 320.27,-324 320.27,-330 314.27,-336 308.27,-336 308.27,-336 36,-336 36,-336 30,-336 24,-330 24,-324 24,-324 24,-36 24,-36 24,-30 30,-24 36,-24"/>
<text text-anchor="middle" x="172.14" y="-323.9" font-family="Helvetica,sans-Serif" font-weight="bold" font-size="9.00">presentations</text>
</g>
<g id="clust7" class="cluster">
<title>cluster_example&#45;apps/welcome/presentations/integrate&#45;multi&#45;page</title>
<path fill="#ffffff" stroke="black" stroke-width="2" d="M44,-32C44,-32 300.27,-32 300.27,-32 306.27,-32 312.27,-38 312.27,-44 312.27,-44 312.27,-297 312.27,-297 312.27,-303 306.27,-309 300.27,-309 300.27,-309 44,-309 44,-309 38,-309 32,-303 32,-297 32,-297 32,-44 32,-44 32,-38 38,-32 44,-32"/>
<text text-anchor="middle" x="172.14" y="-296.9" font-family="Helvetica,sans-Serif" font-weight="bold" font-size="9.00">integrate&#45;multi&#45;page</text>
</g>
<g id="clust8" class="cluster">
<title>cluster_example&#45;apps/welcome/presentations/integrate&#45;multi&#45;page/src</title>
<path fill="#ffffff" stroke="black" stroke-width="2" d="M52,-40C52,-40 292.27,-40 292.27,-40 298.27,-40 304.27,-46 304.27,-52 304.27,-52 304.27,-270 304.27,-270 304.27,-276 298.27,-282 292.27,-282 292.27,-282 52,-282 52,-282 46,-282 40,-276 40,-270 40,-270 40,-52 40,-52 40,-46 46,-40 52,-40"/>
<text text-anchor="middle" x="172.14" y="-269.9" font-family="Helvetica,sans-Serif" font-weight="bold" font-size="9.00">src</text>
</g>
<g id="clust9" class="cluster">
<title>cluster_example&#45;apps/welcome/presentations/integrate&#45;multi&#45;page/src/components</title>
<path fill="#ffffff" stroke="black" stroke-width="2" d="M227.76,-48C227.76,-48 273.76,-48 273.76,-48 279.76,-48 285.76,-54 285.76,-60 285.76,-60 285.76,-120 285.76,-120 285.76,-126 279.76,-132 273.76,-132 273.76,-132 227.76,-132 227.76,-132 221.76,-132 215.76,-126 215.76,-120 215.76,-120 215.76,-60 215.76,-60 215.76,-54 221.76,-48 227.76,-48"/>
<text text-anchor="middle" x="250.76" y="-119.9" font-family="Helvetica,sans-Serif" font-weight="bold" font-size="9.00">components</text>
</g>
<g id="clust10" class="cluster">
<title>cluster_example&#45;apps/welcome/presentations/integrate&#45;multi&#45;page/src/handlers</title>
<path fill="#ffffff" stroke="black" stroke-width="2" d="M217.25,-140C217.25,-140 284.27,-140 284.27,-140 290.27,-140 296.27,-146 296.27,-152 296.27,-152 296.27,-243 296.27,-243 296.27,-249 290.27,-255 284.27,-255 284.27,-255 217.25,-255 217.25,-255 211.25,-255 205.25,-249 205.25,-243 205.25,-243 205.25,-152 205.25,-152 205.25,-146 211.25,-140 217.25,-140"/>
<text text-anchor="middle" x="250.76" y="-242.9" font-family="Helvetica,sans-Serif" font-weight="bold" font-size="9.00">handlers</text>
</g>
<g id="clust11" class="cluster">
<title>cluster_example&#45;apps/welcome/presentations/integrate&#45;multi&#45;page/src/init</title>
<path fill="#ffffff" stroke="black" stroke-width="2" d="M60,-48C60,-48 185.25,-48 185.25,-48 191.25,-48 197.25,-54 197.25,-60 197.25,-60 197.25,-120 197.25,-120 197.25,-126 191.25,-132 185.25,-132 185.25,-132 60,-132 60,-132 54,-132 48,-126 48,-120 48,-120 48,-60 48,-60 48,-54 54,-48 60,-48"/>
<text text-anchor="middle" x="122.63" y="-119.9" font-family="Helvetica,sans-Serif" font-weight="bold" font-size="9.00">init</text>
</g>
<g id="clust12" class="cluster">
<title>cluster_example&#45;apps/welcome/presentations/integrate&#45;multi&#45;page/src/listeners</title>
<path fill="#ffffff" stroke="black" stroke-width="2" d="M130,-140C130,-140 183,-140 183,-140 189,-140 195,-146 195,-152 195,-152 195,-243 195,-243 195,-249 189,-255 183,-255 183,-255 130,-255 130,-255 124,-255 118,-249 118,-243 118,-243 118,-152 118,-152 118,-146 124,-140 130,-140"/>
<text text-anchor="middle" x="156.5" y="-242.9" font-family="Helvetica,sans-Serif" font-weight="bold" font-size="9.00">listeners</text>
</g>
<!-- data&#45;access/initialize.js -->
<g id="node1" class="node">
<title>data&#45;access/initialize.js</title>
<g id="a_node1"><a xlink:href="data-access/initialize.js" xlink:title="initialize.js">
<polygon fill="#ffffcc" stroke="black" points="527.29,-150.3 525.74,-152.37 514.89,-152.37 513.34,-150.3 470.3,-150.3 470.3,-131.7 527.29,-131.7 527.29,-150.3"/>
<text text-anchor="middle" x="498.8" y="-138.3" font-family="Helvetica,sans-Serif" font-size="9.00">initialize.js</text>
</a>
</g>
</g>
<!-- data&#45;access/read&#45;one.js -->
<g id="node2" class="node">
<title>data&#45;access/read&#45;one.js</title>
<g id="a_node2"><a xlink:href="data-access/read-one.js" xlink:title="read&#45;one.js">
<polygon fill="#ffffcc" stroke="black" points="529.31,-181.3 527.76,-183.37 516.9,-183.37 515.35,-181.3 468.29,-181.3 468.29,-162.7 529.31,-162.7 529.31,-181.3"/>
<text text-anchor="middle" x="498.8" y="-169.3" font-family="Helvetica,sans-Serif" font-size="9.00">read&#45;one.js</text>
</a>
</g>
</g>
<!-- data&#45;access/update.js -->
<g id="node3" class="node">
<title>data&#45;access/update.js</title>
<g id="a_node3"><a xlink:href="data-access/update.js" xlink:title="update.js">
<polygon fill="#ffffcc" stroke="black" points="525.8,-212.3 524.25,-214.37 513.4,-214.37 511.85,-212.3 471.8,-212.3 471.8,-193.7 525.8,-193.7 525.8,-212.3"/>
<text text-anchor="middle" x="498.8" y="-200.3" font-family="Helvetica,sans-Serif" font-size="9.00">update.js</text>
</a>
</g>
</g>
<!-- example&#45;apps/welcome/business&#45;logic/be&#45;welcoming.js -->
<g id="node4" class="node">
<title>example&#45;apps/welcome/business&#45;logic/be&#45;welcoming.js</title>
<g id="a_node4"><a xlink:href="example-apps/welcome/business-logic/be-welcoming.js" xlink:title="be&#45;welcoming.js">
<path fill="#ffffcc" stroke="black" d="M416.08,-135.3C416.08,-135.3 348.48,-135.3 348.48,-135.3 345.38,-135.3 342.28,-132.2 342.28,-129.1 342.28,-129.1 342.28,-122.9 342.28,-122.9 342.28,-119.8 345.38,-116.7 348.48,-116.7 348.48,-116.7 416.08,-116.7 416.08,-116.7 419.18,-116.7 422.28,-119.8 422.28,-122.9 422.28,-122.9 422.28,-129.1 422.28,-129.1 422.28,-132.2 419.18,-135.3 416.08,-135.3"/>
<text text-anchor="middle" x="382.28" y="-123.3" font-family="Helvetica,sans-Serif" font-size="9.00">be&#45;welcoming.js</text>
</a>
</g>
</g>
<!-- example&#45;apps/welcome/business&#45;logic/be&#45;welcoming.js&#45;&gt;data&#45;access/read&#45;one.js -->
<g id="edge1" class="edge">
<title>example&#45;apps/welcome/business&#45;logic/be&#45;welcoming.js&#45;&gt;data&#45;access/read&#45;one.js</title>
<path fill="none" stroke="#000000" stroke-width="2" stroke-opacity="0.200000" d="M422.58,-129.36C432.99,-131.72 443.71,-135.61 452.29,-142 458.04,-146.28 454.94,-151.23 460.29,-156 461.63,-157.19 463.07,-158.3 464.58,-159.34"/>
<polygon fill="#000000" fill-opacity="0.200000" stroke="#000000" stroke-width="2" stroke-opacity="0.200000" points="463.71,-161.27 469.93,-162.58 465.89,-157.68 463.71,-161.27"/>
</g>
<!-- example&#45;apps/welcome/business&#45;logic/read&#45;greeting.js -->
<g id="node5" class="node">
<title>example&#45;apps/welcome/business&#45;logic/read&#45;greeting.js</title>
<g id="a_node5"><a xlink:href="example-apps/welcome/business-logic/read-greeting.js" xlink:title="read&#45;greeting.js">
<path fill="#ffffcc" stroke="black" d="M415.09,-197.3C415.09,-197.3 349.47,-197.3 349.47,-197.3 346.37,-197.3 343.27,-194.2 343.27,-191.1 343.27,-191.1 343.27,-184.9 343.27,-184.9 343.27,-181.8 346.37,-178.7 349.47,-178.7 349.47,-178.7 415.09,-178.7 415.09,-178.7 418.19,-178.7 421.29,-181.8 421.29,-184.9 421.29,-184.9 421.29,-191.1 421.29,-191.1 421.29,-194.2 418.19,-197.3 415.09,-197.3"/>
<text text-anchor="middle" x="382.28" y="-185.3" font-family="Helvetica,sans-Serif" font-size="9.00">read&#45;greeting.js</text>
</a>
</g>
</g>
<!-- example&#45;apps/welcome/business&#45;logic/read&#45;greeting.js&#45;&gt;data&#45;access/read&#45;one.js -->
<g id="edge2" class="edge">
<title>example&#45;apps/welcome/business&#45;logic/read&#45;greeting.js&#45;&gt;data&#45;access/read&#45;one.js</title>
<path fill="none" stroke="#000000" stroke-width="2" stroke-opacity="0.200000" d="M421.41,-182.67C434.5,-180.84 449.09,-178.81 461.98,-177"/>
<polygon fill="#000000" fill-opacity="0.200000" stroke="#000000" stroke-width="2" stroke-opacity="0.200000" points="462.51,-179.05 468.16,-176.14 461.93,-174.89 462.51,-179.05"/>
</g>
<!-- example&#45;apps/welcome/business&#45;logic/read&#45;message.js -->
<g id="node6" class="node">
<title>example&#45;apps/welcome/business&#45;logic/read&#45;message.js</title>
<g id="a_node6"><a xlink:href="example-apps/welcome/business-logic/read-message.js" xlink:title="read&#45;message.js">
<path fill="#ffffcc" stroke="black" d="M417.09,-166.3C417.09,-166.3 347.47,-166.3 347.47,-166.3 344.37,-166.3 341.27,-163.2 341.27,-160.1 341.27,-160.1 341.27,-153.9 341.27,-153.9 341.27,-150.8 344.37,-147.7 347.47,-147.7 347.47,-147.7 417.09,-147.7 417.09,-147.7 420.19,-147.7 423.29,-150.8 423.29,-153.9 423.29,-153.9 423.29,-160.1 423.29,-160.1 423.29,-163.2 420.19,-166.3 417.09,-166.3"/>
<text text-anchor="middle" x="382.28" y="-154.3" font-family="Helvetica,sans-Serif" font-size="9.00">read&#45;message.js</text>
</a>
</g>
</g>
<!-- example&#45;apps/welcome/business&#45;logic/read&#45;message.js&#45;&gt;data&#45;access/read&#45;one.js -->
<g id="edge3" class="edge">
<title>example&#45;apps/welcome/business&#45;logic/read&#45;message.js&#45;&gt;data&#45;access/read&#45;one.js</title>
<path fill="none" stroke="#000000" stroke-width="2" stroke-opacity="0.200000" d="M423.33,-162.25C435.86,-163.89 449.59,-165.69 461.81,-167.29"/>
<polygon fill="#000000" fill-opacity="0.200000" stroke="#000000" stroke-width="2" stroke-opacity="0.200000" points="461.83,-169.41 468.06,-168.1 462.38,-165.24 461.83,-169.41"/>
</g>
<!-- example&#45;apps/welcome/business&#45;logic/update&#45;greeting.js -->
<g id="node7" class="node">
<title>example&#45;apps/welcome/business&#45;logic/update&#45;greeting.js</title>
<g id="a_node7"><a xlink:href="example-apps/welcome/business-logic/update-greeting.js" xlink:title="update&#45;greeting.js">
<path fill="#ffffcc" stroke="black" d="M420.1,-228.3C420.1,-228.3 344.46,-228.3 344.46,-228.3 341.36,-228.3 338.26,-225.2 338.26,-222.1 338.26,-222.1 338.26,-215.9 338.26,-215.9 338.26,-212.8 341.36,-209.7 344.46,-209.7 344.46,-209.7 420.1,-209.7 420.1,-209.7 423.2,-209.7 426.3,-212.8 426.3,-215.9 426.3,-215.9 426.3,-222.1 426.3,-222.1 426.3,-225.2 423.2,-228.3 420.1,-228.3"/>
<text text-anchor="middle" x="382.28" y="-216.3" font-family="Helvetica,sans-Serif" font-size="9.00">update&#45;greeting.js</text>
</a>
</g>
</g>
<!-- example&#45;apps/welcome/business&#45;logic/update&#45;greeting.js&#45;&gt;data&#45;access/update.js -->
<g id="edge4" class="edge">
<title>example&#45;apps/welcome/business&#45;logic/update&#45;greeting.js&#45;&gt;data&#45;access/update.js</title>
<path fill="none" stroke="#000000" stroke-width="2" stroke-opacity="0.200000" d="M426.58,-212.95C439.52,-211.14 453.48,-209.19 465.58,-207.5"/>
<polygon fill="#000000" fill-opacity="0.200000" stroke="#000000" stroke-width="2" stroke-opacity="0.200000" points="466.07,-209.55 471.72,-206.64 465.49,-205.39 466.07,-209.55"/>
</g>
<!-- example&#45;apps/welcome/business&#45;logic/update&#45;message.js -->
<g id="node8" class="node">
<title>example&#45;apps/welcome/business&#45;logic/update&#45;message.js</title>
<g id="a_node8"><a xlink:href="example-apps/welcome/business-logic/update-message.js" xlink:title="update&#45;message.js">
<path fill="#ffffcc" stroke="black" d="M422.1,-259.3C422.1,-259.3 342.46,-259.3 342.46,-259.3 339.36,-259.3 336.26,-256.2 336.26,-253.1 336.26,-253.1 336.26,-246.9 336.26,-246.9 336.26,-243.8 339.36,-240.7 342.46,-240.7 342.46,-240.7 422.1,-240.7 422.1,-240.7 425.2,-240.7 428.3,-243.8 428.3,-246.9 428.3,-246.9 428.3,-253.1 428.3,-253.1 428.3,-256.2 425.2,-259.3 422.1,-259.3"/>
<text text-anchor="middle" x="382.28" y="-247.3" font-family="Helvetica,sans-Serif" font-size="9.00">update&#45;message.js</text>
</a>
</g>
</g>
<!-- example&#45;apps/welcome/business&#45;logic/update&#45;message.js&#45;&gt;data&#45;access/update.js -->
<g id="edge5" class="edge">
<title>example&#45;apps/welcome/business&#45;logic/update&#45;message.js&#45;&gt;data&#45;access/update.js</title>
<path fill="none" stroke="#000000" stroke-width="2" stroke-opacity="0.200000" d="M428.61,-242.02C436.67,-239.9 444.86,-237.26 452.29,-234 462.73,-229.43 473.32,-222.39 481.65,-216.17"/>
<polygon fill="#000000" fill-opacity="0.200000" stroke="#000000" stroke-width="2" stroke-opacity="0.200000" points="483.04,-217.75 486.53,-212.44 480.49,-214.42 483.04,-217.75"/>
</g>
<!-- example&#45;apps/welcome/data/friendly.js -->
<g id="node9" class="node">
<title>example&#45;apps/welcome/data/friendly.js</title>
<g id="a_node9"><a xlink:href="example-apps/welcome/data/friendly.js" xlink:title="friendly.js">
<path fill="#ffffcc" stroke="black" d="M271.56,-370.3C271.56,-370.3 229.96,-370.3 229.96,-370.3 226.86,-370.3 223.76,-367.2 223.76,-364.1 223.76,-364.1 223.76,-357.9 223.76,-357.9 223.76,-354.8 226.86,-351.7 229.96,-351.7 229.96,-351.7 271.56,-351.7 271.56,-351.7 274.66,-351.7 277.76,-354.8 277.76,-357.9 277.76,-357.9 277.76,-364.1 277.76,-364.1 277.76,-367.2 274.66,-370.3 271.56,-370.3"/>
<text text-anchor="middle" x="250.76" y="-358.3" font-family="Helvetica,sans-Serif" font-size="9.00">friendly.js</text>
</a>
</g>
</g>
<!-- example&#45;apps/welcome/presentations/integrate&#45;multi&#45;page/src/components/footer.js -->
<g id="node10" class="node">
<title>example&#45;apps/welcome/presentations/integrate&#45;multi&#45;page/src/components/footer.js</title>
<g id="a_node10"><a xlink:href="example-apps/welcome/presentations/integrate-multi-page/src/components/footer.js" xlink:title="footer.js">
<path fill="#ffffcc" stroke="black" d="M271.56,-105.3C271.56,-105.3 229.96,-105.3 229.96,-105.3 226.86,-105.3 223.76,-102.2 223.76,-99.1 223.76,-99.1 223.76,-92.9 223.76,-92.9 223.76,-89.8 226.86,-86.7 229.96,-86.7 229.96,-86.7 271.56,-86.7 271.56,-86.7 274.66,-86.7 277.76,-89.8 277.76,-92.9 277.76,-92.9 277.76,-99.1 277.76,-99.1 277.76,-102.2 274.66,-105.3 271.56,-105.3"/>
<text text-anchor="middle" x="250.76" y="-93.3" font-family="Helvetica,sans-Serif" font-size="9.00">footer.js</text>
</a>
</g>
</g>
<!-- example&#45;apps/welcome/presentations/integrate&#45;multi&#45;page/src/components/navbar.js -->
<g id="node11" class="node">
<title>example&#45;apps/welcome/presentations/integrate&#45;multi&#45;page/src/components/navbar.js</title>
<g id="a_node11"><a xlink:href="example-apps/welcome/presentations/integrate-multi-page/src/components/navbar.js" xlink:title="navbar.js">
<path fill="#ffffcc" stroke="black" d="M271.56,-74.3C271.56,-74.3 229.96,-74.3 229.96,-74.3 226.86,-74.3 223.76,-71.2 223.76,-68.1 223.76,-68.1 223.76,-61.9 223.76,-61.9 223.76,-58.8 226.86,-55.7 229.96,-55.7 229.96,-55.7 271.56,-55.7 271.56,-55.7 274.66,-55.7 277.76,-58.8 277.76,-61.9 277.76,-61.9 277.76,-68.1 277.76,-68.1 277.76,-71.2 274.66,-74.3 271.56,-74.3"/>
<text text-anchor="middle" x="250.76" y="-62.3" font-family="Helvetica,sans-Serif" font-size="9.00">navbar.js</text>
</a>
</g>
</g>
<!-- example&#45;apps/welcome/presentations/integrate&#45;multi&#45;page/src/handlers/init&#45;edit.js -->
<g id="node12" class="node">
<title>example&#45;apps/welcome/presentations/integrate&#45;multi&#45;page/src/handlers/init&#45;edit.js</title>
<g id="a_node12"><a xlink:href="example-apps/welcome/presentations/integrate-multi-page/src/handlers/init-edit.js" xlink:title="init&#45;edit.js">
<path fill="#ffffcc" stroke="black" d="M271.56,-197.3C271.56,-197.3 229.96,-197.3 229.96,-197.3 226.86,-197.3 223.76,-194.2 223.76,-191.1 223.76,-191.1 223.76,-184.9 223.76,-184.9 223.76,-181.8 226.86,-178.7 229.96,-178.7 229.96,-178.7 271.56,-178.7 271.56,-178.7 274.66,-178.7 277.76,-181.8 277.76,-184.9 277.76,-184.9 277.76,-191.1 277.76,-191.1 277.76,-194.2 274.66,-197.3 271.56,-197.3"/>
<text text-anchor="middle" x="250.76" y="-185.3" font-family="Helvetica,sans-Serif" font-size="9.00">init&#45;edit.js</text>
</a>
</g>
</g>
<!-- example&#45;apps/welcome/presentations/integrate&#45;multi&#45;page/src/handlers/init&#45;edit.js&#45;&gt;example&#45;apps/welcome/business&#45;logic/read&#45;greeting.js -->
<g id="edge6" class="edge">
<title>example&#45;apps/welcome/presentations/integrate&#45;multi&#45;page/src/handlers/init&#45;edit.js&#45;&gt;example&#45;apps/welcome/business&#45;logic/read&#45;greeting.js</title>
<path fill="none" stroke="#000000" stroke-width="2" stroke-opacity="0.200000" d="M277.97,-188C294.78,-188 317.04,-188 336.59,-188"/>
<polygon fill="#000000" fill-opacity="0.200000" stroke="#000000" stroke-width="2" stroke-opacity="0.200000" points="336.83,-190.1 342.83,-188 336.83,-185.9 336.83,-190.1"/>
</g>
<!-- example&#45;apps/welcome/presentations/integrate&#45;multi&#45;page/src/handlers/init&#45;edit.js&#45;&gt;example&#45;apps/welcome/business&#45;logic/read&#45;message.js -->
<g id="edge7" class="edge">
<title>example&#45;apps/welcome/presentations/integrate&#45;multi&#45;page/src/handlers/init&#45;edit.js&#45;&gt;example&#45;apps/welcome/business&#45;logic/read&#45;message.js</title>
<path fill="none" stroke="#000000" stroke-width="2" stroke-opacity="0.200000" d="M277.81,-181.99C290.61,-179.02 306.26,-175.36 320.27,-172 325.8,-170.67 331.61,-169.27 337.36,-167.86"/>
<polygon fill="#000000" fill-opacity="0.200000" stroke="#000000" stroke-width="2" stroke-opacity="0.200000" points="338.22,-169.82 343.55,-166.35 337.22,-165.74 338.22,-169.82"/>
</g>
<!-- example&#45;apps/welcome/presentations/integrate&#45;multi&#45;page/src/handlers/init&#45;index.js -->
<g id="node13" class="node">
<title>example&#45;apps/welcome/presentations/integrate&#45;multi&#45;page/src/handlers/init&#45;index.js</title>
<g id="a_node13"><a xlink:href="example-apps/welcome/presentations/integrate-multi-page/src/handlers/init-index.js" xlink:title="init&#45;index.js">
<path fill="#ffffcc" stroke="black" d="M275.06,-166.3C275.06,-166.3 226.46,-166.3 226.46,-166.3 223.36,-166.3 220.26,-163.2 220.26,-160.1 220.26,-160.1 220.26,-153.9 220.26,-153.9 220.26,-150.8 223.36,-147.7 226.46,-147.7 226.46,-147.7 275.06,-147.7 275.06,-147.7 278.16,-147.7 281.26,-150.8 281.26,-153.9 281.26,-153.9 281.26,-160.1 281.26,-160.1 281.26,-163.2 278.16,-166.3 275.06,-166.3"/>
<text text-anchor="middle" x="250.76" y="-154.3" font-family="Helvetica,sans-Serif" font-size="9.00">init&#45;index.js</text>
</a>
</g>
</g>
<!-- example&#45;apps/welcome/presentations/integrate&#45;multi&#45;page/src/handlers/init&#45;index.js&#45;&gt;example&#45;apps/welcome/business&#45;logic/be&#45;welcoming.js -->
<g id="edge8" class="edge">
<title>example&#45;apps/welcome/presentations/integrate&#45;multi&#45;page/src/handlers/init&#45;index.js&#45;&gt;example&#45;apps/welcome/business&#45;logic/be&#45;welcoming.js</title>
<path fill="none" stroke="#000000" stroke-width="2" stroke-opacity="0.200000" d="M281.48,-149.89C297.72,-146 318.16,-141.11 336.31,-136.76"/>
<polygon fill="#000000" fill-opacity="0.200000" stroke="#000000" stroke-width="2" stroke-opacity="0.200000" points="337.02,-138.75 342.37,-135.31 336.04,-134.67 337.02,-138.75"/>
</g>
<!-- example&#45;apps/welcome/presentations/integrate&#45;multi&#45;page/src/handlers/update&#45;state.js -->
<g id="node14" class="node">
<title>example&#45;apps/welcome/presentations/integrate&#45;multi&#45;page/src/handlers/update&#45;state.js</title>
<g id="a_node14"><a xlink:href="example-apps/welcome/presentations/integrate-multi-page/src/handlers/update-state.js" xlink:title="update&#45;state.js">
<path fill="#ffffcc" stroke="black" d="M282.08,-228.3C282.08,-228.3 219.44,-228.3 219.44,-228.3 216.34,-228.3 213.24,-225.2 213.24,-222.1 213.24,-222.1 213.24,-215.9 213.24,-215.9 213.24,-212.8 216.34,-209.7 219.44,-209.7 219.44,-209.7 282.08,-209.7 282.08,-209.7 285.18,-209.7 288.28,-212.8 288.28,-215.9 288.28,-215.9 288.28,-222.1 288.28,-222.1 288.28,-225.2 285.18,-228.3 282.08,-228.3"/>
<text text-anchor="middle" x="250.76" y="-216.3" font-family="Helvetica,sans-Serif" font-size="9.00">update&#45;state.js</text>
</a>
</g>
</g>
<!-- example&#45;apps/welcome/presentations/integrate&#45;multi&#45;page/src/handlers/update&#45;state.js&#45;&gt;example&#45;apps/welcome/business&#45;logic/update&#45;greeting.js -->
<g id="edge9" class="edge">
<title>example&#45;apps/welcome/presentations/integrate&#45;multi&#45;page/src/handlers/update&#45;state.js&#45;&gt;example&#45;apps/welcome/business&#45;logic/update&#45;greeting.js</title>
<path fill="none" stroke="#000000" stroke-width="2" stroke-opacity="0.200000" d="M288.53,-219C302.01,-219 317.5,-219 331.9,-219"/>
<polygon fill="#000000" fill-opacity="0.200000" stroke="#000000" stroke-width="2" stroke-opacity="0.200000" points="332,-221.1 338,-219 332,-216.9 332,-221.1"/>
</g>
<!-- example&#45;apps/welcome/presentations/integrate&#45;multi&#45;page/src/handlers/update&#45;state.js&#45;&gt;example&#45;apps/welcome/business&#45;logic/update&#45;message.js -->
<g id="edge10" class="edge">
<title>example&#45;apps/welcome/presentations/integrate&#45;multi&#45;page/src/handlers/update&#45;state.js&#45;&gt;example&#45;apps/welcome/business&#45;logic/update&#45;message.js</title>
<path fill="none" stroke="#000000" stroke-width="2" stroke-opacity="0.200000" d="M288.53,-227.8C303.32,-231.34 320.52,-235.46 336.07,-239.18"/>
<polygon fill="#000000" fill-opacity="0.200000" stroke="#000000" stroke-width="2" stroke-opacity="0.200000" points="335.83,-241.28 342.16,-240.64 336.81,-237.2 335.83,-241.28"/>
</g>
<!-- example&#45;apps/welcome/presentations/integrate&#45;multi&#45;page/src/init/edit.js -->
<g id="node15" class="node">
<title>example&#45;apps/welcome/presentations/integrate&#45;multi&#45;page/src/init/edit.js</title>
<g id="a_node15"><a xlink:href="example-apps/welcome/presentations/integrate-multi-page/src/init/edit.js" xlink:title="edit.js">
<path fill="#ffffcc" stroke="black" d="M103.8,-105.3C103.8,-105.3 62.2,-105.3 62.2,-105.3 59.1,-105.3 56,-102.2 56,-99.1 56,-99.1 56,-92.9 56,-92.9 56,-89.8 59.1,-86.7 62.2,-86.7 62.2,-86.7 103.8,-86.7 103.8,-86.7 106.9,-86.7 110,-89.8 110,-92.9 110,-92.9 110,-99.1 110,-99.1 110,-102.2 106.9,-105.3 103.8,-105.3"/>
<text text-anchor="middle" x="83" y="-93.3" font-family="Helvetica,sans-Serif" font-size="9.00">edit.js</text>
</a>
</g>
</g>
<!-- example&#45;apps/welcome/presentations/integrate&#45;multi&#45;page/src/listeners/edit&#45;data.js -->
<g id="node16" class="node">
<title>example&#45;apps/welcome/presentations/integrate&#45;multi&#45;page/src/listeners/edit&#45;data.js</title>
<g id="a_node16"><a xlink:href="example-apps/welcome/presentations/integrate-multi-page/src/listeners/edit-data.js" xlink:title="edit&#45;data.js">
<path fill="#ffffcc" stroke="black" d="M180.31,-228.3C180.31,-228.3 132.69,-228.3 132.69,-228.3 129.59,-228.3 126.49,-225.2 126.49,-222.1 126.49,-222.1 126.49,-215.9 126.49,-215.9 126.49,-212.8 129.59,-209.7 132.69,-209.7 132.69,-209.7 180.31,-209.7 180.31,-209.7 183.41,-209.7 186.51,-212.8 186.51,-215.9 186.51,-215.9 186.51,-222.1 186.51,-222.1 186.51,-225.2 183.41,-228.3 180.31,-228.3"/>
<text text-anchor="middle" x="156.5" y="-216.3" font-family="Helvetica,sans-Serif" font-size="9.00">edit&#45;data.js</text>
</a>
</g>
</g>
<!-- example&#45;apps/welcome/presentations/integrate&#45;multi&#45;page/src/init/edit.js&#45;&gt;example&#45;apps/welcome/presentations/integrate&#45;multi&#45;page/src/listeners/edit&#45;data.js -->
<g id="edge11" class="edge">
<title>example&#45;apps/welcome/presentations/integrate&#45;multi&#45;page/src/init/edit.js&#45;&gt;example&#45;apps/welcome/presentations/integrate&#45;multi&#45;page/src/listeners/edit&#45;data.js</title>
<path fill="none" stroke="#000000" stroke-width="2" stroke-opacity="0.200000" d="M84.45,-105.59C85.9,-126.05 92.05,-174.44 118,-203 119.04,-204.15 120.18,-205.21 121.39,-206.21"/>
<polygon fill="#000000" fill-opacity="0.200000" stroke="#000000" stroke-width="2" stroke-opacity="0.200000" points="120.24,-207.96 126.36,-209.68 122.64,-204.52 120.24,-207.96"/>
</g>
<!-- example&#45;apps/welcome/presentations/integrate&#45;multi&#45;page/src/listeners/init&#45;edit.js -->
<g id="node17" class="node">
<title>example&#45;apps/welcome/presentations/integrate&#45;multi&#45;page/src/listeners/init&#45;edit.js</title>
<g id="a_node17"><a xlink:href="example-apps/welcome/presentations/integrate-multi-page/src/listeners/init-edit.js" xlink:title="init&#45;edit.js">
<path fill="#ffffcc" stroke="black" d="M177.3,-197.3C177.3,-197.3 135.7,-197.3 135.7,-197.3 132.6,-197.3 129.5,-194.2 129.5,-191.1 129.5,-191.1 129.5,-184.9 129.5,-184.9 129.5,-181.8 132.6,-178.7 135.7,-178.7 135.7,-178.7 177.3,-178.7 177.3,-178.7 180.4,-178.7 183.5,-181.8 183.5,-184.9 183.5,-184.9 183.5,-191.1 183.5,-191.1 183.5,-194.2 180.4,-197.3 177.3,-197.3"/>
<text text-anchor="middle" x="156.5" y="-185.3" font-family="Helvetica,sans-Serif" font-size="9.00">init&#45;edit.js</text>
</a>
</g>
</g>
<!-- example&#45;apps/welcome/presentations/integrate&#45;multi&#45;page/src/init/edit.js&#45;&gt;example&#45;apps/welcome/presentations/integrate&#45;multi&#45;page/src/listeners/init&#45;edit.js -->
<g id="edge12" class="edge">
<title>example&#45;apps/welcome/presentations/integrate&#45;multi&#45;page/src/init/edit.js&#45;&gt;example&#45;apps/welcome/presentations/integrate&#45;multi&#45;page/src/listeners/init&#45;edit.js</title>
<path fill="none" stroke="#000000" stroke-width="2" stroke-opacity="0.200000" d="M85.88,-105.46C89.47,-121.23 98.72,-153.05 118,-172 119.82,-173.79 121.87,-175.39 124.04,-176.82"/>
<polygon fill="#000000" fill-opacity="0.200000" stroke="#000000" stroke-width="2" stroke-opacity="0.200000" points="123.07,-178.68 129.31,-179.86 125.16,-175.04 123.07,-178.68"/>
</g>
<!-- example&#45;apps/welcome/presentations/integrate&#45;multi&#45;page/src/init/nav&#45;footer.js -->
<g id="node18" class="node">
<title>example&#45;apps/welcome/presentations/integrate&#45;multi&#45;page/src/init/nav&#45;footer.js</title>
<g id="a_node18"><a xlink:href="example-apps/welcome/presentations/integrate-multi-page/src/init/nav-footer.js" xlink:title="nav&#45;footer.js">
<path fill="#ffffcc" stroke="black" d="M182.81,-74.3C182.81,-74.3 130.19,-74.3 130.19,-74.3 127.09,-74.3 123.99,-71.2 123.99,-68.1 123.99,-68.1 123.99,-61.9 123.99,-61.9 123.99,-58.8 127.09,-55.7 130.19,-55.7 130.19,-55.7 182.81,-55.7 182.81,-55.7 185.91,-55.7 189.01,-58.8 189.01,-61.9 189.01,-61.9 189.01,-68.1 189.01,-68.1 189.01,-71.2 185.91,-74.3 182.81,-74.3"/>
<text text-anchor="middle" x="156.5" y="-62.3" font-family="Helvetica,sans-Serif" font-size="9.00">nav&#45;footer.js</text>
</a>
</g>
</g>
<!-- example&#45;apps/welcome/presentations/integrate&#45;multi&#45;page/src/init/edit.js&#45;&gt;example&#45;apps/welcome/presentations/integrate&#45;multi&#45;page/src/init/nav&#45;footer.js -->
<g id="edge13" class="edge">
<title>example&#45;apps/welcome/presentations/integrate&#45;multi&#45;page/src/init/edit.js&#45;&gt;example&#45;apps/welcome/presentations/integrate&#45;multi&#45;page/src/init/nav&#45;footer.js</title>
<path fill="none" stroke="#000000" stroke-width="2" stroke-opacity="0.200000" d="M105.2,-86.6C109.44,-84.73 113.86,-82.8 118,-81 121.08,-79.66 124.32,-78.27 127.53,-76.89"/>
<polygon fill="#000000" fill-opacity="0.200000" stroke="#000000" stroke-width="2" stroke-opacity="0.200000" points="128.58,-78.72 133.27,-74.43 126.93,-74.86 128.58,-78.72"/>
</g>
<!-- example&#45;apps/welcome/presentations/integrate&#45;multi&#45;page/src/init/state.js -->
<g id="node19" class="node">
<title>example&#45;apps/welcome/presentations/integrate&#45;multi&#45;page/src/init/state.js</title>
<g id="a_node19"><a xlink:href="example-apps/welcome/presentations/integrate-multi-page/src/init/state.js" xlink:title="state.js">
<path fill="#ffffcc" stroke="black" d="M177.3,-105.3C177.3,-105.3 135.7,-105.3 135.7,-105.3 132.6,-105.3 129.5,-102.2 129.5,-99.1 129.5,-99.1 129.5,-92.9 129.5,-92.9 129.5,-89.8 132.6,-86.7 135.7,-86.7 135.7,-86.7 177.3,-86.7 177.3,-86.7 180.4,-86.7 183.5,-89.8 183.5,-92.9 183.5,-92.9 183.5,-99.1 183.5,-99.1 183.5,-102.2 180.4,-105.3 177.3,-105.3"/>
<text text-anchor="middle" x="156.5" y="-93.3" font-family="Helvetica,sans-Serif" font-size="9.00">state.js</text>
</a>
</g>
</g>
<!-- example&#45;apps/welcome/presentations/integrate&#45;multi&#45;page/src/init/edit.js&#45;&gt;example&#45;apps/welcome/presentations/integrate&#45;multi&#45;page/src/init/state.js -->
<g id="edge14" class="edge">
<title>example&#45;apps/welcome/presentations/integrate&#45;multi&#45;page/src/init/edit.js&#45;&gt;example&#45;apps/welcome/presentations/integrate&#45;multi&#45;page/src/init/state.js</title>
<path fill="none" stroke="#000000" stroke-width="2" stroke-opacity="0.200000" d="M110.22,-96C114.4,-96 118.76,-96 123.06,-96"/>
<polygon fill="#000000" fill-opacity="0.200000" stroke="#000000" stroke-width="2" stroke-opacity="0.200000" points="123.28,-98.1 129.28,-96 123.28,-93.9 123.28,-98.1"/>
</g>
<!-- example&#45;apps/welcome/presentations/integrate&#45;multi&#45;page/src/listeners/edit&#45;data.js&#45;&gt;example&#45;apps/welcome/presentations/integrate&#45;multi&#45;page/src/handlers/update&#45;state.js -->
<g id="edge22" class="edge">
<title>example&#45;apps/welcome/presentations/integrate&#45;multi&#45;page/src/listeners/edit&#45;data.js&#45;&gt;example&#45;apps/welcome/presentations/integrate&#45;multi&#45;page/src/handlers/update&#45;state.js</title>
<path fill="none" stroke="#000000" stroke-width="2" stroke-opacity="0.200000" d="M186.69,-219C193.08,-219 199.97,-219 206.77,-219"/>
<polygon fill="#000000" fill-opacity="0.200000" stroke="#000000" stroke-width="2" stroke-opacity="0.200000" points="206.97,-221.1 212.97,-219 206.97,-216.9 206.97,-221.1"/>
</g>
<!-- example&#45;apps/welcome/presentations/integrate&#45;multi&#45;page/src/listeners/init&#45;edit.js&#45;&gt;example&#45;apps/welcome/presentations/integrate&#45;multi&#45;page/src/handlers/init&#45;edit.js -->
<g id="edge23" class="edge">
<title>example&#45;apps/welcome/presentations/integrate&#45;multi&#45;page/src/listeners/init&#45;edit.js&#45;&gt;example&#45;apps/welcome/presentations/integrate&#45;multi&#45;page/src/handlers/init&#45;edit.js</title>
<path fill="none" stroke="#000000" stroke-width="2" stroke-opacity="0.200000" d="M183.69,-188C194.21,-188 206.44,-188 217.5,-188"/>
<polygon fill="#000000" fill-opacity="0.200000" stroke="#000000" stroke-width="2" stroke-opacity="0.200000" points="217.51,-190.1 223.51,-188 217.51,-185.9 217.51,-190.1"/>
</g>
<!-- example&#45;apps/welcome/presentations/integrate&#45;multi&#45;page/src/init/nav&#45;footer.js&#45;&gt;example&#45;apps/welcome/presentations/integrate&#45;multi&#45;page/src/components/footer.js -->
<g id="edge18" class="edge">
<title>example&#45;apps/welcome/presentations/integrate&#45;multi&#45;page/src/init/nav&#45;footer.js&#45;&gt;example&#45;apps/welcome/presentations/integrate&#45;multi&#45;page/src/components/footer.js</title>
<path fill="none" stroke="#000000" stroke-width="2" stroke-opacity="0.200000" d="M185.43,-74.39C195.64,-77.81 207.25,-81.72 217.78,-85.25"/>
<polygon fill="#000000" fill-opacity="0.200000" stroke="#000000" stroke-width="2" stroke-opacity="0.200000" points="217.15,-87.26 223.5,-87.18 218.48,-83.28 217.15,-87.26"/>
</g>
<!-- example&#45;apps/welcome/presentations/integrate&#45;multi&#45;page/src/init/nav&#45;footer.js&#45;&gt;example&#45;apps/welcome/presentations/integrate&#45;multi&#45;page/src/components/navbar.js -->
<g id="edge19" class="edge">
<title>example&#45;apps/welcome/presentations/integrate&#45;multi&#45;page/src/init/nav&#45;footer.js&#45;&gt;example&#45;apps/welcome/presentations/integrate&#45;multi&#45;page/src/components/navbar.js</title>
<path fill="none" stroke="#000000" stroke-width="2" stroke-opacity="0.200000" d="M189.25,-65C198.31,-65 208.2,-65 217.31,-65"/>
<polygon fill="#000000" fill-opacity="0.200000" stroke="#000000" stroke-width="2" stroke-opacity="0.200000" points="217.47,-67.1 223.47,-65 217.46,-62.9 217.47,-67.1"/>
</g>
<!-- example&#45;apps/welcome/presentations/integrate&#45;multi&#45;page/src/init/state.js&#45;&gt;data&#45;access/initialize.js -->
<g id="edge20" class="edge">
<title>example&#45;apps/welcome/presentations/integrate&#45;multi&#45;page/src/init/state.js&#45;&gt;data&#45;access/initialize.js</title>
<path fill="none" stroke="#000000" stroke-width="2" stroke-opacity="0.200000" d="M183.79,-89.59C188.85,-87.29 193.68,-84.19 197.25,-80 207.61,-67.86 192.78,-54.95 205.25,-45 245.23,-13.13 270.35,-34.02 320.27,-45 383.4,-58.88 396.99,-72.53 452.29,-106 462.74,-112.32 473.62,-120.62 482.11,-127.54"/>
<polygon fill="#000000" fill-opacity="0.200000" stroke="#000000" stroke-width="2" stroke-opacity="0.200000" points="481.11,-129.44 487.07,-131.65 483.79,-126.2 481.11,-129.44"/>
</g>
<!-- example&#45;apps/welcome/presentations/integrate&#45;multi&#45;page/src/init/state.js&#45;&gt;example&#45;apps/welcome/data/friendly.js -->
<g id="edge21" class="edge">
<title>example&#45;apps/welcome/presentations/integrate&#45;multi&#45;page/src/init/state.js&#45;&gt;example&#45;apps/welcome/data/friendly.js</title>
<path fill="none" stroke="#000000" stroke-width="2" stroke-opacity="0.200000" d="M170.73,-105.5C179.93,-112.93 191.54,-124.13 197.25,-137 208.19,-161.63 198.93,-231.81 205.25,-258 213.17,-290.78 230.73,-326.32 241.27,-345.9"/>
<polygon fill="#000000" fill-opacity="0.200000" stroke="#000000" stroke-width="2" stroke-opacity="0.200000" points="239.58,-347.19 244.3,-351.45 243.27,-345.17 239.58,-347.19"/>
</g>
<!-- example&#45;apps/welcome/presentations/integrate&#45;multi&#45;page/src/init/index.js -->
<g id="node20" class="node">
<title>example&#45;apps/welcome/presentations/integrate&#45;multi&#45;page/src/init/index.js</title>
<g id="a_node20"><a xlink:href="example-apps/welcome/presentations/integrate-multi-page/src/init/index.js" xlink:title="index.js">
<path fill="#ffffcc" stroke="black" d="M103.8,-74.3C103.8,-74.3 62.2,-74.3 62.2,-74.3 59.1,-74.3 56,-71.2 56,-68.1 56,-68.1 56,-61.9 56,-61.9 56,-58.8 59.1,-55.7 62.2,-55.7 62.2,-55.7 103.8,-55.7 103.8,-55.7 106.9,-55.7 110,-58.8 110,-61.9 110,-61.9 110,-68.1 110,-68.1 110,-71.2 106.9,-74.3 103.8,-74.3"/>
<text text-anchor="middle" x="83" y="-62.3" font-family="Helvetica,sans-Serif" font-size="9.00">index.js</text>
</a>
</g>
</g>
<!-- example&#45;apps/welcome/presentations/integrate&#45;multi&#45;page/src/init/index.js&#45;&gt;example&#45;apps/welcome/presentations/integrate&#45;multi&#45;page/src/init/nav&#45;footer.js -->
<g id="edge16" class="edge">
<title>example&#45;apps/welcome/presentations/integrate&#45;multi&#45;page/src/init/index.js&#45;&gt;example&#45;apps/welcome/presentations/integrate&#45;multi&#45;page/src/init/nav&#45;footer.js</title>
<path fill="none" stroke="#000000" stroke-width="2" stroke-opacity="0.200000" d="M110.22,-65C112.73,-65 115.31,-65 117.9,-65"/>
<polygon fill="#000000" fill-opacity="0.200000" stroke="#000000" stroke-width="2" stroke-opacity="0.200000" points="117.94,-67.1 123.94,-65 117.94,-62.9 117.94,-67.1"/>
</g>
<!-- example&#45;apps/welcome/presentations/integrate&#45;multi&#45;page/src/init/index.js&#45;&gt;example&#45;apps/welcome/presentations/integrate&#45;multi&#45;page/src/init/state.js -->
<g id="edge17" class="edge">
<title>example&#45;apps/welcome/presentations/integrate&#45;multi&#45;page/src/init/index.js&#45;&gt;example&#45;apps/welcome/presentations/integrate&#45;multi&#45;page/src/init/state.js</title>
<path fill="none" stroke="#000000" stroke-width="2" stroke-opacity="0.200000" d="M105.2,-74.4C109.44,-76.27 113.86,-78.2 118,-80 121.08,-81.34 124.32,-82.73 127.53,-84.11"/>
<polygon fill="#000000" fill-opacity="0.200000" stroke="#000000" stroke-width="2" stroke-opacity="0.200000" points="126.93,-86.14 133.27,-86.57 128.58,-82.28 126.93,-86.14"/>
</g>
<!-- example&#45;apps/welcome/presentations/integrate&#45;multi&#45;page/src/listeners/init&#45;index.js -->
<g id="node21" class="node">
<title>example&#45;apps/welcome/presentations/integrate&#45;multi&#45;page/src/listeners/init&#45;index.js</title>
<g id="a_node21"><a xlink:href="example-apps/welcome/presentations/integrate-multi-page/src/listeners/init-index.js" xlink:title="init&#45;index.js">
<path fill="#ffffcc" stroke="black" d="M180.8,-166.3C180.8,-166.3 132.2,-166.3 132.2,-166.3 129.1,-166.3 126,-163.2 126,-160.1 126,-160.1 126,-153.9 126,-153.9 126,-150.8 129.1,-147.7 132.2,-147.7 132.2,-147.7 180.8,-147.7 180.8,-147.7 183.9,-147.7 187,-150.8 187,-153.9 187,-153.9 187,-160.1 187,-160.1 187,-163.2 183.9,-166.3 180.8,-166.3"/>
<text text-anchor="middle" x="156.5" y="-154.3" font-family="Helvetica,sans-Serif" font-size="9.00">init&#45;index.js</text>
</a>
</g>
</g>
<!-- example&#45;apps/welcome/presentations/integrate&#45;multi&#45;page/src/init/index.js&#45;&gt;example&#45;apps/welcome/presentations/integrate&#45;multi&#45;page/src/listeners/init&#45;index.js -->
<g id="edge15" class="edge">
<title>example&#45;apps/welcome/presentations/integrate&#45;multi&#45;page/src/init/index.js&#45;&gt;example&#45;apps/welcome/presentations/integrate&#45;multi&#45;page/src/listeners/init&#45;index.js</title>
<path fill="none" stroke="#000000" stroke-width="2" stroke-opacity="0.200000" d="M103.56,-74.3C106.05,-76.21 108.31,-78.43 110,-81 123.36,-101.25 104.43,-114.89 118,-135 120.44,-138.61 123.68,-141.72 127.25,-144.35"/>
<polygon fill="#000000" fill-opacity="0.200000" stroke="#000000" stroke-width="2" stroke-opacity="0.200000" points="126.1,-146.11 132.27,-147.67 128.42,-142.61 126.1,-146.11"/>
</g>
<!-- example&#45;apps/welcome/presentations/integrate&#45;multi&#45;page/src/listeners/init&#45;index.js&#45;&gt;example&#45;apps/welcome/presentations/integrate&#45;multi&#45;page/src/handlers/init&#45;index.js -->
<g id="edge24" class="edge">
<title>example&#45;apps/welcome/presentations/integrate&#45;multi&#45;page/src/listeners/init&#45;index.js&#45;&gt;example&#45;apps/welcome/presentations/integrate&#45;multi&#45;page/src/handlers/init&#45;index.js</title>
<path fill="none" stroke="#000000" stroke-width="2" stroke-opacity="0.200000" d="M187.2,-157C195.76,-157 205.19,-157 214.07,-157"/>
<polygon fill="#000000" fill-opacity="0.200000" stroke="#000000" stroke-width="2" stroke-opacity="0.200000" points="214.12,-159.1 220.12,-157 214.12,-154.9 214.12,-159.1"/>
</g>
</g>
</svg>
