<?xml version="1.0" encoding="UTF-8" standalone="no"?>
<!DOCTYPE svg PUBLIC "-//W3C//DTD SVG 1.1//EN"
 "http://www.w3.org/Graphics/SVG/1.1/DTD/svg11.dtd">
<!-- Generated by graphviz version 2.44.0 (20200408.0750)
 -->
<!-- Title: dependency&#45;cruiser output Pages: 1 -->
<svg width="566pt" height="563pt"
 viewBox="0.00 0.00 566.06 563.00" xmlns="http://www.w3.org/2000/svg" xmlns:xlink="http://www.w3.org/1999/xlink">
<g id="graph0" class="graph" transform="scale(1 1) rotate(0) translate(4 559)">
<title>dependency&#45;cruiser output</title>
<polygon fill="white" stroke="transparent" points="-4,4 -4,-559 562.06,-559 562.06,4 -4,4"/>
<g id="clust1" class="cluster">
<title>cluster_..</title>
<path fill="#ffffff" stroke="black" stroke-width="2" d="M130,-8C130,-8 198.01,-8 198.01,-8 204.01,-8 210.01,-14 210.01,-20 210.01,-20 210.01,-84 210.01,-84 210.01,-90 204.01,-96 198.01,-96 198.01,-96 130,-96 130,-96 124,-96 118,-90 118,-84 118,-84 118,-20 118,-20 118,-14 124,-8 130,-8"/>
<text text-anchor="middle" x="164" y="-83.9" font-family="Helvetica,sans-Serif" font-weight="bold" font-size="9.00">..</text>
</g>
<g id="clust2" class="cluster">
<title>cluster_../listeners</title>
<path fill="#ffffff" stroke="black" stroke-width="2" d="M138,-16C138,-16 190.01,-16 190.01,-16 196.01,-16 202.01,-22 202.01,-28 202.01,-28 202.01,-57 202.01,-57 202.01,-63 196.01,-69 190.01,-69 190.01,-69 138,-69 138,-69 132,-69 126,-63 126,-57 126,-57 126,-28 126,-28 126,-22 132,-16 138,-16"/>
<text text-anchor="middle" x="164" y="-56.9" font-family="Helvetica,sans-Serif" font-weight="bold" font-size="9.00">listeners</text>
</g>
<g id="clust3" class="cluster">
<title>cluster_data&#45;access</title>
<path fill="#ffffff" stroke="black" stroke-width="2" d="M485.05,-220C485.05,-220 538.06,-220 538.06,-220 544.06,-220 550.06,-226 550.06,-232 550.06,-232 550.06,-323 550.06,-323 550.06,-329 544.06,-335 538.06,-335 538.06,-335 485.05,-335 485.05,-335 479.05,-335 473.05,-329 473.05,-323 473.05,-323 473.05,-232 473.05,-232 473.05,-226 479.05,-220 485.05,-220"/>
<text text-anchor="middle" x="511.55" y="-322.9" font-family="Helvetica,sans-Serif" font-weight="bold" font-size="9.00">data&#45;access</text>
</g>
<g id="clust4" class="cluster">
<title>cluster_separated</title>
<path fill="#ffffff" stroke="black" stroke-width="2" d="M20,-104C20,-104 453.05,-104 453.05,-104 459.05,-104 465.05,-110 465.05,-116 465.05,-116 465.05,-535 465.05,-535 465.05,-541 459.05,-547 453.05,-547 453.05,-547 20,-547 20,-547 14,-547 8,-541 8,-535 8,-535 8,-116 8,-116 8,-110 14,-104 20,-104"/>
<text text-anchor="middle" x="236.52" y="-534.9" font-family="Helvetica,sans-Serif" font-weight="bold" font-size="9.00">separated</text>
</g>
<g id="clust5" class="cluster">
<title>cluster_separated/welcome</title>
<path fill="#ffffff" stroke="black" stroke-width="2" d="M28,-112C28,-112 445.05,-112 445.05,-112 451.05,-112 457.05,-118 457.05,-124 457.05,-124 457.05,-508 457.05,-508 457.05,-514 451.05,-520 445.05,-520 445.05,-520 28,-520 28,-520 22,-520 16,-514 16,-508 16,-508 16,-124 16,-124 16,-118 22,-112 28,-112"/>
<text text-anchor="middle" x="236.52" y="-507.9" font-family="Helvetica,sans-Serif" font-weight="bold" font-size="9.00">welcome</text>
</g>
<g id="clust6" class="cluster">
<title>cluster_separated/welcome/business&#45;logic</title>
<path fill="#ffffff" stroke="black" stroke-width="2" d="M353.03,-205C353.03,-205 437.05,-205 437.05,-205 443.05,-205 449.05,-211 449.05,-217 449.05,-217 449.05,-370 449.05,-370 449.05,-376 443.05,-382 437.05,-382 437.05,-382 353.03,-382 353.03,-382 347.03,-382 341.03,-376 341.03,-370 341.03,-370 341.03,-217 341.03,-217 341.03,-211 347.03,-205 353.03,-205"/>
<text text-anchor="middle" x="395.04" y="-369.9" font-family="Helvetica,sans-Serif" font-weight="bold" font-size="9.00">business&#45;logic</text>
</g>
<g id="clust7" class="cluster">
<title>cluster_separated/welcome/data</title>
<path fill="#ffffff" stroke="black" stroke-width="2" d="M240.52,-440C240.52,-440 286.52,-440 286.52,-440 292.52,-440 298.52,-446 298.52,-452 298.52,-452 298.52,-481 298.52,-481 298.52,-487 292.52,-493 286.52,-493 286.52,-493 240.52,-493 240.52,-493 234.52,-493 228.52,-487 228.52,-481 228.52,-481 228.52,-452 228.52,-452 228.52,-446 234.52,-440 240.52,-440"/>
<text text-anchor="middle" x="263.52" y="-480.9" font-family="Helvetica,sans-Serif" font-weight="bold" font-size="9.00">data</text>
</g>
<g id="clust8" class="cluster">
<title>cluster_separated/welcome/presentations</title>
<path fill="#ffffff" stroke="black" stroke-width="2" d="M36,-120C36,-120 321.03,-120 321.03,-120 327.03,-120 333.03,-126 333.03,-132 333.03,-132 333.03,-420 333.03,-420 333.03,-426 327.03,-432 321.03,-432 321.03,-432 36,-432 36,-432 30,-432 24,-426 24,-420 24,-420 24,-132 24,-132 24,-126 30,-120 36,-120"/>
<text text-anchor="middle" x="178.51" y="-419.9" font-family="Helvetica,sans-Serif" font-weight="bold" font-size="9.00">presentations</text>
</g>
<g id="clust9" class="cluster">
<title>cluster_separated/welcome/presentations/integrate&#45;multi&#45;page</title>
<path fill="#ffffff" stroke="black" stroke-width="2" d="M44,-128C44,-128 313.03,-128 313.03,-128 319.03,-128 325.03,-134 325.03,-140 325.03,-140 325.03,-393 325.03,-393 325.03,-399 319.03,-405 313.03,-405 313.03,-405 44,-405 44,-405 38,-405 32,-399 32,-393 32,-393 32,-140 32,-140 32,-134 38,-128 44,-128"/>
<text text-anchor="middle" x="178.51" y="-392.9" font-family="Helvetica,sans-Serif" font-weight="bold" font-size="9.00">integrate&#45;multi&#45;page</text>
</g>
<g id="clust10" class="cluster">
<title>cluster_separated/welcome/presentations/integrate&#45;multi&#45;page/src</title>
<path fill="#ffffff" stroke="black" stroke-width="2" d="M52,-136C52,-136 305.03,-136 305.03,-136 311.03,-136 317.03,-142 317.03,-148 317.03,-148 317.03,-366 317.03,-366 317.03,-372 311.03,-378 305.03,-378 305.03,-378 52,-378 52,-378 46,-378 40,-372 40,-366 40,-366 40,-148 40,-148 40,-142 46,-136 52,-136"/>
<text text-anchor="middle" x="178.51" y="-365.9" font-family="Helvetica,sans-Serif" font-weight="bold" font-size="9.00">src</text>
</g>
<g id="clust11" class="cluster">
<title>cluster_separated/welcome/presentations/integrate&#45;multi&#45;page/src/components</title>
<path fill="#ffffff" stroke="black" stroke-width="2" d="M240.52,-144C240.52,-144 286.52,-144 286.52,-144 292.52,-144 298.52,-150 298.52,-156 298.52,-156 298.52,-216 298.52,-216 298.52,-222 292.52,-228 286.52,-228 286.52,-228 240.52,-228 240.52,-228 234.52,-228 228.52,-222 228.52,-216 228.52,-216 228.52,-156 228.52,-156 228.52,-150 234.52,-144 240.52,-144"/>
<text text-anchor="middle" x="263.52" y="-215.9" font-family="Helvetica,sans-Serif" font-weight="bold" font-size="9.00">components</text>
</g>
<g id="clust12" class="cluster">
<title>cluster_separated/welcome/presentations/integrate&#45;multi&#45;page/src/handlers</title>
<path fill="#ffffff" stroke="black" stroke-width="2" d="M230.01,-236C230.01,-236 297.03,-236 297.03,-236 303.03,-236 309.03,-242 309.03,-248 309.03,-248 309.03,-339 309.03,-339 309.03,-345 303.03,-351 297.03,-351 297.03,-351 230.01,-351 230.01,-351 224.01,-351 218.01,-345 218.01,-339 218.01,-339 218.01,-248 218.01,-248 218.01,-242 224.01,-236 230.01,-236"/>
<text text-anchor="middle" x="263.52" y="-338.9" font-family="Helvetica,sans-Serif" font-weight="bold" font-size="9.00">handlers</text>
</g>
<g id="clust13" class="cluster">
<title>cluster_separated/welcome/presentations/integrate&#45;multi&#45;page/src/init</title>
<path fill="#ffffff" stroke="black" stroke-width="2" d="M60,-144C60,-144 192.76,-144 192.76,-144 198.76,-144 204.76,-150 204.76,-156 204.76,-156 204.76,-216 204.76,-216 204.76,-222 198.76,-228 192.76,-228 192.76,-228 60,-228 60,-228 54,-228 48,-222 48,-216 48,-216 48,-156 48,-156 48,-150 54,-144 60,-144"/>
<text text-anchor="middle" x="126.38" y="-215.9" font-family="Helvetica,sans-Serif" font-weight="bold" font-size="9.00">init</text>
</g>
<g id="clust14" class="cluster">
<title>cluster_separated/welcome/presentations/integrate&#45;multi&#45;page/src/listeners</title>
<path fill="#ffffff" stroke="black" stroke-width="2" d="M132,-236C132,-236 196.01,-236 196.01,-236 202.01,-236 208.01,-242 208.01,-248 208.01,-248 208.01,-339 208.01,-339 208.01,-345 202.01,-351 196.01,-351 196.01,-351 132,-351 132,-351 126,-351 120,-345 120,-339 120,-339 120,-248 120,-248 120,-242 126,-236 132,-236"/>
<text text-anchor="middle" x="164" y="-338.9" font-family="Helvetica,sans-Serif" font-weight="bold" font-size="9.00">listeners</text>
</g>
<!-- ../listeners/edit&#45;data.js -->
<g id="node1" class="node">
<title>../listeners/edit&#45;data.js</title>
<path fill="#ffffcc" stroke="red" d="M187.81,-42.3C187.81,-42.3 140.2,-42.3 140.2,-42.3 137.1,-42.3 134,-39.2 134,-36.1 134,-36.1 134,-29.9 134,-29.9 134,-26.8 137.1,-23.7 140.2,-23.7 140.2,-23.7 187.81,-23.7 187.81,-23.7 190.91,-23.7 194.01,-26.8 194.01,-29.9 194.01,-29.9 194.01,-36.1 194.01,-36.1 194.01,-39.2 190.91,-42.3 187.81,-42.3"/>
<text text-anchor="middle" x="164" y="-30.3" font-family="Helvetica,sans-Serif" font-size="9.00" fill="red">edit&#45;data.js</text>
</g>
<!-- data&#45;access/initialize.js -->
<g id="node2" class="node">
<title>data&#45;access/initialize.js</title>
<g id="a_node2"><a xlink:href="data-access/initialize.js" xlink:title="initialize.js">
<polygon fill="#ffffcc" stroke="black" points="540.05,-246.3 538.5,-248.37 527.64,-248.37 526.09,-246.3 483.06,-246.3 483.06,-227.7 540.05,-227.7 540.05,-246.3"/>
<text text-anchor="middle" x="511.55" y="-234.3" font-family="Helvetica,sans-Serif" font-size="9.00">initialize.js</text>
</a>
</g>
</g>
<!-- data&#45;access/read&#45;one.js -->
<g id="node3" class="node">
<title>data&#45;access/read&#45;one.js</title>
<g id="a_node3"><a xlink:href="data-access/read-one.js" xlink:title="read&#45;one.js">
<polygon fill="#ffffcc" stroke="black" points="542.06,-277.3 540.51,-279.37 529.66,-279.37 528.11,-277.3 481.04,-277.3 481.04,-258.7 542.06,-258.7 542.06,-277.3"/>
<text text-anchor="middle" x="511.55" y="-265.3" font-family="Helvetica,sans-Serif" font-size="9.00">read&#45;one.js</text>
</a>
</g>
</g>
<!-- data&#45;access/update.js -->
<g id="node4" class="node">
<title>data&#45;access/update.js</title>
<g id="a_node4"><a xlink:href="data-access/update.js" xlink:title="update.js">
<polygon fill="#ffffcc" stroke="black" points="538.55,-308.3 537,-310.37 526.15,-310.37 524.6,-308.3 484.55,-308.3 484.55,-289.7 538.55,-289.7 538.55,-308.3"/>
<text text-anchor="middle" x="511.55" y="-296.3" font-family="Helvetica,sans-Serif" font-size="9.00">update.js</text>
</a>
</g>
</g>
<!-- separated/welcome/business&#45;logic/be&#45;welcoming.js -->
<g id="node5" class="node">
<title>separated/welcome/business&#45;logic/be&#45;welcoming.js</title>
<g id="a_node5"><a xlink:href="separated/welcome/business-logic/be-welcoming.js" xlink:title="be&#45;welcoming.js">
<path fill="#ffffcc" stroke="black" d="M428.84,-293.3C428.84,-293.3 361.24,-293.3 361.24,-293.3 358.14,-293.3 355.04,-290.2 355.04,-287.1 355.04,-287.1 355.04,-280.9 355.04,-280.9 355.04,-277.8 358.14,-274.7 361.24,-274.7 361.24,-274.7 428.84,-274.7 428.84,-274.7 431.94,-274.7 435.04,-277.8 435.04,-280.9 435.04,-280.9 435.04,-287.1 435.04,-287.1 435.04,-290.2 431.94,-293.3 428.84,-293.3"/>
<text text-anchor="middle" x="395.04" y="-281.3" font-family="Helvetica,sans-Serif" font-size="9.00">be&#45;welcoming.js</text>
</a>
</g>
</g>
<!-- separated/welcome/business&#45;logic/be&#45;welcoming.js&#45;&gt;data&#45;access/read&#45;one.js -->
<g id="edge1" class="edge">
<title>separated/welcome/business&#45;logic/be&#45;welcoming.js&#45;&gt;data&#45;access/read&#45;one.js</title>
<path fill="none" stroke="#000000" stroke-width="2" stroke-opacity="0.200000" d="M435.13,-278.54C448.05,-276.73 462.34,-274.74 474.98,-272.97"/>
<polygon fill="#000000" fill-opacity="0.200000" stroke="#000000" stroke-width="2" stroke-opacity="0.200000" points="475.39,-275.03 481.04,-272.12 474.81,-270.87 475.39,-275.03"/>
</g>
<!-- separated/welcome/business&#45;logic/read&#45;greeting.js -->
<g id="node6" class="node">
<title>separated/welcome/business&#45;logic/read&#45;greeting.js</title>
<g id="a_node6"><a xlink:href="separated/welcome/business-logic/read-greeting.js" xlink:title="read&#45;greeting.js">
<path fill="#ffffcc" stroke="black" d="M427.85,-262.3C427.85,-262.3 362.23,-262.3 362.23,-262.3 359.13,-262.3 356.03,-259.2 356.03,-256.1 356.03,-256.1 356.03,-249.9 356.03,-249.9 356.03,-246.8 359.13,-243.7 362.23,-243.7 362.23,-243.7 427.85,-243.7 427.85,-243.7 430.95,-243.7 434.05,-246.8 434.05,-249.9 434.05,-249.9 434.05,-256.1 434.05,-256.1 434.05,-259.2 430.95,-262.3 427.85,-262.3"/>
<text text-anchor="middle" x="395.04" y="-250.3" font-family="Helvetica,sans-Serif" font-size="9.00">read&#45;greeting.js</text>
</a>
</g>
</g>
<!-- separated/welcome/business&#45;logic/read&#45;greeting.js&#45;&gt;data&#45;access/read&#45;one.js -->
<g id="edge2" class="edge">
<title>separated/welcome/business&#45;logic/read&#45;greeting.js&#45;&gt;data&#45;access/read&#45;one.js</title>
<path fill="none" stroke="#000000" stroke-width="2" stroke-opacity="0.200000" d="M434.17,-257.99C447.25,-259.71 461.84,-261.62 474.74,-263.31"/>
<polygon fill="#000000" fill-opacity="0.200000" stroke="#000000" stroke-width="2" stroke-opacity="0.200000" points="474.69,-265.42 480.92,-264.12 475.24,-261.26 474.69,-265.42"/>
</g>
<!-- separated/welcome/business&#45;logic/read&#45;message.js -->
<g id="node7" class="node">
<title>separated/welcome/business&#45;logic/read&#45;message.js</title>
<g id="a_node7"><a xlink:href="separated/welcome/business-logic/read-message.js" xlink:title="read&#45;message.js">
<path fill="#ffffcc" stroke="black" d="M429.85,-231.3C429.85,-231.3 360.23,-231.3 360.23,-231.3 357.13,-231.3 354.03,-228.2 354.03,-225.1 354.03,-225.1 354.03,-218.9 354.03,-218.9 354.03,-215.8 357.13,-212.7 360.23,-212.7 360.23,-212.7 429.85,-212.7 429.85,-212.7 432.95,-212.7 436.05,-215.8 436.05,-218.9 436.05,-218.9 436.05,-225.1 436.05,-225.1 436.05,-228.2 432.95,-231.3 429.85,-231.3"/>
<text text-anchor="middle" x="395.04" y="-219.3" font-family="Helvetica,sans-Serif" font-size="9.00">read&#45;message.js</text>
</a>
</g>
</g>
<!-- separated/welcome/business&#45;logic/read&#45;message.js&#45;&gt;data&#45;access/read&#45;one.js -->
<g id="edge3" class="edge">
<title>separated/welcome/business&#45;logic/read&#45;message.js&#45;&gt;data&#45;access/read&#45;one.js</title>
<path fill="none" stroke="#000000" stroke-width="2" stroke-opacity="0.200000" d="M436.05,-225.53C446.24,-227.9 456.66,-231.76 465.05,-238 470.8,-242.28 467.7,-247.23 473.05,-252 474.39,-253.19 475.83,-254.3 477.34,-255.34"/>
<polygon fill="#000000" fill-opacity="0.200000" stroke="#000000" stroke-width="2" stroke-opacity="0.200000" points="476.46,-257.27 482.68,-258.58 478.64,-253.68 476.46,-257.27"/>
</g>
<!-- separated/welcome/business&#45;logic/update&#45;greeting.js -->
<g id="node8" class="node">
<title>separated/welcome/business&#45;logic/update&#45;greeting.js</title>
<g id="a_node8"><a xlink:href="separated/welcome/business-logic/update-greeting.js" xlink:title="update&#45;greeting.js">
<path fill="#ffffcc" stroke="black" d="M432.86,-324.3C432.86,-324.3 357.22,-324.3 357.22,-324.3 354.12,-324.3 351.02,-321.2 351.02,-318.1 351.02,-318.1 351.02,-311.9 351.02,-311.9 351.02,-308.8 354.12,-305.7 357.22,-305.7 357.22,-305.7 432.86,-305.7 432.86,-305.7 435.96,-305.7 439.06,-308.8 439.06,-311.9 439.06,-311.9 439.06,-318.1 439.06,-318.1 439.06,-321.2 435.96,-324.3 432.86,-324.3"/>
<text text-anchor="middle" x="395.04" y="-312.3" font-family="Helvetica,sans-Serif" font-size="9.00">update&#45;greeting.js</text>
</a>
</g>
</g>
<!-- separated/welcome/business&#45;logic/update&#45;greeting.js&#45;&gt;data&#45;access/update.js -->
<g id="edge4" class="edge">
<title>separated/welcome/business&#45;logic/update&#45;greeting.js&#45;&gt;data&#45;access/update.js</title>
<path fill="none" stroke="#000000" stroke-width="2" stroke-opacity="0.200000" d="M439.33,-308.95C452.28,-307.14 466.23,-305.19 478.33,-303.5"/>
<polygon fill="#000000" fill-opacity="0.200000" stroke="#000000" stroke-width="2" stroke-opacity="0.200000" points="478.83,-305.55 484.48,-302.64 478.24,-301.39 478.83,-305.55"/>
</g>
<!-- separated/welcome/business&#45;logic/update&#45;message.js -->
<g id="node9" class="node">
<title>separated/welcome/business&#45;logic/update&#45;message.js</title>
<g id="a_node9"><a xlink:href="separated/welcome/business-logic/update-message.js" xlink:title="update&#45;message.js">
<path fill="#ffffcc" stroke="black" d="M434.86,-355.3C434.86,-355.3 355.22,-355.3 355.22,-355.3 352.12,-355.3 349.02,-352.2 349.02,-349.1 349.02,-349.1 349.02,-342.9 349.02,-342.9 349.02,-339.8 352.12,-336.7 355.22,-336.7 355.22,-336.7 434.86,-336.7 434.86,-336.7 437.96,-336.7 441.06,-339.8 441.06,-342.9 441.06,-342.9 441.06,-349.1 441.06,-349.1 441.06,-352.2 437.96,-355.3 434.86,-355.3"/>
<text text-anchor="middle" x="395.04" y="-343.3" font-family="Helvetica,sans-Serif" font-size="9.00">update&#45;message.js</text>
</a>
</g>
</g>
<!-- separated/welcome/business&#45;logic/update&#45;message.js&#45;&gt;data&#45;access/update.js -->
<g id="edge5" class="edge">
<title>separated/welcome/business&#45;logic/update&#45;message.js&#45;&gt;data&#45;access/update.js</title>
<path fill="none" stroke="#000000" stroke-width="2" stroke-opacity="0.200000" d="M441.37,-338.02C449.42,-335.9 457.61,-333.26 465.05,-330 475.49,-325.43 486.08,-318.39 494.41,-312.17"/>
<polygon fill="#000000" fill-opacity="0.200000" stroke="#000000" stroke-width="2" stroke-opacity="0.200000" points="495.8,-313.75 499.28,-308.44 493.24,-310.42 495.8,-313.75"/>
</g>
<!-- separated/welcome/data/friendly.js -->
<g id="node10" class="node">
<title>separated/welcome/data/friendly.js</title>
<g id="a_node10"><a xlink:href="separated/welcome/data/friendly.js" xlink:title="friendly.js">
<path fill="#ffffcc" stroke="black" d="M284.32,-466.3C284.32,-466.3 242.72,-466.3 242.72,-466.3 239.62,-466.3 236.52,-463.2 236.52,-460.1 236.52,-460.1 236.52,-453.9 236.52,-453.9 236.52,-450.8 239.62,-447.7 242.72,-447.7 242.72,-447.7 284.32,-447.7 284.32,-447.7 287.42,-447.7 290.52,-450.8 290.52,-453.9 290.52,-453.9 290.52,-460.1 290.52,-460.1 290.52,-463.2 287.42,-466.3 284.32,-466.3"/>
<text text-anchor="middle" x="263.52" y="-454.3" font-family="Helvetica,sans-Serif" font-size="9.00">friendly.js</text>
</a>
</g>
</g>
<!-- separated/welcome/presentations/integrate&#45;multi&#45;page/src/components/footer.js -->
<g id="node11" class="node">
<title>separated/welcome/presentations/integrate&#45;multi&#45;page/src/components/footer.js</title>
<g id="a_node11"><a xlink:href="separated/welcome/presentations/integrate-multi-page/src/components/footer.js" xlink:title="footer.js">
<path fill="#ffffcc" stroke="black" d="M284.32,-201.3C284.32,-201.3 242.72,-201.3 242.72,-201.3 239.62,-201.3 236.52,-198.2 236.52,-195.1 236.52,-195.1 236.52,-188.9 236.52,-188.9 236.52,-185.8 239.62,-182.7 242.72,-182.7 242.72,-182.7 284.32,-182.7 284.32,-182.7 287.42,-182.7 290.52,-185.8 290.52,-188.9 290.52,-188.9 290.52,-195.1 290.52,-195.1 290.52,-198.2 287.42,-201.3 284.32,-201.3"/>
<text text-anchor="middle" x="263.52" y="-189.3" font-family="Helvetica,sans-Serif" font-size="9.00">footer.js</text>
</a>
</g>
</g>
<!-- separated/welcome/presentations/integrate&#45;multi&#45;page/src/components/navbar.js -->
<g id="node12" class="node">
<title>separated/welcome/presentations/integrate&#45;multi&#45;page/src/components/navbar.js</title>
<g id="a_node12"><a xlink:href="separated/welcome/presentations/integrate-multi-page/src/components/navbar.js" xlink:title="navbar.js">
<path fill="#ffffcc" stroke="black" d="M284.32,-170.3C284.32,-170.3 242.72,-170.3 242.72,-170.3 239.62,-170.3 236.52,-167.2 236.52,-164.1 236.52,-164.1 236.52,-157.9 236.52,-157.9 236.52,-154.8 239.62,-151.7 242.72,-151.7 242.72,-151.7 284.32,-151.7 284.32,-151.7 287.42,-151.7 290.52,-154.8 290.52,-157.9 290.52,-157.9 290.52,-164.1 290.52,-164.1 290.52,-167.2 287.42,-170.3 284.32,-170.3"/>
<text text-anchor="middle" x="263.52" y="-158.3" font-family="Helvetica,sans-Serif" font-size="9.00">navbar.js</text>
</a>
</g>
</g>
<!-- separated/welcome/presentations/integrate&#45;multi&#45;page/src/handlers/init&#45;edit.js -->
<g id="node13" class="node">
<title>separated/welcome/presentations/integrate&#45;multi&#45;page/src/handlers/init&#45;edit.js</title>
<g id="a_node13"><a xlink:href="separated/welcome/presentations/integrate-multi-page/src/handlers/init-edit.js" xlink:title="init&#45;edit.js">
<path fill="#ffffcc" stroke="black" d="M284.32,-262.3C284.32,-262.3 242.72,-262.3 242.72,-262.3 239.62,-262.3 236.52,-259.2 236.52,-256.1 236.52,-256.1 236.52,-249.9 236.52,-249.9 236.52,-246.8 239.62,-243.7 242.72,-243.7 242.72,-243.7 284.32,-243.7 284.32,-243.7 287.42,-243.7 290.52,-246.8 290.52,-249.9 290.52,-249.9 290.52,-256.1 290.52,-256.1 290.52,-259.2 287.42,-262.3 284.32,-262.3"/>
<text text-anchor="middle" x="263.52" y="-250.3" font-family="Helvetica,sans-Serif" font-size="9.00">init&#45;edit.js</text>
</a>
</g>
</g>
<!-- separated/welcome/presentations/integrate&#45;multi&#45;page/src/handlers/init&#45;edit.js&#45;&gt;separated/welcome/business&#45;logic/read&#45;greeting.js -->
<g id="edge6" class="edge">
<title>separated/welcome/presentations/integrate&#45;multi&#45;page/src/handlers/init&#45;edit.js&#45;&gt;separated/welcome/business&#45;logic/read&#45;greeting.js</title>
<path fill="none" stroke="#000000" stroke-width="2" stroke-opacity="0.200000" d="M290.73,-253C307.54,-253 329.79,-253 349.34,-253"/>
<polygon fill="#000000" fill-opacity="0.200000" stroke="#000000" stroke-width="2" stroke-opacity="0.200000" points="349.58,-255.1 355.58,-253 349.58,-250.9 349.58,-255.1"/>
</g>
<!-- separated/welcome/presentations/integrate&#45;multi&#45;page/src/handlers/init&#45;edit.js&#45;&gt;separated/welcome/business&#45;logic/read&#45;message.js -->
<g id="edge7" class="edge">
<title>separated/welcome/presentations/integrate&#45;multi&#45;page/src/handlers/init&#45;edit.js&#45;&gt;separated/welcome/business&#45;logic/read&#45;message.js</title>
<path fill="none" stroke="#000000" stroke-width="2" stroke-opacity="0.200000" d="M290.73,-246.73C307.48,-242.72 329.63,-237.42 349.13,-232.75"/>
<polygon fill="#000000" fill-opacity="0.200000" stroke="#000000" stroke-width="2" stroke-opacity="0.200000" points="349.74,-234.76 355.08,-231.32 348.76,-230.68 349.74,-234.76"/>
</g>
<!-- separated/welcome/presentations/integrate&#45;multi&#45;page/src/handlers/init&#45;index.js -->
<g id="node14" class="node">
<title>separated/welcome/presentations/integrate&#45;multi&#45;page/src/handlers/init&#45;index.js</title>
<g id="a_node14"><a xlink:href="separated/welcome/presentations/integrate-multi-page/src/handlers/init-index.js" xlink:title="init&#45;index.js">
<path fill="#ffffcc" stroke="black" d="M287.82,-293.3C287.82,-293.3 239.22,-293.3 239.22,-293.3 236.12,-293.3 233.02,-290.2 233.02,-287.1 233.02,-287.1 233.02,-280.9 233.02,-280.9 233.02,-277.8 236.12,-274.7 239.22,-274.7 239.22,-274.7 287.82,-274.7 287.82,-274.7 290.92,-274.7 294.02,-277.8 294.02,-280.9 294.02,-280.9 294.02,-287.1 294.02,-287.1 294.02,-290.2 290.92,-293.3 287.82,-293.3"/>
<text text-anchor="middle" x="263.52" y="-281.3" font-family="Helvetica,sans-Serif" font-size="9.00">init&#45;index.js</text>
</a>
</g>
</g>
<!-- separated/welcome/presentations/integrate&#45;multi&#45;page/src/handlers/init&#45;index.js&#45;&gt;separated/welcome/business&#45;logic/be&#45;welcoming.js -->
<g id="edge8" class="edge">
<title>separated/welcome/presentations/integrate&#45;multi&#45;page/src/handlers/init&#45;index.js&#45;&gt;separated/welcome/business&#45;logic/be&#45;welcoming.js</title>
<path fill="none" stroke="#000000" stroke-width="2" stroke-opacity="0.200000" d="M294.23,-284C310.34,-284 330.58,-284 348.62,-284"/>
<polygon fill="#000000" fill-opacity="0.200000" stroke="#000000" stroke-width="2" stroke-opacity="0.200000" points="348.64,-286.1 354.64,-284 348.64,-281.9 348.64,-286.1"/>
</g>
<!-- separated/welcome/presentations/integrate&#45;multi&#45;page/src/handlers/update&#45;state.js -->
<g id="node15" class="node">
<title>separated/welcome/presentations/integrate&#45;multi&#45;page/src/handlers/update&#45;state.js</title>
<g id="a_node15"><a xlink:href="separated/welcome/presentations/integrate-multi-page/src/handlers/update-state.js" xlink:title="update&#45;state.js">
<path fill="#ffffcc" stroke="black" d="M294.84,-324.3C294.84,-324.3 232.2,-324.3 232.2,-324.3 229.1,-324.3 226,-321.2 226,-318.1 226,-318.1 226,-311.9 226,-311.9 226,-308.8 229.1,-305.7 232.2,-305.7 232.2,-305.7 294.84,-305.7 294.84,-305.7 297.94,-305.7 301.04,-308.8 301.04,-311.9 301.04,-311.9 301.04,-318.1 301.04,-318.1 301.04,-321.2 297.94,-324.3 294.84,-324.3"/>
<text text-anchor="middle" x="263.52" y="-312.3" font-family="Helvetica,sans-Serif" font-size="9.00">update&#45;state.js</text>
</a>
</g>
</g>
<!-- separated/welcome/presentations/integrate&#45;multi&#45;page/src/handlers/update&#45;state.js&#45;&gt;separated/welcome/business&#45;logic/update&#45;greeting.js -->
<g id="edge9" class="edge">
<title>separated/welcome/presentations/integrate&#45;multi&#45;page/src/handlers/update&#45;state.js&#45;&gt;separated/welcome/business&#45;logic/update&#45;greeting.js</title>
<path fill="none" stroke="#000000" stroke-width="2" stroke-opacity="0.200000" d="M301.29,-315C314.77,-315 330.25,-315 344.66,-315"/>
<polygon fill="#000000" fill-opacity="0.200000" stroke="#000000" stroke-width="2" stroke-opacity="0.200000" points="344.76,-317.1 350.76,-315 344.76,-312.9 344.76,-317.1"/>
</g>
<!-- separated/welcome/presentations/integrate&#45;multi&#45;page/src/handlers/update&#45;state.js&#45;&gt;separated/welcome/business&#45;logic/update&#45;message.js -->
<g id="edge10" class="edge">
<title>separated/welcome/presentations/integrate&#45;multi&#45;page/src/handlers/update&#45;state.js&#45;&gt;separated/welcome/business&#45;logic/update&#45;message.js</title>
<path fill="none" stroke="#000000" stroke-width="2" stroke-opacity="0.200000" d="M301.29,-323.8C316.08,-327.34 333.28,-331.46 348.82,-335.18"/>
<polygon fill="#000000" fill-opacity="0.200000" stroke="#000000" stroke-width="2" stroke-opacity="0.200000" points="348.59,-337.28 354.91,-336.64 349.57,-333.2 348.59,-337.28"/>
</g>
<!-- separated/welcome/presentations/integrate&#45;multi&#45;page/src/init/edit.js -->
<g id="node16" class="node">
<title>separated/welcome/presentations/integrate&#45;multi&#45;page/src/init/edit.js</title>
<g id="a_node16"><a xlink:href="separated/welcome/presentations/integrate-multi-page/src/init/edit.js" xlink:title="edit.js">
<path fill="#ffffcc" stroke="black" d="M103.8,-170.3C103.8,-170.3 62.2,-170.3 62.2,-170.3 59.1,-170.3 56,-167.2 56,-164.1 56,-164.1 56,-157.9 56,-157.9 56,-154.8 59.1,-151.7 62.2,-151.7 62.2,-151.7 103.8,-151.7 103.8,-151.7 106.9,-151.7 110,-154.8 110,-157.9 110,-157.9 110,-164.1 110,-164.1 110,-167.2 106.9,-170.3 103.8,-170.3"/>
<text text-anchor="middle" x="83" y="-158.3" font-family="Helvetica,sans-Serif" font-size="9.00">edit.js</text>
</a>
</g>
</g>
<!-- separated/welcome/presentations/integrate&#45;multi&#45;page/src/init/edit.js&#45;&gt;../listeners/edit&#45;data.js -->
<g id="edge11" class="edge">
<title>separated/welcome/presentations/integrate&#45;multi&#45;page/src/init/edit.js&#45;&gt;../listeners/edit&#45;data.js</title>
<path fill="none" stroke="#000000" stroke-width="2" stroke-opacity="0.200000" d="M89.94,-151.38C103.67,-129.12 137.71,-73.98 154.02,-47.56"/>
<polygon fill="#000000" fill-opacity="0.200000" stroke="#000000" stroke-width="2" stroke-opacity="0.200000" points="155.85,-48.59 157.21,-42.38 152.27,-46.39 155.85,-48.59"/>
</g>
<!-- separated/welcome/presentations/integrate&#45;multi&#45;page/src/listeners/init&#45;edit.js -->
<g id="node17" class="node">
<title>separated/welcome/presentations/integrate&#45;multi&#45;page/src/listeners/init&#45;edit.js</title>
<g id="a_node17"><a xlink:href="separated/welcome/presentations/integrate-multi-page/src/listeners/init-edit.js" xlink:title="init&#45;edit.js">
<path fill="#ffffcc" stroke="black" d="M184.8,-262.3C184.8,-262.3 143.21,-262.3 143.21,-262.3 140.1,-262.3 137,-259.2 137,-256.1 137,-256.1 137,-249.9 137,-249.9 137,-246.8 140.1,-243.7 143.21,-243.7 143.21,-243.7 184.8,-243.7 184.8,-243.7 187.9,-243.7 191,-246.8 191,-249.9 191,-249.9 191,-256.1 191,-256.1 191,-259.2 187.9,-262.3 184.8,-262.3"/>
<text text-anchor="middle" x="164" y="-250.3" font-family="Helvetica,sans-Serif" font-size="9.00">init&#45;edit.js</text>
</a>
</g>
</g>
<!-- separated/welcome/presentations/integrate&#45;multi&#45;page/src/init/edit.js&#45;&gt;separated/welcome/presentations/integrate&#45;multi&#45;page/src/listeners/init&#45;edit.js -->
<g id="edge12" class="edge">
<title>separated/welcome/presentations/integrate&#45;multi&#45;page/src/init/edit.js&#45;&gt;separated/welcome/presentations/integrate&#45;multi&#45;page/src/listeners/init&#45;edit.js</title>
<path fill="none" stroke="#000000" stroke-width="2" stroke-opacity="0.200000" d="M103.56,-170.3C106.05,-172.21 108.31,-174.43 110,-177 123.36,-197.25 103.67,-211.42 118,-231 121.39,-235.64 126.04,-239.35 131.05,-242.3"/>
<polygon fill="#000000" fill-opacity="0.200000" stroke="#000000" stroke-width="2" stroke-opacity="0.200000" points="130.32,-244.29 136.61,-245.21 132.27,-240.57 130.32,-244.29"/>
</g>
<!-- separated/welcome/presentations/integrate&#45;multi&#45;page/src/init/nav&#45;footer.js -->
<g id="node18" class="node">
<title>separated/welcome/presentations/integrate&#45;multi&#45;page/src/init/nav&#45;footer.js</title>
<g id="a_node18"><a xlink:href="separated/welcome/presentations/integrate-multi-page/src/init/nav-footer.js" xlink:title="nav&#45;footer.js">
<path fill="#ffffcc" stroke="black" d="M190.31,-201.3C190.31,-201.3 137.7,-201.3 137.7,-201.3 134.59,-201.3 131.49,-198.2 131.49,-195.1 131.49,-195.1 131.49,-188.9 131.49,-188.9 131.49,-185.8 134.59,-182.7 137.7,-182.7 137.7,-182.7 190.31,-182.7 190.31,-182.7 193.41,-182.7 196.51,-185.8 196.51,-188.9 196.51,-188.9 196.51,-195.1 196.51,-195.1 196.51,-198.2 193.41,-201.3 190.31,-201.3"/>
<text text-anchor="middle" x="164" y="-189.3" font-family="Helvetica,sans-Serif" font-size="9.00">nav&#45;footer.js</text>
</a>
</g>
</g>
<!-- separated/welcome/presentations/integrate&#45;multi&#45;page/src/init/edit.js&#45;&gt;separated/welcome/presentations/integrate&#45;multi&#45;page/src/init/nav&#45;footer.js -->
<g id="edge13" class="edge">
<title>separated/welcome/presentations/integrate&#45;multi&#45;page/src/init/edit.js&#45;&gt;separated/welcome/presentations/integrate&#45;multi&#45;page/src/init/nav&#45;footer.js</title>
<path fill="none" stroke="#000000" stroke-width="2" stroke-opacity="0.200000" d="M104.75,-170.45C109.11,-172.35 113.68,-174.28 118,-176 121.83,-177.52 125.87,-179.06 129.9,-180.54"/>
<polygon fill="#000000" fill-opacity="0.200000" stroke="#000000" stroke-width="2" stroke-opacity="0.200000" points="129.4,-182.6 135.75,-182.68 130.83,-178.65 129.4,-182.6"/>
</g>
<!-- separated/welcome/presentations/integrate&#45;multi&#45;page/src/init/state.js -->
<g id="node19" class="node">
<title>separated/welcome/presentations/integrate&#45;multi&#45;page/src/init/state.js</title>
<g id="a_node19"><a xlink:href="separated/welcome/presentations/integrate-multi-page/src/init/state.js" xlink:title="state.js">
<path fill="#ffffcc" stroke="black" d="M184.8,-170.3C184.8,-170.3 143.21,-170.3 143.21,-170.3 140.1,-170.3 137,-167.2 137,-164.1 137,-164.1 137,-157.9 137,-157.9 137,-154.8 140.1,-151.7 143.21,-151.7 143.21,-151.7 184.8,-151.7 184.8,-151.7 187.9,-151.7 191,-154.8 191,-157.9 191,-157.9 191,-164.1 191,-164.1 191,-167.2 187.9,-170.3 184.8,-170.3"/>
<text text-anchor="middle" x="164" y="-158.3" font-family="Helvetica,sans-Serif" font-size="9.00">state.js</text>
</a>
</g>
</g>
<!-- separated/welcome/presentations/integrate&#45;multi&#45;page/src/init/edit.js&#45;&gt;separated/welcome/presentations/integrate&#45;multi&#45;page/src/init/state.js -->
<g id="edge14" class="edge">
<title>separated/welcome/presentations/integrate&#45;multi&#45;page/src/init/edit.js&#45;&gt;separated/welcome/presentations/integrate&#45;multi&#45;page/src/init/state.js</title>
<path fill="none" stroke="#000000" stroke-width="2" stroke-opacity="0.200000" d="M110.31,-161C116.84,-161 123.91,-161 130.69,-161"/>
<polygon fill="#000000" fill-opacity="0.200000" stroke="#000000" stroke-width="2" stroke-opacity="0.200000" points="130.81,-163.1 136.81,-161 130.81,-158.9 130.81,-163.1"/>
</g>
<!-- separated/welcome/presentations/integrate&#45;multi&#45;page/src/listeners/init&#45;edit.js&#45;&gt;separated/welcome/presentations/integrate&#45;multi&#45;page/src/handlers/init&#45;edit.js -->
<g id="edge23" class="edge">
<title>separated/welcome/presentations/integrate&#45;multi&#45;page/src/listeners/init&#45;edit.js&#45;&gt;separated/welcome/presentations/integrate&#45;multi&#45;page/src/handlers/init&#45;edit.js</title>
<path fill="none" stroke="#000000" stroke-width="2" stroke-opacity="0.200000" d="M191.14,-253C203.16,-253 217.54,-253 230.24,-253"/>
<polygon fill="#000000" fill-opacity="0.200000" stroke="#000000" stroke-width="2" stroke-opacity="0.200000" points="230.31,-255.1 236.31,-253 230.31,-250.9 230.31,-255.1"/>
</g>
<!-- separated/welcome/presentations/integrate&#45;multi&#45;page/src/init/nav&#45;footer.js&#45;&gt;separated/welcome/presentations/integrate&#45;multi&#45;page/src/components/footer.js -->
<g id="edge18" class="edge">
<title>separated/welcome/presentations/integrate&#45;multi&#45;page/src/init/nav&#45;footer.js&#45;&gt;separated/welcome/presentations/integrate&#45;multi&#45;page/src/components/footer.js</title>
<path fill="none" stroke="#000000" stroke-width="2" stroke-opacity="0.200000" d="M196.66,-192C207.36,-192 219.31,-192 230.06,-192"/>
<polygon fill="#000000" fill-opacity="0.200000" stroke="#000000" stroke-width="2" stroke-opacity="0.200000" points="230.23,-194.1 236.23,-192 230.23,-189.9 230.23,-194.1"/>
</g>
<!-- separated/welcome/presentations/integrate&#45;multi&#45;page/src/init/nav&#45;footer.js&#45;&gt;separated/welcome/presentations/integrate&#45;multi&#45;page/src/components/navbar.js -->
<g id="edge19" class="edge">
<title>separated/welcome/presentations/integrate&#45;multi&#45;page/src/init/nav&#45;footer.js&#45;&gt;separated/welcome/presentations/integrate&#45;multi&#45;page/src/components/navbar.js</title>
<path fill="none" stroke="#000000" stroke-width="2" stroke-opacity="0.200000" d="M194.53,-182.61C205.89,-179 218.91,-174.86 230.49,-171.18"/>
<polygon fill="#000000" fill-opacity="0.200000" stroke="#000000" stroke-width="2" stroke-opacity="0.200000" points="231.32,-173.12 236.41,-169.3 230.05,-169.12 231.32,-173.12"/>
</g>
<!-- separated/welcome/presentations/integrate&#45;multi&#45;page/src/init/state.js&#45;&gt;data&#45;access/initialize.js -->
<g id="edge20" class="edge">
<title>separated/welcome/presentations/integrate&#45;multi&#45;page/src/init/state.js&#45;&gt;data&#45;access/initialize.js</title>
<path fill="none" stroke="#000000" stroke-width="2" stroke-opacity="0.200000" d="M184.65,-151.65C194.44,-147.49 206.59,-143.08 218.01,-141 268.3,-131.83 283.1,-130.02 333.03,-141 396.16,-154.88 409.75,-168.53 465.05,-202 475.5,-208.32 486.37,-216.62 494.87,-223.54"/>
<polygon fill="#000000" fill-opacity="0.200000" stroke="#000000" stroke-width="2" stroke-opacity="0.200000" points="493.87,-225.44 499.83,-227.65 496.55,-222.2 493.87,-225.44"/>
</g>
<!-- separated/welcome/presentations/integrate&#45;multi&#45;page/src/init/state.js&#45;&gt;separated/welcome/data/friendly.js -->
<g id="edge21" class="edge">
<title>separated/welcome/presentations/integrate&#45;multi&#45;page/src/init/state.js&#45;&gt;separated/welcome/data/friendly.js</title>
<path fill="none" stroke="#000000" stroke-width="2" stroke-opacity="0.200000" d="M191.16,-164.74C198.38,-167.08 205.47,-170.87 210.01,-177 221.72,-192.82 213.59,-334.82 218.01,-354 225.58,-386.86 243.26,-422.37 253.92,-441.93"/>
<polygon fill="#000000" fill-opacity="0.200000" stroke="#000000" stroke-width="2" stroke-opacity="0.200000" points="252.24,-443.23 256.98,-447.46 255.92,-441.2 252.24,-443.23"/>
</g>
<!-- separated/welcome/presentations/integrate&#45;multi&#45;page/src/init/index.js -->
<g id="node20" class="node">
<title>separated/welcome/presentations/integrate&#45;multi&#45;page/src/init/index.js</title>
<g id="a_node20"><a xlink:href="separated/welcome/presentations/integrate-multi-page/src/init/index.js" xlink:title="index.js">
<path fill="#ffffcc" stroke="black" d="M103.8,-201.3C103.8,-201.3 62.2,-201.3 62.2,-201.3 59.1,-201.3 56,-198.2 56,-195.1 56,-195.1 56,-188.9 56,-188.9 56,-185.8 59.1,-182.7 62.2,-182.7 62.2,-182.7 103.8,-182.7 103.8,-182.7 106.9,-182.7 110,-185.8 110,-188.9 110,-188.9 110,-195.1 110,-195.1 110,-198.2 106.9,-201.3 103.8,-201.3"/>
<text text-anchor="middle" x="83" y="-189.3" font-family="Helvetica,sans-Serif" font-size="9.00">index.js</text>
</a>
</g>
</g>
<!-- separated/welcome/presentations/integrate&#45;multi&#45;page/src/init/index.js&#45;&gt;separated/welcome/presentations/integrate&#45;multi&#45;page/src/init/nav&#45;footer.js -->
<g id="edge16" class="edge">
<title>separated/welcome/presentations/integrate&#45;multi&#45;page/src/init/index.js&#45;&gt;separated/welcome/presentations/integrate&#45;multi&#45;page/src/init/nav&#45;footer.js</title>
<path fill="none" stroke="#000000" stroke-width="2" stroke-opacity="0.200000" d="M110.31,-192C115.04,-192 120.06,-192 125.05,-192"/>
<polygon fill="#000000" fill-opacity="0.200000" stroke="#000000" stroke-width="2" stroke-opacity="0.200000" points="125.32,-194.1 131.32,-192 125.32,-189.9 125.32,-194.1"/>
</g>
<!-- separated/welcome/presentations/integrate&#45;multi&#45;page/src/init/index.js&#45;&gt;separated/welcome/presentations/integrate&#45;multi&#45;page/src/init/state.js -->
<g id="edge17" class="edge">
<title>separated/welcome/presentations/integrate&#45;multi&#45;page/src/init/index.js&#45;&gt;separated/welcome/presentations/integrate&#45;multi&#45;page/src/init/state.js</title>
<path fill="none" stroke="#000000" stroke-width="2" stroke-opacity="0.200000" d="M104.75,-182.55C109.11,-180.65 113.68,-178.72 118,-177 122.13,-175.36 126.51,-173.7 130.84,-172.11"/>
<polygon fill="#000000" fill-opacity="0.200000" stroke="#000000" stroke-width="2" stroke-opacity="0.200000" points="131.78,-174 136.7,-169.98 130.35,-170.05 131.78,-174"/>
</g>
<!-- separated/welcome/presentations/integrate&#45;multi&#45;page/src/listeners/init&#45;index.js -->
<g id="node21" class="node">
<title>separated/welcome/presentations/integrate&#45;multi&#45;page/src/listeners/init&#45;index.js</title>
<g id="a_node21"><a xlink:href="separated/welcome/presentations/integrate-multi-page/src/listeners/init-index.js" xlink:title="init&#45;index.js">
<path fill="#ffffcc" stroke="black" d="M188.3,-293.3C188.3,-293.3 139.71,-293.3 139.71,-293.3 136.61,-293.3 133.51,-290.2 133.51,-287.1 133.51,-287.1 133.51,-280.9 133.51,-280.9 133.51,-277.8 136.61,-274.7 139.71,-274.7 139.71,-274.7 188.3,-274.7 188.3,-274.7 191.4,-274.7 194.5,-277.8 194.5,-280.9 194.5,-280.9 194.5,-287.1 194.5,-287.1 194.5,-290.2 191.4,-293.3 188.3,-293.3"/>
<text text-anchor="middle" x="164" y="-281.3" font-family="Helvetica,sans-Serif" font-size="9.00">init&#45;index.js</text>
</a>
</g>
</g>
<!-- separated/welcome/presentations/integrate&#45;multi&#45;page/src/init/index.js&#45;&gt;separated/welcome/presentations/integrate&#45;multi&#45;page/src/listeners/init&#45;index.js -->
<g id="edge15" class="edge">
<title>separated/welcome/presentations/integrate&#45;multi&#45;page/src/init/index.js&#45;&gt;separated/welcome/presentations/integrate&#45;multi&#45;page/src/listeners/init&#45;index.js</title>
<path fill="none" stroke="#000000" stroke-width="2" stroke-opacity="0.200000" d="M85.7,-201.33C89.06,-217.22 98.04,-249.56 118,-268 120.88,-270.66 124.23,-272.88 127.77,-274.74"/>
<polygon fill="#000000" fill-opacity="0.200000" stroke="#000000" stroke-width="2" stroke-opacity="0.200000" points="127.15,-276.76 133.47,-277.36 128.9,-272.95 127.15,-276.76"/>
</g>
<!-- separated/welcome/presentations/integrate&#45;multi&#45;page/src/listeners/init&#45;index.js&#45;&gt;separated/welcome/presentations/integrate&#45;multi&#45;page/src/handlers/init&#45;index.js -->
<g id="edge24" class="edge">
<title>separated/welcome/presentations/integrate&#45;multi&#45;page/src/listeners/init&#45;index.js&#45;&gt;separated/welcome/presentations/integrate&#45;multi&#45;page/src/handlers/init&#45;index.js</title>
<path fill="none" stroke="#000000" stroke-width="2" stroke-opacity="0.200000" d="M194.53,-284C204.65,-284 216.09,-284 226.66,-284"/>
<polygon fill="#000000" fill-opacity="0.200000" stroke="#000000" stroke-width="2" stroke-opacity="0.200000" points="226.76,-286.1 232.76,-284 226.76,-281.9 226.76,-286.1"/>
</g>
<!-- separated/welcome/presentations/integrate&#45;multi&#45;page/src/listeners/editing&#45;data.js -->
<g id="node22" class="node">
<title>separated/welcome/presentations/integrate&#45;multi&#45;page/src/listeners/editing&#45;data.js</title>
<g id="a_node22"><a xlink:href="separated/welcome/presentations/integrate-multi-page/src/listeners/editing-data.js" xlink:title="editing&#45;data.js">
<path fill="#ffffcc" stroke="black" d="M193.82,-324.3C193.82,-324.3 134.19,-324.3 134.19,-324.3 131.09,-324.3 127.99,-321.2 127.99,-318.1 127.99,-318.1 127.99,-311.9 127.99,-311.9 127.99,-308.8 131.09,-305.7 134.19,-305.7 134.19,-305.7 193.82,-305.7 193.82,-305.7 196.92,-305.7 200.02,-308.8 200.02,-311.9 200.02,-311.9 200.02,-318.1 200.02,-318.1 200.02,-321.2 196.92,-324.3 193.82,-324.3"/>
<text text-anchor="middle" x="164" y="-312.3" font-family="Helvetica,sans-Serif" font-size="9.00">editing&#45;data.js</text>
</a>
</g>
</g>
<!-- separated/welcome/presentations/integrate&#45;multi&#45;page/src/listeners/editing&#45;data.js&#45;&gt;separated/welcome/presentations/integrate&#45;multi&#45;page/src/handlers/update&#45;state.js -->
<g id="edge22" class="edge">
<title>separated/welcome/presentations/integrate&#45;multi&#45;page/src/listeners/editing&#45;data.js&#45;&gt;separated/welcome/presentations/integrate&#45;multi&#45;page/src/handlers/update&#45;state.js</title>
<path fill="none" stroke="#000000" stroke-width="2" stroke-opacity="0.200000" d="M200.21,-315C206.43,-315 212.97,-315 219.38,-315"/>
<polygon fill="#000000" fill-opacity="0.200000" stroke="#000000" stroke-width="2" stroke-opacity="0.200000" points="219.72,-317.1 225.72,-315 219.72,-312.9 219.72,-317.1"/>
</g>
</g>
</svg>
