<?xml version="1.0" encoding="UTF-8" standalone="no"?>
<!DOCTYPE svg PUBLIC "-//W3C//DTD SVG 1.1//EN"
 "http://www.w3.org/Graphics/SVG/1.1/DTD/svg11.dtd">
<!-- Generated by graphviz version 2.44.0 (20200408.0750)
 -->
<!-- Title: dependency&#45;cruiser output Pages: 1 -->
<svg width="551pt" height="405pt"
 viewBox="0.00 0.00 551.05 405.00" xmlns="http://www.w3.org/2000/svg" xmlns:xlink="http://www.w3.org/1999/xlink">
<g id="graph0" class="graph" transform="scale(1 1) rotate(0) translate(4 401)">
<title>dependency&#45;cruiser output</title>
<polygon fill="white" stroke="transparent" points="-4,4 -4,-401 547.05,-401 547.05,4 -4,4"/>
<g id="clust1" class="cluster">
<title>cluster_data&#45;access</title>
<path fill="#ffffff" stroke="black" stroke-width="2" d="M470.04,-93C470.04,-93 523.05,-93 523.05,-93 529.05,-93 535.05,-99 535.05,-105 535.05,-105 535.05,-196 535.05,-196 535.05,-202 529.05,-208 523.05,-208 523.05,-208 470.04,-208 470.04,-208 464.04,-208 458.04,-202 458.04,-196 458.04,-196 458.04,-105 458.04,-105 458.04,-99 464.04,-93 470.04,-93"/>
<text text-anchor="middle" x="496.54" y="-195.9" font-family="Helvetica,sans-Serif" font-weight="bold" font-size="9.00">data&#45;access</text>
</g>
<g id="clust2" class="cluster">
<title>cluster_example&#45;apps</title>
<path fill="#ffffff" stroke="black" stroke-width="2" d="M20,-8C20,-8 438.04,-8 438.04,-8 444.04,-8 450.04,-14 450.04,-20 450.04,-20 450.04,-377 450.04,-377 450.04,-383 444.04,-389 438.04,-389 438.04,-389 20,-389 20,-389 14,-389 8,-383 8,-377 8,-377 8,-20 8,-20 8,-14 14,-8 20,-8"/>
<text text-anchor="middle" x="229.02" y="-376.9" font-family="Helvetica,sans-Serif" font-weight="bold" font-size="9.00">example&#45;apps</text>
</g>
<g id="clust3" class="cluster">
<title>cluster_example&#45;apps/welcome</title>
<path fill="#ffffff" stroke="black" stroke-width="2" d="M28,-16C28,-16 430.04,-16 430.04,-16 436.04,-16 442.04,-22 442.04,-28 442.04,-28 442.04,-350 442.04,-350 442.04,-356 436.04,-362 430.04,-362 430.04,-362 28,-362 28,-362 22,-362 16,-356 16,-350 16,-350 16,-28 16,-28 16,-22 22,-16 28,-16"/>
<text text-anchor="middle" x="229.02" y="-349.9" font-family="Helvetica,sans-Serif" font-weight="bold" font-size="9.00">welcome</text>
</g>
<g id="clust4" class="cluster">
<title>cluster_example&#45;apps/welcome/business&#45;logic</title>
<path fill="#ffffff" stroke="black" stroke-width="2" d="M338.02,-78C338.02,-78 422.04,-78 422.04,-78 428.04,-78 434.04,-84 434.04,-90 434.04,-90 434.04,-243 434.04,-243 434.04,-249 428.04,-255 422.04,-255 422.04,-255 338.02,-255 338.02,-255 332.02,-255 326.02,-249 326.02,-243 326.02,-243 326.02,-90 326.02,-90 326.02,-84 332.02,-78 338.02,-78"/>
<text text-anchor="middle" x="380.03" y="-242.9" font-family="Helvetica,sans-Serif" font-weight="bold" font-size="9.00">business&#45;logic</text>
</g>
<g id="clust5" class="cluster">
<title>cluster_example&#45;apps/welcome/data</title>
<path fill="#ffffff" stroke="black" stroke-width="2" d="M225.51,-282C225.51,-282 271.51,-282 271.51,-282 277.51,-282 283.51,-288 283.51,-294 283.51,-294 283.51,-323 283.51,-323 283.51,-329 277.51,-335 271.51,-335 271.51,-335 225.51,-335 225.51,-335 219.51,-335 213.51,-329 213.51,-323 213.51,-323 213.51,-294 213.51,-294 213.51,-288 219.51,-282 225.51,-282"/>
<text text-anchor="middle" x="248.51" y="-322.9" font-family="Helvetica,sans-Serif" font-weight="bold" font-size="9.00">data</text>
</g>
<g id="clust6" class="cluster">
<title>cluster_example&#45;apps/welcome/presentations</title>
<path fill="#ffffff" stroke="black" stroke-width="2" d="M36,-24C36,-24 306.02,-24 306.02,-24 312.02,-24 318.02,-30 318.02,-36 318.02,-36 318.02,-262 318.02,-262 318.02,-268 312.02,-274 306.02,-274 306.02,-274 36,-274 36,-274 30,-274 24,-268 24,-262 24,-262 24,-36 24,-36 24,-30 30,-24 36,-24"/>
<text text-anchor="middle" x="171.01" y="-261.9" font-family="Helvetica,sans-Serif" font-weight="bold" font-size="9.00">presentations</text>
</g>
<g id="clust7" class="cluster">
<title>cluster_example&#45;apps/welcome/presentations/integrate&#45;single&#45;page</title>
<path fill="#ffffff" stroke="black" stroke-width="2" d="M44,-32C44,-32 298.02,-32 298.02,-32 304.02,-32 310.02,-38 310.02,-44 310.02,-44 310.02,-235 310.02,-235 310.02,-241 304.02,-247 298.02,-247 298.02,-247 44,-247 44,-247 38,-247 32,-241 32,-235 32,-235 32,-44 32,-44 32,-38 38,-32 44,-32"/>
<text text-anchor="middle" x="171.01" y="-234.9" font-family="Helvetica,sans-Serif" font-weight="bold" font-size="9.00">integrate&#45;single&#45;page</text>
</g>
<g id="clust8" class="cluster">
<title>cluster_example&#45;apps/welcome/presentations/integrate&#45;single&#45;page/src</title>
<path fill="#ffffff" stroke="black" stroke-width="2" d="M52,-40C52,-40 290.02,-40 290.02,-40 296.02,-40 302.02,-46 302.02,-52 302.02,-52 302.02,-208 302.02,-208 302.02,-214 296.02,-220 290.02,-220 290.02,-220 52,-220 52,-220 46,-220 40,-214 40,-208 40,-208 40,-52 40,-52 40,-46 46,-40 52,-40"/>
<text text-anchor="middle" x="171.01" y="-207.9" font-family="Helvetica,sans-Serif" font-weight="bold" font-size="9.00">src</text>
</g>
<g id="clust9" class="cluster">
<title>cluster_example&#45;apps/welcome/presentations/integrate&#45;single&#45;page/src/handlers</title>
<path fill="#ffffff" stroke="black" stroke-width="2" d="M215,-109C215,-109 282.02,-109 282.02,-109 288.02,-109 294.02,-115 294.02,-121 294.02,-121 294.02,-181 294.02,-181 294.02,-187 288.02,-193 282.02,-193 282.02,-193 215,-193 215,-193 209,-193 203,-187 203,-181 203,-181 203,-121 203,-121 203,-115 209,-109 215,-109"/>
<text text-anchor="middle" x="248.51" y="-180.9" font-family="Helvetica,sans-Serif" font-weight="bold" font-size="9.00">handlers</text>
</g>
<g id="clust10" class="cluster">
<title>cluster_example&#45;apps/welcome/presentations/integrate&#45;single&#45;page/src/init</title>
<path fill="#ffffff" stroke="black" stroke-width="2" d="M60,-48C60,-48 179.5,-48 179.5,-48 185.5,-48 191.5,-54 191.5,-60 191.5,-60 191.5,-89 191.5,-89 191.5,-95 185.5,-101 179.5,-101 179.5,-101 60,-101 60,-101 54,-101 48,-95 48,-89 48,-89 48,-60 48,-60 48,-54 54,-48 60,-48"/>
<text text-anchor="middle" x="119.75" y="-88.9" font-family="Helvetica,sans-Serif" font-weight="bold" font-size="9.00">init</text>
</g>
<g id="clust11" class="cluster">
<title>cluster_example&#45;apps/welcome/presentations/integrate&#45;single&#45;page/src/listeners</title>
<path fill="#ffffff" stroke="black" stroke-width="2" d="M130,-109C130,-109 183,-109 183,-109 189,-109 195,-115 195,-121 195,-121 195,-181 195,-181 195,-187 189,-193 183,-193 183,-193 130,-193 130,-193 124,-193 118,-187 118,-181 118,-181 118,-121 118,-121 118,-115 124,-109 130,-109"/>
<text text-anchor="middle" x="156.5" y="-180.9" font-family="Helvetica,sans-Serif" font-weight="bold" font-size="9.00">listeners</text>
</g>
<!-- data&#45;access/initialize.js -->
<g id="node1" class="node">
<title>data&#45;access/initialize.js</title>
<g id="a_node1"><a xlink:href="data-access/initialize.js" xlink:title="initialize.js">
<polygon fill="#ffffcc" stroke="black" points="525.04,-119.3 523.49,-121.37 512.63,-121.37 511.08,-119.3 468.05,-119.3 468.05,-100.7 525.04,-100.7 525.04,-119.3"/>
<text text-anchor="middle" x="496.54" y="-107.3" font-family="Helvetica,sans-Serif" font-size="9.00">initialize.js</text>
</a>
</g>
</g>
<!-- data&#45;access/read&#45;one.js -->
<g id="node2" class="node">
<title>data&#45;access/read&#45;one.js</title>
<g id="a_node2"><a xlink:href="data-access/read-one.js" xlink:title="read&#45;one.js">
<polygon fill="#ffffcc" stroke="black" points="527.05,-150.3 525.5,-152.37 514.65,-152.37 513.1,-150.3 466.03,-150.3 466.03,-131.7 527.05,-131.7 527.05,-150.3"/>
<text text-anchor="middle" x="496.54" y="-138.3" font-family="Helvetica,sans-Serif" font-size="9.00">read&#45;one.js</text>
</a>
</g>
</g>
<!-- data&#45;access/update.js -->
<g id="node3" class="node">
<title>data&#45;access/update.js</title>
<g id="a_node3"><a xlink:href="data-access/update.js" xlink:title="update.js">
<polygon fill="#ffffcc" stroke="black" points="523.54,-181.3 521.99,-183.37 511.14,-183.37 509.59,-181.3 469.54,-181.3 469.54,-162.7 523.54,-162.7 523.54,-181.3"/>
<text text-anchor="middle" x="496.54" y="-169.3" font-family="Helvetica,sans-Serif" font-size="9.00">update.js</text>
</a>
</g>
</g>
<!-- example&#45;apps/welcome/business&#45;logic/be&#45;welcoming.js -->
<g id="node4" class="node">
<title>example&#45;apps/welcome/business&#45;logic/be&#45;welcoming.js</title>
<g id="a_node4"><a xlink:href="example-apps/welcome/business-logic/be-welcoming.js" xlink:title="be&#45;welcoming.js">
<path fill="#ffffcc" stroke="black" d="M413.83,-166.3C413.83,-166.3 346.23,-166.3 346.23,-166.3 343.13,-166.3 340.03,-163.2 340.03,-160.1 340.03,-160.1 340.03,-153.9 340.03,-153.9 340.03,-150.8 343.13,-147.7 346.23,-147.7 346.23,-147.7 413.83,-147.7 413.83,-147.7 416.93,-147.7 420.03,-150.8 420.03,-153.9 420.03,-153.9 420.03,-160.1 420.03,-160.1 420.03,-163.2 416.93,-166.3 413.83,-166.3"/>
<text text-anchor="middle" x="380.03" y="-154.3" font-family="Helvetica,sans-Serif" font-size="9.00">be&#45;welcoming.js</text>
</a>
</g>
</g>
<!-- example&#45;apps/welcome/business&#45;logic/be&#45;welcoming.js&#45;&gt;data&#45;access/read&#45;one.js -->
<g id="edge1" class="edge">
<title>example&#45;apps/welcome/business&#45;logic/be&#45;welcoming.js&#45;&gt;data&#45;access/read&#45;one.js</title>
<path fill="none" stroke="#000000" stroke-width="2" stroke-opacity="0.200000" d="M420.12,-151.54C433.04,-149.73 447.33,-147.74 459.97,-145.97"/>
<polygon fill="#000000" fill-opacity="0.200000" stroke="#000000" stroke-width="2" stroke-opacity="0.200000" points="460.38,-148.03 466.03,-145.12 459.8,-143.87 460.38,-148.03"/>
</g>
<!-- example&#45;apps/welcome/business&#45;logic/read&#45;greeting.js -->
<g id="node5" class="node">
<title>example&#45;apps/welcome/business&#45;logic/read&#45;greeting.js</title>
<g id="a_node5"><a xlink:href="example-apps/welcome/business-logic/read-greeting.js" xlink:title="read&#45;greeting.js">
<path fill="#ffffcc" stroke="black" d="M412.84,-104.3C412.84,-104.3 347.22,-104.3 347.22,-104.3 344.12,-104.3 341.02,-101.2 341.02,-98.1 341.02,-98.1 341.02,-91.9 341.02,-91.9 341.02,-88.8 344.12,-85.7 347.22,-85.7 347.22,-85.7 412.84,-85.7 412.84,-85.7 415.94,-85.7 419.04,-88.8 419.04,-91.9 419.04,-91.9 419.04,-98.1 419.04,-98.1 419.04,-101.2 415.94,-104.3 412.84,-104.3"/>
<text text-anchor="middle" x="380.03" y="-92.3" font-family="Helvetica,sans-Serif" font-size="9.00">read&#45;greeting.js</text>
</a>
</g>
</g>
<!-- example&#45;apps/welcome/business&#45;logic/read&#45;greeting.js&#45;&gt;data&#45;access/read&#45;one.js -->
<g id="edge2" class="edge">
<title>example&#45;apps/welcome/business&#45;logic/read&#45;greeting.js&#45;&gt;data&#45;access/read&#45;one.js</title>
<path fill="none" stroke="#000000" stroke-width="2" stroke-opacity="0.200000" d="M419.25,-98.12C429.99,-100.45 441.16,-104.39 450.04,-111 455.79,-115.28 452.69,-120.23 458.04,-125 459.38,-126.19 460.82,-127.3 462.33,-128.34"/>
<polygon fill="#000000" fill-opacity="0.200000" stroke="#000000" stroke-width="2" stroke-opacity="0.200000" points="461.45,-130.27 467.67,-131.58 463.63,-126.68 461.45,-130.27"/>
</g>
<!-- example&#45;apps/welcome/business&#45;logic/read&#45;message.js -->
<g id="node6" class="node">
<title>example&#45;apps/welcome/business&#45;logic/read&#45;message.js</title>
<g id="a_node6"><a xlink:href="example-apps/welcome/business-logic/read-message.js" xlink:title="read&#45;message.js">
<path fill="#ffffcc" stroke="black" d="M414.84,-135.3C414.84,-135.3 345.22,-135.3 345.22,-135.3 342.12,-135.3 339.02,-132.2 339.02,-129.1 339.02,-129.1 339.02,-122.9 339.02,-122.9 339.02,-119.8 342.12,-116.7 345.22,-116.7 345.22,-116.7 414.84,-116.7 414.84,-116.7 417.94,-116.7 421.04,-119.8 421.04,-122.9 421.04,-122.9 421.04,-129.1 421.04,-129.1 421.04,-132.2 417.94,-135.3 414.84,-135.3"/>
<text text-anchor="middle" x="380.03" y="-123.3" font-family="Helvetica,sans-Serif" font-size="9.00">read&#45;message.js</text>
</a>
</g>
</g>
<!-- example&#45;apps/welcome/business&#45;logic/read&#45;message.js&#45;&gt;data&#45;access/read&#45;one.js -->
<g id="edge3" class="edge">
<title>example&#45;apps/welcome/business&#45;logic/read&#45;message.js&#45;&gt;data&#45;access/read&#45;one.js</title>
<path fill="none" stroke="#000000" stroke-width="2" stroke-opacity="0.200000" d="M421.08,-131.25C433.6,-132.89 447.34,-134.69 459.56,-136.29"/>
<polygon fill="#000000" fill-opacity="0.200000" stroke="#000000" stroke-width="2" stroke-opacity="0.200000" points="459.58,-138.41 465.8,-137.1 460.12,-134.24 459.58,-138.41"/>
</g>
<!-- example&#45;apps/welcome/business&#45;logic/update&#45;greeting.js -->
<g id="node7" class="node">
<title>example&#45;apps/welcome/business&#45;logic/update&#45;greeting.js</title>
<g id="a_node7"><a xlink:href="example-apps/welcome/business-logic/update-greeting.js" xlink:title="update&#45;greeting.js">
<path fill="#ffffcc" stroke="black" d="M417.85,-228.3C417.85,-228.3 342.21,-228.3 342.21,-228.3 339.11,-228.3 336.01,-225.2 336.01,-222.1 336.01,-222.1 336.01,-215.9 336.01,-215.9 336.01,-212.8 339.11,-209.7 342.21,-209.7 342.21,-209.7 417.85,-209.7 417.85,-209.7 420.95,-209.7 424.05,-212.8 424.05,-215.9 424.05,-215.9 424.05,-222.1 424.05,-222.1 424.05,-225.2 420.95,-228.3 417.85,-228.3"/>
<text text-anchor="middle" x="380.03" y="-216.3" font-family="Helvetica,sans-Serif" font-size="9.00">update&#45;greeting.js</text>
</a>
</g>
</g>
<!-- example&#45;apps/welcome/business&#45;logic/update&#45;greeting.js&#45;&gt;data&#45;access/update.js -->
<g id="edge4" class="edge">
<title>example&#45;apps/welcome/business&#45;logic/update&#45;greeting.js&#45;&gt;data&#45;access/update.js</title>
<path fill="none" stroke="#000000" stroke-width="2" stroke-opacity="0.200000" d="M424.16,-211.59C432.92,-209.37 441.93,-206.55 450.04,-203 460.48,-198.43 471.07,-191.39 479.4,-185.17"/>
<polygon fill="#000000" fill-opacity="0.200000" stroke="#000000" stroke-width="2" stroke-opacity="0.200000" points="480.79,-186.75 484.27,-181.44 478.23,-183.42 480.79,-186.75"/>
</g>
<!-- example&#45;apps/welcome/business&#45;logic/update&#45;message.js -->
<g id="node8" class="node">
<title>example&#45;apps/welcome/business&#45;logic/update&#45;message.js</title>
<g id="a_node8"><a xlink:href="example-apps/welcome/business-logic/update-message.js" xlink:title="update&#45;message.js">
<path fill="#ffffcc" stroke="black" d="M419.85,-197.3C419.85,-197.3 340.21,-197.3 340.21,-197.3 337.11,-197.3 334.01,-194.2 334.01,-191.1 334.01,-191.1 334.01,-184.9 334.01,-184.9 334.01,-181.8 337.11,-178.7 340.21,-178.7 340.21,-178.7 419.85,-178.7 419.85,-178.7 422.95,-178.7 426.05,-181.8 426.05,-184.9 426.05,-184.9 426.05,-191.1 426.05,-191.1 426.05,-194.2 422.95,-197.3 419.85,-197.3"/>
<text text-anchor="middle" x="380.03" y="-185.3" font-family="Helvetica,sans-Serif" font-size="9.00">update&#45;message.js</text>
</a>
</g>
</g>
<!-- example&#45;apps/welcome/business&#45;logic/update&#45;message.js&#45;&gt;data&#45;access/update.js -->
<g id="edge5" class="edge">
<title>example&#45;apps/welcome/business&#45;logic/update&#45;message.js&#45;&gt;data&#45;access/update.js</title>
<path fill="none" stroke="#000000" stroke-width="2" stroke-opacity="0.200000" d="M426.29,-181.68C438.63,-179.95 451.75,-178.12 463.22,-176.52"/>
<polygon fill="#000000" fill-opacity="0.200000" stroke="#000000" stroke-width="2" stroke-opacity="0.200000" points="463.75,-178.56 469.4,-175.65 463.17,-174.4 463.75,-178.56"/>
</g>
<!-- example&#45;apps/welcome/data/friendly.js -->
<g id="node9" class="node">
<title>example&#45;apps/welcome/data/friendly.js</title>
<g id="a_node9"><a xlink:href="example-apps/welcome/data/friendly.js" xlink:title="friendly.js">
<path fill="#ffffcc" stroke="black" d="M269.31,-308.3C269.31,-308.3 227.71,-308.3 227.71,-308.3 224.61,-308.3 221.51,-305.2 221.51,-302.1 221.51,-302.1 221.51,-295.9 221.51,-295.9 221.51,-292.8 224.61,-289.7 227.71,-289.7 227.71,-289.7 269.31,-289.7 269.31,-289.7 272.41,-289.7 275.51,-292.8 275.51,-295.9 275.51,-295.9 275.51,-302.1 275.51,-302.1 275.51,-305.2 272.41,-308.3 269.31,-308.3"/>
<text text-anchor="middle" x="248.51" y="-296.3" font-family="Helvetica,sans-Serif" font-size="9.00">friendly.js</text>
</a>
</g>
</g>
<!-- example&#45;apps/welcome/presentations/integrate&#45;single&#45;page/src/handlers/init&#45;index.js -->
<g id="node10" class="node">
<title>example&#45;apps/welcome/presentations/integrate&#45;single&#45;page/src/handlers/init&#45;index.js</title>
<g id="a_node10"><a xlink:href="example-apps/welcome/presentations/integrate-single-page/src/handlers/init-index.js" xlink:title="init&#45;index.js">
<path fill="#ffffcc" stroke="black" d="M272.81,-135.3C272.81,-135.3 224.21,-135.3 224.21,-135.3 221.11,-135.3 218.01,-132.2 218.01,-129.1 218.01,-129.1 218.01,-122.9 218.01,-122.9 218.01,-119.8 221.11,-116.7 224.21,-116.7 224.21,-116.7 272.81,-116.7 272.81,-116.7 275.91,-116.7 279.01,-119.8 279.01,-122.9 279.01,-122.9 279.01,-129.1 279.01,-129.1 279.01,-132.2 275.91,-135.3 272.81,-135.3"/>
<text text-anchor="middle" x="248.51" y="-123.3" font-family="Helvetica,sans-Serif" font-size="9.00">init&#45;index.js</text>
</a>
</g>
</g>
<!-- example&#45;apps/welcome/presentations/integrate&#45;single&#45;page/src/handlers/init&#45;index.js&#45;&gt;example&#45;apps/welcome/business&#45;logic/be&#45;welcoming.js -->
<g id="edge6" class="edge">
<title>example&#45;apps/welcome/presentations/integrate&#45;single&#45;page/src/handlers/init&#45;index.js&#45;&gt;example&#45;apps/welcome/business&#45;logic/be&#45;welcoming.js</title>
<path fill="none" stroke="#000000" stroke-width="2" stroke-opacity="0.200000" d="M279.2,-132.86C291.26,-135.66 305.31,-138.95 318.02,-142 323.55,-143.33 329.36,-144.73 335.1,-146.14"/>
<polygon fill="#000000" fill-opacity="0.200000" stroke="#000000" stroke-width="2" stroke-opacity="0.200000" points="334.97,-148.26 341.29,-147.65 335.96,-144.18 334.97,-148.26"/>
</g>
<!-- example&#45;apps/welcome/presentations/integrate&#45;single&#45;page/src/handlers/init&#45;index.js&#45;&gt;example&#45;apps/welcome/business&#45;logic/read&#45;greeting.js -->
<g id="edge7" class="edge">
<title>example&#45;apps/welcome/presentations/integrate&#45;single&#45;page/src/handlers/init&#45;index.js&#45;&gt;example&#45;apps/welcome/business&#45;logic/read&#45;greeting.js</title>
<path fill="none" stroke="#000000" stroke-width="2" stroke-opacity="0.200000" d="M279.22,-118.89C295.6,-114.97 316.24,-110.03 334.51,-105.66"/>
<polygon fill="#000000" fill-opacity="0.200000" stroke="#000000" stroke-width="2" stroke-opacity="0.200000" points="335.25,-107.64 340.6,-104.2 334.27,-103.55 335.25,-107.64"/>
</g>
<!-- example&#45;apps/welcome/presentations/integrate&#45;single&#45;page/src/handlers/init&#45;index.js&#45;&gt;example&#45;apps/welcome/business&#45;logic/read&#45;message.js -->
<g id="edge8" class="edge">
<title>example&#45;apps/welcome/presentations/integrate&#45;single&#45;page/src/handlers/init&#45;index.js&#45;&gt;example&#45;apps/welcome/business&#45;logic/read&#45;message.js</title>
<path fill="none" stroke="#000000" stroke-width="2" stroke-opacity="0.200000" d="M279.22,-126C294.92,-126 314.55,-126 332.24,-126"/>
<polygon fill="#000000" fill-opacity="0.200000" stroke="#000000" stroke-width="2" stroke-opacity="0.200000" points="332.65,-128.1 338.65,-126 332.65,-123.9 332.65,-128.1"/>
</g>
<!-- example&#45;apps/welcome/presentations/integrate&#45;single&#45;page/src/handlers/update&#45;state.js -->
<g id="node11" class="node">
<title>example&#45;apps/welcome/presentations/integrate&#45;single&#45;page/src/handlers/update&#45;state.js</title>
<g id="a_node11"><a xlink:href="example-apps/welcome/presentations/integrate-single-page/src/handlers/update-state.js" xlink:title="update&#45;state.js">
<path fill="#ffffcc" stroke="black" d="M279.83,-166.3C279.83,-166.3 217.19,-166.3 217.19,-166.3 214.09,-166.3 210.99,-163.2 210.99,-160.1 210.99,-160.1 210.99,-153.9 210.99,-153.9 210.99,-150.8 214.09,-147.7 217.19,-147.7 217.19,-147.7 279.83,-147.7 279.83,-147.7 282.93,-147.7 286.03,-150.8 286.03,-153.9 286.03,-153.9 286.03,-160.1 286.03,-160.1 286.03,-163.2 282.93,-166.3 279.83,-166.3"/>
<text text-anchor="middle" x="248.51" y="-154.3" font-family="Helvetica,sans-Serif" font-size="9.00">update&#45;state.js</text>
</a>
</g>
</g>
<!-- example&#45;apps/welcome/presentations/integrate&#45;single&#45;page/src/handlers/update&#45;state.js&#45;&gt;example&#45;apps/welcome/business&#45;logic/be&#45;welcoming.js -->
<g id="edge9" class="edge">
<title>example&#45;apps/welcome/presentations/integrate&#45;single&#45;page/src/handlers/update&#45;state.js&#45;&gt;example&#45;apps/welcome/business&#45;logic/be&#45;welcoming.js</title>
<path fill="none" stroke="#000000" stroke-width="2" stroke-opacity="0.200000" d="M286.28,-157C301.07,-157 318.27,-157 333.81,-157"/>
<polygon fill="#000000" fill-opacity="0.200000" stroke="#000000" stroke-width="2" stroke-opacity="0.200000" points="333.9,-159.1 339.9,-157 333.9,-154.9 333.9,-159.1"/>
</g>
<!-- example&#45;apps/welcome/presentations/integrate&#45;single&#45;page/src/handlers/update&#45;state.js&#45;&gt;example&#45;apps/welcome/business&#45;logic/update&#45;greeting.js -->
<g id="edge10" class="edge">
<title>example&#45;apps/welcome/presentations/integrate&#45;single&#45;page/src/handlers/update&#45;state.js&#45;&gt;example&#45;apps/welcome/business&#45;logic/update&#45;greeting.js</title>
<path fill="none" stroke="#000000" stroke-width="2" stroke-opacity="0.200000" d="M262.78,-166.38C277.61,-176.52 302.64,-192.64 326.02,-203 329.74,-204.65 333.68,-206.19 337.66,-207.61"/>
<polygon fill="#000000" fill-opacity="0.200000" stroke="#000000" stroke-width="2" stroke-opacity="0.200000" points="337.15,-209.66 343.51,-209.61 338.51,-205.69 337.15,-209.66"/>
</g>
<!-- example&#45;apps/welcome/presentations/integrate&#45;single&#45;page/src/handlers/update&#45;state.js&#45;&gt;example&#45;apps/welcome/business&#45;logic/update&#45;message.js -->
<g id="edge11" class="edge">
<title>example&#45;apps/welcome/presentations/integrate&#45;single&#45;page/src/handlers/update&#45;state.js&#45;&gt;example&#45;apps/welcome/business&#45;logic/update&#45;message.js</title>
<path fill="none" stroke="#000000" stroke-width="2" stroke-opacity="0.200000" d="M286.28,-165.8C301.07,-169.34 318.27,-173.46 333.81,-177.18"/>
<polygon fill="#000000" fill-opacity="0.200000" stroke="#000000" stroke-width="2" stroke-opacity="0.200000" points="333.58,-179.28 339.9,-178.64 334.56,-175.2 333.58,-179.28"/>
</g>
<!-- example&#45;apps/welcome/presentations/integrate&#45;single&#45;page/src/init/index.js -->
<g id="node12" class="node">
<title>example&#45;apps/welcome/presentations/integrate&#45;single&#45;page/src/init/index.js</title>
<g id="a_node12"><a xlink:href="example-apps/welcome/presentations/integrate-single-page/src/init/index.js" xlink:title="index.js">
<path fill="#ffffcc" stroke="black" d="M103.8,-74.3C103.8,-74.3 62.2,-74.3 62.2,-74.3 59.1,-74.3 56,-71.2 56,-68.1 56,-68.1 56,-61.9 56,-61.9 56,-58.8 59.1,-55.7 62.2,-55.7 62.2,-55.7 103.8,-55.7 103.8,-55.7 106.9,-55.7 110,-58.8 110,-61.9 110,-61.9 110,-68.1 110,-68.1 110,-71.2 106.9,-74.3 103.8,-74.3"/>
<text text-anchor="middle" x="83" y="-62.3" font-family="Helvetica,sans-Serif" font-size="9.00">index.js</text>
</a>
</g>
</g>
<!-- example&#45;apps/welcome/presentations/integrate&#45;single&#45;page/src/listeners/edit&#45;data.js -->
<g id="node13" class="node">
<title>example&#45;apps/welcome/presentations/integrate&#45;single&#45;page/src/listeners/edit&#45;data.js</title>
<g id="a_node13"><a xlink:href="example-apps/welcome/presentations/integrate-single-page/src/listeners/edit-data.js" xlink:title="edit&#45;data.js">
<path fill="#ffffcc" stroke="black" d="M180.31,-166.3C180.31,-166.3 132.69,-166.3 132.69,-166.3 129.59,-166.3 126.49,-163.2 126.49,-160.1 126.49,-160.1 126.49,-153.9 126.49,-153.9 126.49,-150.8 129.59,-147.7 132.69,-147.7 132.69,-147.7 180.31,-147.7 180.31,-147.7 183.41,-147.7 186.51,-150.8 186.51,-153.9 186.51,-153.9 186.51,-160.1 186.51,-160.1 186.51,-163.2 183.41,-166.3 180.31,-166.3"/>
<text text-anchor="middle" x="156.5" y="-154.3" font-family="Helvetica,sans-Serif" font-size="9.00">edit&#45;data.js</text>
</a>
</g>
</g>
<!-- example&#45;apps/welcome/presentations/integrate&#45;single&#45;page/src/init/index.js&#45;&gt;example&#45;apps/welcome/presentations/integrate&#45;single&#45;page/src/listeners/edit&#45;data.js -->
<g id="edge12" class="edge">
<title>example&#45;apps/welcome/presentations/integrate&#45;single&#45;page/src/init/index.js&#45;&gt;example&#45;apps/welcome/presentations/integrate&#45;single&#45;page/src/listeners/edit&#45;data.js</title>
<path fill="none" stroke="#000000" stroke-width="2" stroke-opacity="0.200000" d="M85.88,-74.46C89.47,-90.23 98.72,-122.05 118,-141 119.15,-142.13 120.39,-143.18 121.7,-144.17"/>
<polygon fill="#000000" fill-opacity="0.200000" stroke="#000000" stroke-width="2" stroke-opacity="0.200000" points="120.84,-146.12 127.01,-147.63 123.13,-142.59 120.84,-146.12"/>
</g>
<!-- example&#45;apps/welcome/presentations/integrate&#45;single&#45;page/src/listeners/init&#45;index.js -->
<g id="node14" class="node">
<title>example&#45;apps/welcome/presentations/integrate&#45;single&#45;page/src/listeners/init&#45;index.js</title>
<g id="a_node14"><a xlink:href="example-apps/welcome/presentations/integrate-single-page/src/listeners/init-index.js" xlink:title="init&#45;index.js">
<path fill="#ffffcc" stroke="black" d="M180.8,-135.3C180.8,-135.3 132.2,-135.3 132.2,-135.3 129.1,-135.3 126,-132.2 126,-129.1 126,-129.1 126,-122.9 126,-122.9 126,-119.8 129.1,-116.7 132.2,-116.7 132.2,-116.7 180.8,-116.7 180.8,-116.7 183.9,-116.7 187,-119.8 187,-122.9 187,-122.9 187,-129.1 187,-129.1 187,-132.2 183.9,-135.3 180.8,-135.3"/>
<text text-anchor="middle" x="156.5" y="-123.3" font-family="Helvetica,sans-Serif" font-size="9.00">init&#45;index.js</text>
</a>
</g>
</g>
<!-- example&#45;apps/welcome/presentations/integrate&#45;single&#45;page/src/init/index.js&#45;&gt;example&#45;apps/welcome/presentations/integrate&#45;single&#45;page/src/listeners/init&#45;index.js -->
<g id="edge13" class="edge">
<title>example&#45;apps/welcome/presentations/integrate&#45;single&#45;page/src/init/index.js&#45;&gt;example&#45;apps/welcome/presentations/integrate&#45;single&#45;page/src/listeners/init&#45;index.js</title>
<path fill="none" stroke="#000000" stroke-width="2" stroke-opacity="0.200000" d="M90.82,-74.44C97.21,-82.85 107.35,-95.17 118,-104 122.09,-107.39 126.77,-110.58 131.41,-113.43"/>
<polygon fill="#000000" fill-opacity="0.200000" stroke="#000000" stroke-width="2" stroke-opacity="0.200000" points="130.55,-115.36 136.79,-116.6 132.68,-111.74 130.55,-115.36"/>
</g>
<!-- example&#45;apps/welcome/presentations/integrate&#45;single&#45;page/src/init/state.js -->
<g id="node15" class="node">
<title>example&#45;apps/welcome/presentations/integrate&#45;single&#45;page/src/init/state.js</title>
<g id="a_node15"><a xlink:href="example-apps/welcome/presentations/integrate-single-page/src/init/state.js" xlink:title="state.js">
<path fill="#ffffcc" stroke="black" d="M177.3,-74.3C177.3,-74.3 135.7,-74.3 135.7,-74.3 132.6,-74.3 129.5,-71.2 129.5,-68.1 129.5,-68.1 129.5,-61.9 129.5,-61.9 129.5,-58.8 132.6,-55.7 135.7,-55.7 135.7,-55.7 177.3,-55.7 177.3,-55.7 180.4,-55.7 183.5,-58.8 183.5,-61.9 183.5,-61.9 183.5,-68.1 183.5,-68.1 183.5,-71.2 180.4,-74.3 177.3,-74.3"/>
<text text-anchor="middle" x="156.5" y="-62.3" font-family="Helvetica,sans-Serif" font-size="9.00">state.js</text>
</a>
</g>
</g>
<!-- example&#45;apps/welcome/presentations/integrate&#45;single&#45;page/src/init/index.js&#45;&gt;example&#45;apps/welcome/presentations/integrate&#45;single&#45;page/src/init/state.js -->
<g id="edge14" class="edge">
<title>example&#45;apps/welcome/presentations/integrate&#45;single&#45;page/src/init/index.js&#45;&gt;example&#45;apps/welcome/presentations/integrate&#45;single&#45;page/src/init/state.js</title>
<path fill="none" stroke="#000000" stroke-width="2" stroke-opacity="0.200000" d="M110.22,-65C114.4,-65 118.76,-65 123.06,-65"/>
<polygon fill="#000000" fill-opacity="0.200000" stroke="#000000" stroke-width="2" stroke-opacity="0.200000" points="123.28,-67.1 129.28,-65 123.28,-62.9 123.28,-67.1"/>
</g>
<!-- example&#45;apps/welcome/presentations/integrate&#45;single&#45;page/src/listeners/edit&#45;data.js&#45;&gt;example&#45;apps/welcome/presentations/integrate&#45;single&#45;page/src/handlers/update&#45;state.js -->
<g id="edge17" class="edge">
<title>example&#45;apps/welcome/presentations/integrate&#45;single&#45;page/src/listeners/edit&#45;data.js&#45;&gt;example&#45;apps/welcome/presentations/integrate&#45;single&#45;page/src/handlers/update&#45;state.js</title>
<path fill="none" stroke="#000000" stroke-width="2" stroke-opacity="0.200000" d="M186.97,-157C192.54,-157 198.48,-157 204.37,-157"/>
<polygon fill="#000000" fill-opacity="0.200000" stroke="#000000" stroke-width="2" stroke-opacity="0.200000" points="204.73,-159.1 210.73,-157 204.73,-154.9 204.73,-159.1"/>
</g>
<!-- example&#45;apps/welcome/presentations/integrate&#45;single&#45;page/src/listeners/init&#45;index.js&#45;&gt;example&#45;apps/welcome/presentations/integrate&#45;single&#45;page/src/handlers/init&#45;index.js -->
<g id="edge18" class="edge">
<title>example&#45;apps/welcome/presentations/integrate&#45;single&#45;page/src/listeners/init&#45;index.js&#45;&gt;example&#45;apps/welcome/presentations/integrate&#45;single&#45;page/src/handlers/init&#45;index.js</title>
<path fill="none" stroke="#000000" stroke-width="2" stroke-opacity="0.200000" d="M187.47,-126C195.3,-126 203.81,-126 211.89,-126"/>
<polygon fill="#000000" fill-opacity="0.200000" stroke="#000000" stroke-width="2" stroke-opacity="0.200000" points="211.97,-128.1 217.97,-126 211.97,-123.9 211.97,-128.1"/>
</g>
<!-- example&#45;apps/welcome/presentations/integrate&#45;single&#45;page/src/init/state.js&#45;&gt;data&#45;access/initialize.js -->
<g id="edge15" class="edge">
<title>example&#45;apps/welcome/presentations/integrate&#45;single&#45;page/src/init/state.js&#45;&gt;data&#45;access/initialize.js</title>
<path fill="none" stroke="#000000" stroke-width="2" stroke-opacity="0.200000" d="M183.53,-60.73C235.86,-53.23 356.78,-41.5 450.04,-75 462.38,-79.44 474.06,-88.56 482.5,-96.38"/>
<polygon fill="#000000" fill-opacity="0.200000" stroke="#000000" stroke-width="2" stroke-opacity="0.200000" points="481.06,-97.91 486.83,-100.56 483.97,-94.88 481.06,-97.91"/>
</g>
<!-- example&#45;apps/welcome/presentations/integrate&#45;single&#45;page/src/init/state.js&#45;&gt;example&#45;apps/welcome/data/friendly.js -->
<g id="edge16" class="edge">
<title>example&#45;apps/welcome/presentations/integrate&#45;single&#45;page/src/init/state.js&#45;&gt;example&#45;apps/welcome/data/friendly.js</title>
<path fill="none" stroke="#000000" stroke-width="2" stroke-opacity="0.200000" d="M169.54,-74.38C178.24,-81.9 189.4,-93.29 195,-106 211.18,-142.75 193.13,-157.07 203,-196 211.28,-228.69 228.71,-264.26 239.13,-283.87"/>
<polygon fill="#000000" fill-opacity="0.200000" stroke="#000000" stroke-width="2" stroke-opacity="0.200000" points="237.43,-285.14 242.13,-289.43 241.13,-283.15 237.43,-285.14"/>
</g>
</g>
</svg>
