<?xml version="1.0" encoding="UTF-8" standalone="no"?>
<!DOCTYPE svg PUBLIC "-//W3C//DTD SVG 1.1//EN"
 "http://www.w3.org/Graphics/SVG/1.1/DTD/svg11.dtd">
<!-- Generated by graphviz version 2.44.0 (20200408.0750)
 -->
<!-- Title: dependency&#45;cruiser output Pages: 1 -->
<svg width="498pt" height="837pt"
 viewBox="0.00 0.00 498.48 837.00" xmlns="http://www.w3.org/2000/svg" xmlns:xlink="http://www.w3.org/1999/xlink">
<g id="graph0" class="graph" transform="scale(1 1) rotate(0) translate(4 833)">
<title>dependency&#45;cruiser output</title>
<polygon fill="white" stroke="transparent" points="-4,4 -4,-833 494.48,-833 494.48,4 -4,4"/>
<g id="clust1" class="cluster">
<title>cluster_data&#45;access</title>
<path fill="#ffffff" stroke="black" stroke-width="2" d="M379.48,-8C379.48,-8 432.49,-8 432.49,-8 438.49,-8 444.49,-14 444.49,-20 444.49,-20 444.49,-111 444.49,-111 444.49,-117 438.49,-123 432.49,-123 432.49,-123 379.48,-123 379.48,-123 373.48,-123 367.48,-117 367.48,-111 367.48,-111 367.48,-20 367.48,-20 367.48,-14 373.48,-8 379.48,-8"/>
<text text-anchor="middle" x="405.99" y="-110.9" font-family="Helvetica,sans-Serif" font-weight="bold" font-size="9.00">data&#45;access</text>
</g>
<g id="clust2" class="cluster">
<title>cluster_lib</title>
<path fill="#ffffff" stroke="black" stroke-width="2" d="M381.98,-131C381.98,-131 429.99,-131 429.99,-131 435.99,-131 441.99,-137 441.99,-143 441.99,-143 441.99,-172 441.99,-172 441.99,-178 435.99,-184 429.99,-184 429.99,-184 381.98,-184 381.98,-184 375.98,-184 369.98,-178 369.98,-172 369.98,-172 369.98,-143 369.98,-143 369.98,-137 375.98,-131 381.98,-131"/>
<text text-anchor="middle" x="405.99" y="-171.9" font-family="Helvetica,sans-Serif" font-weight="bold" font-size="9.00">lib</text>
</g>
<g id="clust3" class="cluster">
<title>cluster_separated</title>
<path fill="#ffffff" stroke="black" stroke-width="2" d="M20,-192C20,-192 470.48,-192 470.48,-192 476.48,-192 482.48,-198 482.48,-204 482.48,-204 482.48,-809 482.48,-809 482.48,-815 476.48,-821 470.48,-821 470.48,-821 20,-821 20,-821 14,-821 8,-815 8,-809 8,-809 8,-204 8,-204 8,-198 14,-192 20,-192"/>
<text text-anchor="middle" x="245.24" y="-808.9" font-family="Helvetica,sans-Serif" font-weight="bold" font-size="9.00">separated</text>
</g>
<g id="clust4" class="cluster">
<title>cluster_separated/todos</title>
<path fill="#ffffff" stroke="black" stroke-width="2" d="M28,-200C28,-200 462.48,-200 462.48,-200 468.48,-200 474.48,-206 474.48,-212 474.48,-212 474.48,-782 474.48,-782 474.48,-788 468.48,-794 462.48,-794 462.48,-794 28,-794 28,-794 22,-794 16,-788 16,-782 16,-782 16,-212 16,-212 16,-206 22,-200 28,-200"/>
<text text-anchor="middle" x="245.24" y="-781.9" font-family="Helvetica,sans-Serif" font-weight="bold" font-size="9.00">todos</text>
</g>
<g id="clust5" class="cluster">
<title>cluster_separated/todos/business&#45;logic</title>
<path fill="#ffffff" stroke="black" stroke-width="2" d="M272.99,-208C272.99,-208 339.99,-208 339.99,-208 345.99,-208 351.99,-214 351.99,-220 351.99,-220 351.99,-373 351.99,-373 351.99,-379 345.99,-385 339.99,-385 339.99,-385 272.99,-385 272.99,-385 266.99,-385 260.99,-379 260.99,-373 260.99,-373 260.99,-220 260.99,-220 260.99,-214 266.99,-208 272.99,-208"/>
<text text-anchor="middle" x="306.49" y="-372.9" font-family="Helvetica,sans-Serif" font-weight="bold" font-size="9.00">business&#45;logic</text>
</g>
<g id="clust6" class="cluster">
<title>cluster_separated/todos/data</title>
<path fill="#ffffff" stroke="black" stroke-width="2" d="M371.99,-683C371.99,-683 439.99,-683 439.99,-683 445.99,-683 451.99,-689 451.99,-695 451.99,-695 451.99,-755 451.99,-755 451.99,-761 445.99,-767 439.99,-767 439.99,-767 371.99,-767 371.99,-767 365.99,-767 359.99,-761 359.99,-755 359.99,-755 359.99,-695 359.99,-695 359.99,-689 365.99,-683 371.99,-683"/>
<text text-anchor="middle" x="405.99" y="-754.9" font-family="Helvetica,sans-Serif" font-weight="bold" font-size="9.00">data</text>
</g>
<g id="clust7" class="cluster">
<title>cluster_separated/todos/presentations</title>
<path fill="#ffffff" stroke="black" stroke-width="2" d="M36,-393C36,-393 454.48,-393 454.48,-393 460.48,-393 466.48,-399 466.48,-405 466.48,-405 466.48,-663 466.48,-663 466.48,-669 460.48,-675 454.48,-675 454.48,-675 36,-675 36,-675 30,-675 24,-669 24,-663 24,-663 24,-405 24,-405 24,-399 30,-393 36,-393"/>
<text text-anchor="middle" x="245.24" y="-662.9" font-family="Helvetica,sans-Serif" font-weight="bold" font-size="9.00">presentations</text>
</g>
<g id="clust8" class="cluster">
<title>cluster_separated/todos/presentations/isolate</title>
<path fill="#ffffff" stroke="black" stroke-width="2" d="M44,-401C44,-401 446.48,-401 446.48,-401 452.48,-401 458.48,-407 458.48,-413 458.48,-413 458.48,-636 458.48,-636 458.48,-642 452.48,-648 446.48,-648 446.48,-648 44,-648 44,-648 38,-648 32,-642 32,-636 32,-636 32,-413 32,-413 32,-407 38,-401 44,-401"/>
<text text-anchor="middle" x="245.24" y="-635.9" font-family="Helvetica,sans-Serif" font-weight="bold" font-size="9.00">isolate</text>
</g>
<g id="clust9" class="cluster">
<title>cluster_separated/todos/presentations/isolate/src</title>
<path fill="#ffffff" stroke="black" stroke-width="2" d="M52,-409C52,-409 438.48,-409 438.48,-409 444.48,-409 450.48,-415 450.48,-421 450.48,-421 450.48,-609 450.48,-609 450.48,-615 444.48,-621 438.48,-621 438.48,-621 52,-621 52,-621 46,-621 40,-615 40,-609 40,-609 40,-421 40,-421 40,-415 46,-409 52,-409"/>
<text text-anchor="middle" x="245.24" y="-608.9" font-family="Helvetica,sans-Serif" font-weight="bold" font-size="9.00">src</text>
</g>
<g id="clust10" class="cluster">
<title>cluster_separated/todos/presentations/isolate/src/controllers</title>
<path fill="#ffffff" stroke="black" stroke-width="2" d="M189,-417C189,-417 240.99,-417 240.99,-417 246.99,-417 252.99,-423 252.99,-429 252.99,-429 252.99,-582 252.99,-582 252.99,-588 246.99,-594 240.99,-594 240.99,-594 189,-594 189,-594 183,-594 177,-588 177,-582 177,-582 177,-429 177,-429 177,-423 183,-417 189,-417"/>
<text text-anchor="middle" x="215" y="-581.9" font-family="Helvetica,sans-Serif" font-weight="bold" font-size="9.00">controllers</text>
</g>
<g id="clust11" class="cluster">
<title>cluster_separated/todos/presentations/isolate/src/views</title>
<path fill="#ffffff" stroke="black" stroke-width="2" d="M282.24,-479C282.24,-479 430.48,-479 430.48,-479 436.48,-479 442.48,-485 442.48,-491 442.48,-491 442.48,-551 442.48,-551 442.48,-557 436.48,-563 430.48,-563 430.48,-563 282.24,-563 282.24,-563 276.24,-563 270.24,-557 270.24,-551 270.24,-551 270.24,-491 270.24,-491 270.24,-485 276.24,-479 282.24,-479"/>
<text text-anchor="middle" x="356.36" y="-550.9" font-family="Helvetica,sans-Serif" font-weight="bold" font-size="9.00">views</text>
</g>
<!-- data&#45;access/initialize.js -->
<g id="node1" class="node">
<title>data&#45;access/initialize.js</title>
<g id="a_node1"><a xlink:href="data-access/initialize.js" xlink:title="initialize.js">
<polygon fill="#ffffcc" stroke="black" points="434.48,-34.3 432.93,-36.37 422.08,-36.37 420.53,-34.3 377.49,-34.3 377.49,-15.7 434.48,-15.7 434.48,-34.3"/>
<text text-anchor="middle" x="405.99" y="-22.3" font-family="Helvetica,sans-Serif" font-size="9.00">initialize.js</text>
</a>
</g>
</g>
<!-- data&#45;access/read&#45;one.js -->
<g id="node2" class="node">
<title>data&#45;access/read&#45;one.js</title>
<g id="a_node2"><a xlink:href="data-access/read-one.js" xlink:title="read&#45;one.js">
<polygon fill="#ffffcc" stroke="black" points="436.5,-65.3 434.95,-67.37 424.09,-67.37 422.54,-65.3 375.48,-65.3 375.48,-46.7 436.5,-46.7 436.5,-65.3"/>
<text text-anchor="middle" x="405.99" y="-53.3" font-family="Helvetica,sans-Serif" font-size="9.00">read&#45;one.js</text>
</a>
</g>
</g>
<!-- data&#45;access/update.js -->
<g id="node3" class="node">
<title>data&#45;access/update.js</title>
<g id="a_node3"><a xlink:href="data-access/update.js" xlink:title="update.js">
<polygon fill="#ffffcc" stroke="black" points="432.99,-96.3 431.44,-98.37 420.59,-98.37 419.04,-96.3 378.99,-96.3 378.99,-77.7 432.99,-77.7 432.99,-96.3"/>
<text text-anchor="middle" x="405.99" y="-84.3" font-family="Helvetica,sans-Serif" font-size="9.00">update.js</text>
</a>
</g>
</g>
<!-- lib/validate.js -->
<g id="node4" class="node">
<title>lib/validate.js</title>
<g id="a_node4"><a xlink:href="lib/validate.js" xlink:title="validate.js">
<polygon fill="#ffffcc" stroke="black" points="433.99,-157.3 432.44,-159.37 421.59,-159.37 420.04,-157.3 377.98,-157.3 377.98,-138.7 433.99,-138.7 433.99,-157.3"/>
<text text-anchor="middle" x="405.99" y="-145.3" font-family="Helvetica,sans-Serif" font-size="9.00">validate.js</text>
</a>
</g>
</g>
<!-- separated/todos/business&#45;logic/all&#45;items.js -->
<g id="node5" class="node">
<title>separated/todos/business&#45;logic/all&#45;items.js</title>
<g id="a_node5"><a xlink:href="separated/todos/business-logic/all-items.js" xlink:title="all&#45;items.js">
<path fill="#ffffcc" stroke="black" d="M329.78,-265.3C329.78,-265.3 283.2,-265.3 283.2,-265.3 280.1,-265.3 277,-262.2 277,-259.1 277,-259.1 277,-252.9 277,-252.9 277,-249.8 280.1,-246.7 283.2,-246.7 283.2,-246.7 329.78,-246.7 329.78,-246.7 332.88,-246.7 335.98,-249.8 335.98,-252.9 335.98,-252.9 335.98,-259.1 335.98,-259.1 335.98,-262.2 332.88,-265.3 329.78,-265.3"/>
<text text-anchor="middle" x="306.49" y="-253.3" font-family="Helvetica,sans-Serif" font-size="9.00">all&#45;items.js</text>
</a>
</g>
</g>
<!-- separated/todos/business&#45;logic/all&#45;items.js&#45;&gt;data&#45;access/read&#45;one.js -->
<g id="edge1" class="edge">
<title>separated/todos/business&#45;logic/all&#45;items.js&#45;&gt;data&#45;access/read&#45;one.js</title>
<path fill="none" stroke="#000000" stroke-width="2" stroke-opacity="0.200000" d="M336.13,-251.2C342.27,-248.82 348.08,-245.28 351.99,-240 374.2,-209.95 337.71,-102.01 359.99,-72 362.51,-68.6 365.82,-65.92 369.49,-63.81"/>
<polygon fill="#000000" fill-opacity="0.200000" stroke="#000000" stroke-width="2" stroke-opacity="0.200000" points="370.61,-65.6 375.1,-61.1 368.78,-61.82 370.61,-65.6"/>
</g>
<!-- separated/todos/business&#45;logic/create&#45;item.js -->
<g id="node6" class="node">
<title>separated/todos/business&#45;logic/create&#45;item.js</title>
<g id="a_node6"><a xlink:href="separated/todos/business-logic/create-item.js" xlink:title="create&#45;item.js">
<path fill="#ffffcc" stroke="black" d="M335.29,-327.3C335.29,-327.3 277.69,-327.3 277.69,-327.3 274.59,-327.3 271.49,-324.2 271.49,-321.1 271.49,-321.1 271.49,-314.9 271.49,-314.9 271.49,-311.8 274.59,-308.7 277.69,-308.7 277.69,-308.7 335.29,-308.7 335.29,-308.7 338.39,-308.7 341.49,-311.8 341.49,-314.9 341.49,-314.9 341.49,-321.1 341.49,-321.1 341.49,-324.2 338.39,-327.3 335.29,-327.3"/>
<text text-anchor="middle" x="306.49" y="-315.3" font-family="Helvetica,sans-Serif" font-size="9.00">create&#45;item.js</text>
</a>
</g>
</g>
<!-- separated/todos/business&#45;logic/create&#45;item.js&#45;&gt;data&#45;access/read&#45;one.js -->
<g id="edge2" class="edge">
<title>separated/todos/business&#45;logic/create&#45;item.js&#45;&gt;data&#45;access/read&#45;one.js</title>
<path fill="none" stroke="#000000" stroke-width="2" stroke-opacity="0.200000" d="M341.57,-310.76C345.62,-308.57 349.28,-305.71 351.99,-302 367.06,-281.34 344.88,-92.63 359.99,-72 362.49,-68.58 365.78,-65.89 369.45,-63.78"/>
<polygon fill="#000000" fill-opacity="0.200000" stroke="#000000" stroke-width="2" stroke-opacity="0.200000" points="370.57,-65.57 375.05,-61.07 368.74,-61.79 370.57,-65.57"/>
</g>
<!-- separated/todos/business&#45;logic/create&#45;item.js&#45;&gt;data&#45;access/update.js -->
<g id="edge3" class="edge">
<title>separated/todos/business&#45;logic/create&#45;item.js&#45;&gt;data&#45;access/update.js</title>
<path fill="none" stroke="#000000" stroke-width="2" stroke-opacity="0.200000" d="M341.53,-310.73C345.59,-308.55 349.26,-305.7 351.99,-302 363.48,-286.43 351.76,-145.52 359.99,-128 365.29,-116.7 375.28,-107.1 384.5,-100.03"/>
<polygon fill="#000000" fill-opacity="0.200000" stroke="#000000" stroke-width="2" stroke-opacity="0.200000" points="385.91,-101.61 389.51,-96.38 383.43,-98.22 385.91,-101.61"/>
</g>
<!-- separated/todos/business&#45;logic/get&#45;title.js -->
<g id="node7" class="node">
<title>separated/todos/business&#45;logic/get&#45;title.js</title>
<g id="a_node7"><a xlink:href="separated/todos/business-logic/get-title.js" xlink:title="get&#45;title.js">
<path fill="#ffffcc" stroke="black" d="M327.29,-296.3C327.29,-296.3 285.69,-296.3 285.69,-296.3 282.59,-296.3 279.49,-293.2 279.49,-290.1 279.49,-290.1 279.49,-283.9 279.49,-283.9 279.49,-280.8 282.59,-277.7 285.69,-277.7 285.69,-277.7 327.29,-277.7 327.29,-277.7 330.39,-277.7 333.49,-280.8 333.49,-283.9 333.49,-283.9 333.49,-290.1 333.49,-290.1 333.49,-293.2 330.39,-296.3 327.29,-296.3"/>
<text text-anchor="middle" x="306.49" y="-284.3" font-family="Helvetica,sans-Serif" font-size="9.00">get&#45;title.js</text>
</a>
</g>
</g>
<!-- separated/todos/business&#45;logic/get&#45;title.js&#45;&gt;data&#45;access/read&#45;one.js -->
<g id="edge4" class="edge">
<title>separated/todos/business&#45;logic/get&#45;title.js&#45;&gt;data&#45;access/read&#45;one.js</title>
<path fill="none" stroke="#000000" stroke-width="2" stroke-opacity="0.200000" d="M333.84,-283.06C340.82,-280.7 347.62,-276.96 351.99,-271 365.08,-253.16 346.87,-89.82 359.99,-72 362.5,-68.59 365.8,-65.9 369.47,-63.79"/>
<polygon fill="#000000" fill-opacity="0.200000" stroke="#000000" stroke-width="2" stroke-opacity="0.200000" points="370.58,-65.58 375.07,-61.08 368.76,-61.8 370.58,-65.58"/>
</g>
<!-- separated/todos/business&#45;logic/remove&#45;item.js -->
<g id="node8" class="node">
<title>separated/todos/business&#45;logic/remove&#45;item.js</title>
<g id="a_node8"><a xlink:href="separated/todos/business-logic/remove-item.js" xlink:title="remove&#45;item.js">
<path fill="#ffffcc" stroke="black" d="M337.78,-234.3C337.78,-234.3 275.2,-234.3 275.2,-234.3 272.1,-234.3 269,-231.2 269,-228.1 269,-228.1 269,-221.9 269,-221.9 269,-218.8 272.1,-215.7 275.2,-215.7 275.2,-215.7 337.78,-215.7 337.78,-215.7 340.88,-215.7 343.98,-218.8 343.98,-221.9 343.98,-221.9 343.98,-228.1 343.98,-228.1 343.98,-231.2 340.88,-234.3 337.78,-234.3"/>
<text text-anchor="middle" x="306.49" y="-222.3" font-family="Helvetica,sans-Serif" font-size="9.00">remove&#45;item.js</text>
</a>
</g>
</g>
<!-- separated/todos/business&#45;logic/remove&#45;item.js&#45;&gt;data&#45;access/read&#45;one.js -->
<g id="edge5" class="edge">
<title>separated/todos/business&#45;logic/remove&#45;item.js&#45;&gt;data&#45;access/read&#45;one.js</title>
<path fill="none" stroke="#000000" stroke-width="2" stroke-opacity="0.200000" d="M312.29,-215.62C321.4,-197.45 341.23,-155.99 351.99,-119 357.9,-98.65 346.35,-88.22 359.99,-72 362.64,-68.84 365.96,-66.31 369.59,-64.28"/>
<polygon fill="#000000" fill-opacity="0.200000" stroke="#000000" stroke-width="2" stroke-opacity="0.200000" points="370.58,-66.13 375.08,-61.64 368.76,-62.34 370.58,-66.13"/>
</g>
<!-- separated/todos/business&#45;logic/remove&#45;item.js&#45;&gt;data&#45;access/update.js -->
<g id="edge6" class="edge">
<title>separated/todos/business&#45;logic/remove&#45;item.js&#45;&gt;data&#45;access/update.js</title>
<path fill="none" stroke="#000000" stroke-width="2" stroke-opacity="0.200000" d="M311.32,-215.56C318.94,-197.46 337.21,-157.1 359.99,-128 368.01,-117.75 378.73,-107.87 387.7,-100.38"/>
<polygon fill="#000000" fill-opacity="0.200000" stroke="#000000" stroke-width="2" stroke-opacity="0.200000" points="389.15,-101.9 392.47,-96.47 386.49,-98.65 389.15,-101.9"/>
</g>
<!-- separated/todos/business&#45;logic/update&#45;item.js -->
<g id="node9" class="node">
<title>separated/todos/business&#45;logic/update&#45;item.js</title>
<g id="a_node9"><a xlink:href="separated/todos/business-logic/update-item.js" xlink:title="update&#45;item.js">
<path fill="#ffffcc" stroke="black" d="M336.3,-358.3C336.3,-358.3 276.68,-358.3 276.68,-358.3 273.58,-358.3 270.48,-355.2 270.48,-352.1 270.48,-352.1 270.48,-345.9 270.48,-345.9 270.48,-342.8 273.58,-339.7 276.68,-339.7 276.68,-339.7 336.3,-339.7 336.3,-339.7 339.4,-339.7 342.5,-342.8 342.5,-345.9 342.5,-345.9 342.5,-352.1 342.5,-352.1 342.5,-355.2 339.4,-358.3 336.3,-358.3"/>
<text text-anchor="middle" x="306.49" y="-346.3" font-family="Helvetica,sans-Serif" font-size="9.00">update&#45;item.js</text>
</a>
</g>
</g>
<!-- separated/todos/business&#45;logic/update&#45;item.js&#45;&gt;data&#45;access/read&#45;one.js -->
<g id="edge7" class="edge">
<title>separated/todos/business&#45;logic/update&#45;item.js&#45;&gt;data&#45;access/read&#45;one.js</title>
<path fill="none" stroke="#000000" stroke-width="2" stroke-opacity="0.200000" d="M342.87,-341.04C346.41,-338.96 349.57,-336.32 351.99,-333 369.04,-309.52 342.89,-95.45 359.99,-72 362.48,-68.58 365.77,-65.89 369.44,-63.77"/>
<polygon fill="#000000" fill-opacity="0.200000" stroke="#000000" stroke-width="2" stroke-opacity="0.200000" points="370.55,-65.56 375.04,-61.05 368.72,-61.78 370.55,-65.56"/>
</g>
<!-- separated/todos/business&#45;logic/update&#45;item.js&#45;&gt;data&#45;access/update.js -->
<g id="edge8" class="edge">
<title>separated/todos/business&#45;logic/update&#45;item.js&#45;&gt;data&#45;access/update.js</title>
<path fill="none" stroke="#000000" stroke-width="2" stroke-opacity="0.200000" d="M342.84,-341.02C346.38,-338.94 349.56,-336.31 351.99,-333 365.46,-314.61 350.37,-148.67 359.99,-128 365.25,-116.68 375.24,-107.08 384.47,-100.02"/>
<polygon fill="#000000" fill-opacity="0.200000" stroke="#000000" stroke-width="2" stroke-opacity="0.200000" points="385.87,-101.59 389.49,-96.36 383.4,-98.2 385.87,-101.59"/>
</g>
<!-- separated/todos/business&#45;logic/update&#45;item.js&#45;&gt;lib/validate.js -->
<g id="edge9" class="edge">
<title>separated/todos/business&#45;logic/update&#45;item.js&#45;&gt;lib/validate.js</title>
<path fill="none" stroke="#000000" stroke-width="2" stroke-opacity="0.200000" d="M342.55,-340.17C346.05,-338.24 349.29,-335.88 351.99,-333 397.58,-284.29 404.29,-199.01 405.04,-163.85"/>
<polygon fill="#000000" fill-opacity="0.200000" stroke="#000000" stroke-width="2" stroke-opacity="0.200000" points="407.14,-163.53 405.12,-157.51 402.94,-163.48 407.14,-163.53"/>
</g>
<!-- separated/todos/data/item.schema.js -->
<g id="node10" class="node">
<title>separated/todos/data/item.schema.js</title>
<g id="a_node10"><a xlink:href="separated/todos/data/item.schema.js" xlink:title="item.schema.js">
<path fill="#ffffcc" stroke="black" d="M437.79,-709.3C437.79,-709.3 374.19,-709.3 374.19,-709.3 371.09,-709.3 367.99,-706.2 367.99,-703.1 367.99,-703.1 367.99,-696.9 367.99,-696.9 367.99,-693.8 371.09,-690.7 374.19,-690.7 374.19,-690.7 437.79,-690.7 437.79,-690.7 440.89,-690.7 443.99,-693.8 443.99,-696.9 443.99,-696.9 443.99,-703.1 443.99,-703.1 443.99,-706.2 440.89,-709.3 437.79,-709.3"/>
<text text-anchor="middle" x="405.99" y="-697.3" font-family="Helvetica,sans-Serif" font-size="9.00">item.schema.js</text>
</a>
</g>
</g>
<!-- separated/todos/business&#45;logic/update&#45;item.js&#45;&gt;separated/todos/data/item.schema.js -->
<g id="edge10" class="edge">
<title>separated/todos/business&#45;logic/update&#45;item.js&#45;&gt;separated/todos/data/item.schema.js</title>
<path fill="none" stroke="#000000" stroke-width="2" stroke-opacity="0.200000" d="M311.66,-358.33C320.73,-379.02 342.17,-430.56 351.99,-476 360.47,-515.25 351.76,-526.69 359.99,-566 369.26,-610.29 388.52,-660.29 398.57,-684.8"/>
<polygon fill="#000000" fill-opacity="0.200000" stroke="#000000" stroke-width="2" stroke-opacity="0.200000" points="396.68,-685.73 400.91,-690.47 400.56,-684.12 396.68,-685.73"/>
</g>
<!-- separated/todos/data/todos.js -->
<g id="node11" class="node">
<title>separated/todos/data/todos.js</title>
<g id="a_node11"><a xlink:href="separated/todos/data/todos.js" xlink:title="todos.js">
<path fill="#ffffcc" stroke="black" d="M426.79,-740.3C426.79,-740.3 385.19,-740.3 385.19,-740.3 382.09,-740.3 378.99,-737.2 378.99,-734.1 378.99,-734.1 378.99,-727.9 378.99,-727.9 378.99,-724.8 382.09,-721.7 385.19,-721.7 385.19,-721.7 426.79,-721.7 426.79,-721.7 429.89,-721.7 432.99,-724.8 432.99,-727.9 432.99,-727.9 432.99,-734.1 432.99,-734.1 432.99,-737.2 429.89,-740.3 426.79,-740.3"/>
<text text-anchor="middle" x="405.99" y="-728.3" font-family="Helvetica,sans-Serif" font-size="9.00">todos.js</text>
</a>
</g>
</g>
<!-- separated/todos/presentations/isolate/src/app.js -->
<g id="node12" class="node">
<title>separated/todos/presentations/isolate/src/app.js</title>
<g id="a_node12"><a xlink:href="separated/todos/presentations/isolate/src/app.js" xlink:title="app.js">
<path fill="#ffffcc" stroke="black" d="M162.8,-505.3C162.8,-505.3 121.2,-505.3 121.2,-505.3 118.1,-505.3 115,-502.2 115,-499.1 115,-499.1 115,-492.9 115,-492.9 115,-489.8 118.1,-486.7 121.2,-486.7 121.2,-486.7 162.8,-486.7 162.8,-486.7 165.9,-486.7 169,-489.8 169,-492.9 169,-492.9 169,-499.1 169,-499.1 169,-502.2 165.9,-505.3 162.8,-505.3"/>
<text text-anchor="middle" x="142" y="-493.3" font-family="Helvetica,sans-Serif" font-size="9.00">app.js</text>
</a>
</g>
</g>
<!-- separated/todos/presentations/isolate/src/controllers/add.js -->
<g id="node13" class="node">
<title>separated/todos/presentations/isolate/src/controllers/add.js</title>
<g id="a_node13"><a xlink:href="separated/todos/presentations/isolate/src/controllers/add.js" xlink:title="add.js">
<path fill="#ffffcc" stroke="black" d="M235.8,-567.3C235.8,-567.3 194.2,-567.3 194.2,-567.3 191.1,-567.3 188,-564.2 188,-561.1 188,-561.1 188,-554.9 188,-554.9 188,-551.8 191.1,-548.7 194.2,-548.7 194.2,-548.7 235.8,-548.7 235.8,-548.7 238.9,-548.7 242,-551.8 242,-554.9 242,-554.9 242,-561.1 242,-561.1 242,-564.2 238.9,-567.3 235.8,-567.3"/>
<text text-anchor="middle" x="215" y="-555.3" font-family="Helvetica,sans-Serif" font-size="9.00">add.js</text>
</a>
</g>
</g>
<!-- separated/todos/presentations/isolate/src/app.js&#45;&gt;separated/todos/presentations/isolate/src/controllers/add.js -->
<g id="edge11" class="edge">
<title>separated/todos/presentations/isolate/src/app.js&#45;&gt;separated/todos/presentations/isolate/src/controllers/add.js</title>
<path fill="none" stroke="#000000" stroke-width="2" stroke-opacity="0.200000" d="M148.08,-505.63C153.88,-515.84 164.25,-531.87 177,-542 178.75,-543.39 180.63,-544.68 182.59,-545.87"/>
<polygon fill="#000000" fill-opacity="0.200000" stroke="#000000" stroke-width="2" stroke-opacity="0.200000" points="181.66,-547.75 187.93,-548.82 183.69,-544.08 181.66,-547.75"/>
</g>
<!-- separated/todos/presentations/isolate/src/controllers/change.js -->
<g id="node14" class="node">
<title>separated/todos/presentations/isolate/src/controllers/change.js</title>
<g id="a_node14"><a xlink:href="separated/todos/presentations/isolate/src/controllers/change.js" xlink:title="change.js">
<path fill="#ffffcc" stroke="black" d="M235.81,-505.3C235.81,-505.3 194.18,-505.3 194.18,-505.3 191.08,-505.3 187.98,-502.2 187.98,-499.1 187.98,-499.1 187.98,-492.9 187.98,-492.9 187.98,-489.8 191.08,-486.7 194.18,-486.7 194.18,-486.7 235.81,-486.7 235.81,-486.7 238.91,-486.7 242.01,-489.8 242.01,-492.9 242.01,-492.9 242.01,-499.1 242.01,-499.1 242.01,-502.2 238.91,-505.3 235.81,-505.3"/>
<text text-anchor="middle" x="215" y="-493.3" font-family="Helvetica,sans-Serif" font-size="9.00">change.js</text>
</a>
</g>
</g>
<!-- separated/todos/presentations/isolate/src/app.js&#45;&gt;separated/todos/presentations/isolate/src/controllers/change.js -->
<g id="edge12" class="edge">
<title>separated/todos/presentations/isolate/src/app.js&#45;&gt;separated/todos/presentations/isolate/src/controllers/change.js</title>
<path fill="none" stroke="#000000" stroke-width="2" stroke-opacity="0.200000" d="M169.03,-496C173.18,-496 177.52,-496 181.79,-496"/>
<polygon fill="#000000" fill-opacity="0.200000" stroke="#000000" stroke-width="2" stroke-opacity="0.200000" points="181.97,-498.1 187.97,-496 181.97,-493.9 181.97,-498.1"/>
</g>
<!-- separated/todos/presentations/isolate/src/controllers/remove.js -->
<g id="node15" class="node">
<title>separated/todos/presentations/isolate/src/controllers/remove.js</title>
<g id="a_node15"><a xlink:href="separated/todos/presentations/isolate/src/controllers/remove.js" xlink:title="remove.js">
<path fill="#ffffcc" stroke="black" d="M236.3,-443.3C236.3,-443.3 193.7,-443.3 193.7,-443.3 190.6,-443.3 187.5,-440.2 187.5,-437.1 187.5,-437.1 187.5,-430.9 187.5,-430.9 187.5,-427.8 190.6,-424.7 193.7,-424.7 193.7,-424.7 236.3,-424.7 236.3,-424.7 239.4,-424.7 242.5,-427.8 242.5,-430.9 242.5,-430.9 242.5,-437.1 242.5,-437.1 242.5,-440.2 239.4,-443.3 236.3,-443.3"/>
<text text-anchor="middle" x="215" y="-431.3" font-family="Helvetica,sans-Serif" font-size="9.00">remove.js</text>
</a>
</g>
</g>
<!-- separated/todos/presentations/isolate/src/app.js&#45;&gt;separated/todos/presentations/isolate/src/controllers/remove.js -->
<g id="edge13" class="edge">
<title>separated/todos/presentations/isolate/src/app.js&#45;&gt;separated/todos/presentations/isolate/src/controllers/remove.js</title>
<path fill="none" stroke="#000000" stroke-width="2" stroke-opacity="0.200000" d="M148.08,-486.37C153.88,-476.16 164.25,-460.13 177,-450 178.59,-448.74 180.29,-447.56 182.07,-446.45"/>
<polygon fill="#000000" fill-opacity="0.200000" stroke="#000000" stroke-width="2" stroke-opacity="0.200000" points="183.34,-448.15 187.54,-443.38 181.28,-444.49 183.34,-448.15"/>
</g>
<!-- separated/todos/presentations/isolate/src/controllers/show&#45;list.js -->
<g id="node16" class="node">
<title>separated/todos/presentations/isolate/src/controllers/show&#45;list.js</title>
<g id="a_node16"><a xlink:href="separated/todos/presentations/isolate/src/controllers/show-list.js" xlink:title="show&#45;list.js">
<path fill="#ffffcc" stroke="black" d="M238.79,-474.3C238.79,-474.3 191.2,-474.3 191.2,-474.3 188.1,-474.3 185,-471.2 185,-468.1 185,-468.1 185,-461.9 185,-461.9 185,-458.8 188.1,-455.7 191.2,-455.7 191.2,-455.7 238.79,-455.7 238.79,-455.7 241.89,-455.7 244.99,-458.8 244.99,-461.9 244.99,-461.9 244.99,-468.1 244.99,-468.1 244.99,-471.2 241.89,-474.3 238.79,-474.3"/>
<text text-anchor="middle" x="215" y="-462.3" font-family="Helvetica,sans-Serif" font-size="9.00">show&#45;list.js</text>
</a>
</g>
</g>
<!-- separated/todos/presentations/isolate/src/app.js&#45;&gt;separated/todos/presentations/isolate/src/controllers/show&#45;list.js -->
<g id="edge14" class="edge">
<title>separated/todos/presentations/isolate/src/app.js&#45;&gt;separated/todos/presentations/isolate/src/controllers/show&#45;list.js</title>
<path fill="none" stroke="#000000" stroke-width="2" stroke-opacity="0.200000" d="M164.21,-486.61C168.44,-484.75 172.86,-482.81 177,-481 180.05,-479.67 183.24,-478.28 186.41,-476.9"/>
<polygon fill="#000000" fill-opacity="0.200000" stroke="#000000" stroke-width="2" stroke-opacity="0.200000" points="187.4,-478.76 192.07,-474.45 185.73,-474.91 187.4,-478.76"/>
</g>
<!-- separated/todos/presentations/isolate/src/controllers/toggle.js -->
<g id="node17" class="node">
<title>separated/todos/presentations/isolate/src/controllers/toggle.js</title>
<g id="a_node17"><a xlink:href="separated/todos/presentations/isolate/src/controllers/toggle.js" xlink:title="toggle.js">
<path fill="#ffffcc" stroke="black" d="M235.8,-536.3C235.8,-536.3 194.2,-536.3 194.2,-536.3 191.1,-536.3 188,-533.2 188,-530.1 188,-530.1 188,-523.9 188,-523.9 188,-520.8 191.1,-517.7 194.2,-517.7 194.2,-517.7 235.8,-517.7 235.8,-517.7 238.9,-517.7 242,-520.8 242,-523.9 242,-523.9 242,-530.1 242,-530.1 242,-533.2 238.9,-536.3 235.8,-536.3"/>
<text text-anchor="middle" x="215" y="-524.3" font-family="Helvetica,sans-Serif" font-size="9.00">toggle.js</text>
</a>
</g>
</g>
<!-- separated/todos/presentations/isolate/src/app.js&#45;&gt;separated/todos/presentations/isolate/src/controllers/toggle.js -->
<g id="edge15" class="edge">
<title>separated/todos/presentations/isolate/src/app.js&#45;&gt;separated/todos/presentations/isolate/src/controllers/toggle.js</title>
<path fill="none" stroke="#000000" stroke-width="2" stroke-opacity="0.200000" d="M164.21,-505.39C168.44,-507.25 172.86,-509.19 177,-511 180.05,-512.33 183.24,-513.72 186.41,-515.1"/>
<polygon fill="#000000" fill-opacity="0.200000" stroke="#000000" stroke-width="2" stroke-opacity="0.200000" points="185.73,-517.09 192.07,-517.55 187.4,-513.24 185.73,-517.09"/>
</g>
<!-- separated/todos/presentations/isolate/src/controllers/add.js&#45;&gt;separated/todos/business&#45;logic/create&#45;item.js -->
<g id="edge16" class="edge">
<title>separated/todos/presentations/isolate/src/controllers/add.js&#45;&gt;separated/todos/business&#45;logic/create&#45;item.js</title>
<path fill="none" stroke="#000000" stroke-width="2" stroke-opacity="0.200000" d="M242.2,-551.14C246.43,-548.9 250.3,-545.93 252.99,-542 266.06,-522.92 247.33,-352.66 260.99,-334 262.52,-331.91 264.35,-330.1 266.37,-328.52"/>
<polygon fill="#000000" fill-opacity="0.200000" stroke="#000000" stroke-width="2" stroke-opacity="0.200000" points="267.53,-330.27 271.42,-325.25 265.25,-326.75 267.53,-330.27"/>
</g>
<!-- separated/todos/presentations/isolate/src/controllers/add.js&#45;&gt;separated/todos/business&#45;logic/get&#45;title.js -->
<g id="edge17" class="edge">
<title>separated/todos/presentations/isolate/src/controllers/add.js&#45;&gt;separated/todos/business&#45;logic/get&#45;title.js</title>
<path fill="none" stroke="#000000" stroke-width="2" stroke-opacity="0.200000" d="M242.21,-551.15C246.45,-548.91 250.31,-545.93 252.99,-542 267.95,-520.04 245.35,-324.48 260.99,-303 264.12,-298.71 268.51,-295.56 273.32,-293.26"/>
<polygon fill="#000000" fill-opacity="0.200000" stroke="#000000" stroke-width="2" stroke-opacity="0.200000" points="274.33,-295.12 279.11,-290.92 272.76,-291.22 274.33,-295.12"/>
</g>
<!-- separated/todos/presentations/isolate/src/views/log&#45;list.js -->
<g id="node18" class="node">
<title>separated/todos/presentations/isolate/src/views/log&#45;list.js</title>
<g id="a_node18"><a xlink:href="separated/todos/presentations/isolate/src/views/log-list.js" xlink:title="log&#45;list.js">
<path fill="#ffffcc" stroke="black" d="M327.29,-505.3C327.29,-505.3 285.69,-505.3 285.69,-505.3 282.59,-505.3 279.49,-502.2 279.49,-499.1 279.49,-499.1 279.49,-492.9 279.49,-492.9 279.49,-489.8 282.59,-486.7 285.69,-486.7 285.69,-486.7 327.29,-486.7 327.29,-486.7 330.39,-486.7 333.49,-489.8 333.49,-492.9 333.49,-492.9 333.49,-499.1 333.49,-499.1 333.49,-502.2 330.39,-505.3 327.29,-505.3"/>
<text text-anchor="middle" x="306.49" y="-493.3" font-family="Helvetica,sans-Serif" font-size="9.00">log&#45;list.js</text>
</a>
</g>
</g>
<!-- separated/todos/presentations/isolate/src/controllers/add.js&#45;&gt;separated/todos/presentations/isolate/src/views/log&#45;list.js -->
<g id="edge18" class="edge">
<title>separated/todos/presentations/isolate/src/controllers/add.js&#45;&gt;separated/todos/presentations/isolate/src/views/log&#45;list.js</title>
<path fill="none" stroke="#000000" stroke-width="2" stroke-opacity="0.200000" d="M242.28,-550.22C246.29,-548.09 250.07,-545.39 252.99,-542 262,-531.55 251.66,-522.16 260.99,-512 264.51,-508.18 269,-505.27 273.77,-503.05"/>
<polygon fill="#000000" fill-opacity="0.200000" stroke="#000000" stroke-width="2" stroke-opacity="0.200000" points="274.69,-504.95 279.47,-500.75 273.12,-501.05 274.69,-504.95"/>
</g>
<!-- separated/todos/presentations/isolate/src/views/warning.js -->
<g id="node19" class="node">
<title>separated/todos/presentations/isolate/src/views/warning.js</title>
<g id="a_node19"><a xlink:href="separated/todos/presentations/isolate/src/views/warning.js" xlink:title="warning.js">
<path fill="#ffffcc" stroke="black" d="M328.29,-536.3C328.29,-536.3 284.69,-536.3 284.69,-536.3 281.59,-536.3 278.49,-533.2 278.49,-530.1 278.49,-530.1 278.49,-523.9 278.49,-523.9 278.49,-520.8 281.59,-517.7 284.69,-517.7 284.69,-517.7 328.29,-517.7 328.29,-517.7 331.39,-517.7 334.49,-520.8 334.49,-523.9 334.49,-523.9 334.49,-530.1 334.49,-530.1 334.49,-533.2 331.39,-536.3 328.29,-536.3"/>
<text text-anchor="middle" x="306.49" y="-524.3" font-family="Helvetica,sans-Serif" font-size="9.00">warning.js</text>
</a>
</g>
</g>
<!-- separated/todos/presentations/isolate/src/controllers/add.js&#45;&gt;separated/todos/presentations/isolate/src/views/warning.js -->
<g id="edge19" class="edge">
<title>separated/todos/presentations/isolate/src/controllers/add.js&#45;&gt;separated/todos/presentations/isolate/src/views/warning.js</title>
<path fill="none" stroke="#000000" stroke-width="2" stroke-opacity="0.200000" d="M242.36,-548.87C251.85,-545.58 262.66,-541.84 272.63,-538.38"/>
<polygon fill="#000000" fill-opacity="0.200000" stroke="#000000" stroke-width="2" stroke-opacity="0.200000" points="273.4,-540.34 278.38,-536.39 272.02,-536.37 273.4,-540.34"/>
</g>
<!-- separated/todos/presentations/isolate/src/controllers/change.js&#45;&gt;separated/todos/business&#45;logic/all&#45;items.js -->
<g id="edge20" class="edge">
<title>separated/todos/presentations/isolate/src/controllers/change.js&#45;&gt;separated/todos/business&#45;logic/all&#45;items.js</title>
<path fill="none" stroke="#000000" stroke-width="2" stroke-opacity="0.200000" d="M242.2,-489.14C246.43,-486.9 250.3,-483.93 252.99,-480 266.06,-460.92 247.33,-290.66 260.99,-272 263.66,-268.36 267.24,-265.54 271.21,-263.36"/>
<polygon fill="#000000" fill-opacity="0.200000" stroke="#000000" stroke-width="2" stroke-opacity="0.200000" points="272.25,-265.2 276.81,-260.78 270.49,-261.38 272.25,-265.2"/>
</g>
<!-- separated/todos/presentations/isolate/src/controllers/change.js&#45;&gt;separated/todos/business&#45;logic/get&#45;title.js -->
<g id="edge21" class="edge">
<title>separated/todos/presentations/isolate/src/controllers/change.js&#45;&gt;separated/todos/business&#45;logic/get&#45;title.js</title>
<path fill="none" stroke="#000000" stroke-width="2" stroke-opacity="0.200000" d="M242.18,-489.12C246.41,-486.88 250.29,-483.92 252.99,-480 275.35,-447.59 237.63,-334.69 260.99,-303 264.14,-298.73 268.54,-295.59 273.36,-293.29"/>
<polygon fill="#000000" fill-opacity="0.200000" stroke="#000000" stroke-width="2" stroke-opacity="0.200000" points="274.37,-295.15 279.16,-290.96 272.81,-291.25 274.37,-295.15"/>
</g>
<!-- separated/todos/presentations/isolate/src/controllers/change.js&#45;&gt;separated/todos/business&#45;logic/update&#45;item.js -->
<g id="edge22" class="edge">
<title>separated/todos/presentations/isolate/src/controllers/change.js&#45;&gt;separated/todos/business&#45;logic/update&#45;item.js</title>
<path fill="none" stroke="#000000" stroke-width="2" stroke-opacity="0.200000" d="M242.32,-487.72C246.24,-485.65 249.97,-483.11 252.99,-480 285.13,-446.98 298.38,-391.78 303.15,-364.8"/>
<polygon fill="#000000" fill-opacity="0.200000" stroke="#000000" stroke-width="2" stroke-opacity="0.200000" points="305.27,-364.85 304.19,-358.59 301.13,-364.16 305.27,-364.85"/>
</g>
<!-- separated/todos/presentations/isolate/src/controllers/change.js&#45;&gt;separated/todos/presentations/isolate/src/views/log&#45;list.js -->
<g id="edge23" class="edge">
<title>separated/todos/presentations/isolate/src/controllers/change.js&#45;&gt;separated/todos/presentations/isolate/src/views/log&#45;list.js</title>
<path fill="none" stroke="#000000" stroke-width="2" stroke-opacity="0.200000" d="M242.36,-496C252.01,-496 263.04,-496 273.15,-496"/>
<polygon fill="#000000" fill-opacity="0.200000" stroke="#000000" stroke-width="2" stroke-opacity="0.200000" points="273.31,-498.1 279.31,-496 273.31,-493.9 273.31,-498.1"/>
</g>
<!-- separated/todos/presentations/isolate/src/controllers/change.js&#45;&gt;separated/todos/presentations/isolate/src/views/warning.js -->
<g id="edge24" class="edge">
<title>separated/todos/presentations/isolate/src/controllers/change.js&#45;&gt;separated/todos/presentations/isolate/src/views/warning.js</title>
<path fill="none" stroke="#000000" stroke-width="2" stroke-opacity="0.200000" d="M242.36,-505.13C251.85,-508.42 262.66,-512.16 272.63,-515.62"/>
<polygon fill="#000000" fill-opacity="0.200000" stroke="#000000" stroke-width="2" stroke-opacity="0.200000" points="272.02,-517.63 278.38,-517.61 273.4,-513.66 272.02,-517.63"/>
</g>
<!-- separated/todos/presentations/isolate/src/controllers/remove.js&#45;&gt;separated/todos/business&#45;logic/all&#45;items.js -->
<g id="edge25" class="edge">
<title>separated/todos/presentations/isolate/src/controllers/remove.js&#45;&gt;separated/todos/business&#45;logic/all&#45;items.js</title>
<path fill="none" stroke="#000000" stroke-width="2" stroke-opacity="0.200000" d="M215.79,-424.54C215.73,-397.16 219.29,-316.92 260.99,-272 263.99,-268.77 267.68,-266.2 271.65,-264.14"/>
<polygon fill="#000000" fill-opacity="0.200000" stroke="#000000" stroke-width="2" stroke-opacity="0.200000" points="272.58,-266.02 277.19,-261.64 270.85,-262.19 272.58,-266.02"/>
</g>
<!-- separated/todos/presentations/isolate/src/controllers/remove.js&#45;&gt;separated/todos/business&#45;logic/get&#45;title.js -->
<g id="edge26" class="edge">
<title>separated/todos/presentations/isolate/src/controllers/remove.js&#45;&gt;separated/todos/business&#45;logic/get&#45;title.js</title>
<path fill="none" stroke="#000000" stroke-width="2" stroke-opacity="0.200000" d="M216.52,-424.65C218.35,-400.99 226.39,-338.11 260.99,-303 264.56,-299.39 268.99,-296.58 273.67,-294.41"/>
<polygon fill="#000000" fill-opacity="0.200000" stroke="#000000" stroke-width="2" stroke-opacity="0.200000" points="274.48,-296.35 279.24,-292.14 272.89,-292.46 274.48,-296.35"/>
</g>
<!-- separated/todos/presentations/isolate/src/controllers/remove.js&#45;&gt;separated/todos/business&#45;logic/remove&#45;item.js -->
<g id="edge27" class="edge">
<title>separated/todos/presentations/isolate/src/controllers/remove.js&#45;&gt;separated/todos/business&#45;logic/remove&#45;item.js</title>
<path fill="none" stroke="#000000" stroke-width="2" stroke-opacity="0.200000" d="M217.03,-424.36C220.96,-389.27 236.06,-269.01 260.99,-241 261.85,-240.03 262.77,-239.13 263.75,-238.27"/>
<polygon fill="#000000" fill-opacity="0.200000" stroke="#000000" stroke-width="2" stroke-opacity="0.200000" points="265.39,-239.68 269,-234.45 262.91,-236.29 265.39,-239.68"/>
</g>
<!-- separated/todos/presentations/isolate/src/controllers/remove.js&#45;&gt;separated/todos/presentations/isolate/src/views/log&#45;list.js -->
<g id="edge28" class="edge">
<title>separated/todos/presentations/isolate/src/controllers/remove.js&#45;&gt;separated/todos/presentations/isolate/src/views/log&#45;list.js</title>
<path fill="none" stroke="#000000" stroke-width="2" stroke-opacity="0.200000" d="M240.82,-443.46C245,-445.41 249.21,-447.61 252.99,-450 267.56,-459.21 282.14,-472.38 292.23,-482.28"/>
<polygon fill="#000000" fill-opacity="0.200000" stroke="#000000" stroke-width="2" stroke-opacity="0.200000" points="290.8,-483.81 296.53,-486.56 293.76,-480.84 290.8,-483.81"/>
</g>
<!-- separated/todos/presentations/isolate/src/controllers/remove.js&#45;&gt;separated/todos/presentations/isolate/src/views/warning.js -->
<g id="edge29" class="edge">
<title>separated/todos/presentations/isolate/src/controllers/remove.js&#45;&gt;separated/todos/presentations/isolate/src/views/warning.js</title>
<path fill="none" stroke="#000000" stroke-width="2" stroke-opacity="0.200000" d="M242.66,-441.47C246.63,-443.64 250.29,-446.43 252.99,-450 269.46,-471.83 243.84,-489.7 260.99,-511 264.03,-514.78 268.04,-517.66 272.4,-519.87"/>
<polygon fill="#000000" fill-opacity="0.200000" stroke="#000000" stroke-width="2" stroke-opacity="0.200000" points="271.74,-521.87 278.08,-522.31 273.4,-518.01 271.74,-521.87"/>
</g>
<!-- separated/todos/presentations/isolate/src/controllers/show&#45;list.js&#45;&gt;separated/todos/business&#45;logic/all&#45;items.js -->
<g id="edge30" class="edge">
<title>separated/todos/presentations/isolate/src/controllers/show&#45;list.js&#45;&gt;separated/todos/business&#45;logic/all&#45;items.js</title>
<path fill="none" stroke="#000000" stroke-width="2" stroke-opacity="0.200000" d="M245.1,-456.42C248.17,-454.43 250.93,-452 252.99,-449 275.35,-416.59 237.63,-303.69 260.99,-272 263.67,-268.37 267.25,-265.56 271.23,-263.38"/>
<polygon fill="#000000" fill-opacity="0.200000" stroke="#000000" stroke-width="2" stroke-opacity="0.200000" points="272.27,-265.21 276.84,-260.79 270.51,-261.4 272.27,-265.21"/>
</g>
<!-- separated/todos/presentations/isolate/src/controllers/show&#45;list.js&#45;&gt;separated/todos/business&#45;logic/get&#45;title.js -->
<g id="edge31" class="edge">
<title>separated/todos/presentations/isolate/src/controllers/show&#45;list.js&#45;&gt;separated/todos/business&#45;logic/get&#45;title.js</title>
<path fill="none" stroke="#000000" stroke-width="2" stroke-opacity="0.200000" d="M245.07,-456.4C248.15,-454.42 250.91,-451.99 252.99,-449 271.57,-422.34 241.58,-329.06 260.99,-303 264.17,-298.74 268.58,-295.61 273.4,-293.32"/>
<polygon fill="#000000" fill-opacity="0.200000" stroke="#000000" stroke-width="2" stroke-opacity="0.200000" points="274.41,-295.17 279.19,-290.98 272.84,-291.28 274.41,-295.17"/>
</g>
<!-- separated/todos/presentations/isolate/src/controllers/show&#45;list.js&#45;&gt;separated/todos/presentations/isolate/src/views/log&#45;list.js -->
<g id="edge32" class="edge">
<title>separated/todos/presentations/isolate/src/controllers/show&#45;list.js&#45;&gt;separated/todos/presentations/isolate/src/views/log&#45;list.js</title>
<path fill="none" stroke="#000000" stroke-width="2" stroke-opacity="0.200000" d="M243.33,-474.47C252.87,-477.77 263.66,-481.51 273.54,-484.93"/>
<polygon fill="#000000" fill-opacity="0.200000" stroke="#000000" stroke-width="2" stroke-opacity="0.200000" points="272.88,-486.93 279.24,-486.91 274.26,-482.96 272.88,-486.93"/>
</g>
<!-- separated/todos/presentations/isolate/src/controllers/toggle.js&#45;&gt;separated/todos/business&#45;logic/all&#45;items.js -->
<g id="edge33" class="edge">
<title>separated/todos/presentations/isolate/src/controllers/toggle.js&#45;&gt;separated/todos/business&#45;logic/all&#45;items.js</title>
<path fill="none" stroke="#000000" stroke-width="2" stroke-opacity="0.200000" d="M242.21,-520.15C246.45,-517.91 250.31,-514.93 252.99,-511 267.95,-489.04 245.35,-293.48 260.99,-272 263.65,-268.35 267.22,-265.53 271.19,-263.35"/>
<polygon fill="#000000" fill-opacity="0.200000" stroke="#000000" stroke-width="2" stroke-opacity="0.200000" points="272.23,-265.18 276.8,-260.76 270.47,-261.37 272.23,-265.18"/>
</g>
<!-- separated/todos/presentations/isolate/src/controllers/toggle.js&#45;&gt;separated/todos/business&#45;logic/get&#45;title.js -->
<g id="edge34" class="edge">
<title>separated/todos/presentations/isolate/src/controllers/toggle.js&#45;&gt;separated/todos/business&#45;logic/get&#45;title.js</title>
<path fill="none" stroke="#000000" stroke-width="2" stroke-opacity="0.200000" d="M242.2,-520.14C246.43,-517.9 250.3,-514.93 252.99,-511 266.06,-491.92 247.33,-321.66 260.99,-303 264.13,-298.72 268.52,-295.57 273.34,-293.27"/>
<polygon fill="#000000" fill-opacity="0.200000" stroke="#000000" stroke-width="2" stroke-opacity="0.200000" points="274.35,-295.13 279.13,-290.94 272.78,-291.23 274.35,-295.13"/>
</g>
<!-- separated/todos/presentations/isolate/src/controllers/toggle.js&#45;&gt;separated/todos/business&#45;logic/update&#45;item.js -->
<g id="edge35" class="edge">
<title>separated/todos/presentations/isolate/src/controllers/toggle.js&#45;&gt;separated/todos/business&#45;logic/update&#45;item.js</title>
<path fill="none" stroke="#000000" stroke-width="2" stroke-opacity="0.200000" d="M242,-519.51C246.15,-517.33 250.04,-514.55 252.99,-511 263.19,-498.73 256.57,-491.33 260.99,-476 272.82,-434.99 290.43,-387.84 299.54,-364.2"/>
<polygon fill="#000000" fill-opacity="0.200000" stroke="#000000" stroke-width="2" stroke-opacity="0.200000" points="301.56,-364.79 301.77,-358.44 297.64,-363.28 301.56,-364.79"/>
</g>
<!-- separated/todos/presentations/isolate/src/controllers/toggle.js&#45;&gt;separated/todos/presentations/isolate/src/views/log&#45;list.js -->
<g id="edge36" class="edge">
<title>separated/todos/presentations/isolate/src/controllers/toggle.js&#45;&gt;separated/todos/presentations/isolate/src/views/log&#45;list.js</title>
<path fill="none" stroke="#000000" stroke-width="2" stroke-opacity="0.200000" d="M242.36,-517.87C252.1,-514.49 263.25,-510.63 273.44,-507.1"/>
<polygon fill="#000000" fill-opacity="0.200000" stroke="#000000" stroke-width="2" stroke-opacity="0.200000" points="274.33,-509.02 279.31,-505.07 272.95,-505.05 274.33,-509.02"/>
</g>
<!-- separated/todos/presentations/isolate/src/controllers/toggle.js&#45;&gt;separated/todos/presentations/isolate/src/views/warning.js -->
<g id="edge37" class="edge">
<title>separated/todos/presentations/isolate/src/controllers/toggle.js&#45;&gt;separated/todos/presentations/isolate/src/views/warning.js</title>
<path fill="none" stroke="#000000" stroke-width="2" stroke-opacity="0.200000" d="M242.36,-527C251.76,-527 262.46,-527 272.35,-527"/>
<polygon fill="#000000" fill-opacity="0.200000" stroke="#000000" stroke-width="2" stroke-opacity="0.200000" points="272.38,-529.1 278.38,-527 272.38,-524.9 272.38,-529.1"/>
</g>
<!-- separated/todos/presentations/isolate/src/views/log&#45;item.js -->
<g id="node21" class="node">
<title>separated/todos/presentations/isolate/src/views/log&#45;item.js</title>
<g id="a_node21"><a xlink:href="separated/todos/presentations/isolate/src/views/log-item.js" xlink:title="log&#45;item.js">
<path fill="#ffffcc" stroke="black" d="M428.28,-505.3C428.28,-505.3 383.69,-505.3 383.69,-505.3 380.59,-505.3 377.49,-502.2 377.49,-499.1 377.49,-499.1 377.49,-492.9 377.49,-492.9 377.49,-489.8 380.59,-486.7 383.69,-486.7 383.69,-486.7 428.28,-486.7 428.28,-486.7 431.38,-486.7 434.48,-489.8 434.48,-492.9 434.48,-492.9 434.48,-499.1 434.48,-499.1 434.48,-502.2 431.38,-505.3 428.28,-505.3"/>
<text text-anchor="middle" x="405.99" y="-493.3" font-family="Helvetica,sans-Serif" font-size="9.00">log&#45;item.js</text>
</a>
</g>
</g>
<!-- separated/todos/presentations/isolate/src/views/log&#45;list.js&#45;&gt;separated/todos/presentations/isolate/src/views/log&#45;item.js -->
<g id="edge41" class="edge">
<title>separated/todos/presentations/isolate/src/views/log&#45;list.js&#45;&gt;separated/todos/presentations/isolate/src/views/log&#45;item.js</title>
<path fill="none" stroke="#000000" stroke-width="2" stroke-opacity="0.200000" d="M333.62,-496C345.15,-496 358.84,-496 371.14,-496"/>
<polygon fill="#000000" fill-opacity="0.200000" stroke="#000000" stroke-width="2" stroke-opacity="0.200000" points="371.42,-498.1 377.42,-496 371.42,-493.9 371.42,-498.1"/>
</g>
<!-- separated/todos/presentations/isolate/src/init.js -->
<g id="node20" class="node">
<title>separated/todos/presentations/isolate/src/init.js</title>
<g id="a_node20"><a xlink:href="separated/todos/presentations/isolate/src/init.js" xlink:title="init.js">
<path fill="#ffffcc" stroke="black" d="M95.8,-505.3C95.8,-505.3 54.2,-505.3 54.2,-505.3 51.1,-505.3 48,-502.2 48,-499.1 48,-499.1 48,-492.9 48,-492.9 48,-489.8 51.1,-486.7 54.2,-486.7 54.2,-486.7 95.8,-486.7 95.8,-486.7 98.9,-486.7 102,-489.8 102,-492.9 102,-492.9 102,-499.1 102,-499.1 102,-502.2 98.9,-505.3 95.8,-505.3"/>
<text text-anchor="middle" x="75" y="-493.3" font-family="Helvetica,sans-Serif" font-size="9.00">init.js</text>
</a>
</g>
</g>
<!-- separated/todos/presentations/isolate/src/init.js&#45;&gt;data&#45;access/initialize.js -->
<g id="edge38" class="edge">
<title>separated/todos/presentations/isolate/src/init.js&#45;&gt;data&#45;access/initialize.js</title>
<path fill="none" stroke="#000000" stroke-width="2" stroke-opacity="0.200000" d="M79.15,-486.69C97.27,-434.4 193.44,-174.91 359.99,-41 363.45,-38.21 367.44,-35.89 371.58,-33.96"/>
<polygon fill="#000000" fill-opacity="0.200000" stroke="#000000" stroke-width="2" stroke-opacity="0.200000" points="372.56,-35.83 377.28,-31.57 370.94,-31.96 372.56,-35.83"/>
</g>
<!-- separated/todos/presentations/isolate/src/init.js&#45;&gt;separated/todos/data/todos.js -->
<g id="edge39" class="edge">
<title>separated/todos/presentations/isolate/src/init.js&#45;&gt;separated/todos/data/todos.js</title>
<path fill="none" stroke="#000000" stroke-width="2" stroke-opacity="0.200000" d="M84.32,-505.59C100.87,-524.36 139.56,-566.78 177,-597 252.3,-657.78 273.15,-672.28 359.99,-715 364.17,-717.06 368.69,-718.99 373.19,-720.74"/>
<polygon fill="#000000" fill-opacity="0.200000" stroke="#000000" stroke-width="2" stroke-opacity="0.200000" points="372.51,-722.72 378.86,-722.86 373.98,-718.79 372.51,-722.72"/>
</g>
<!-- separated/todos/presentations/isolate/src/init.js&#45;&gt;separated/todos/presentations/isolate/src/app.js -->
<g id="edge40" class="edge">
<title>separated/todos/presentations/isolate/src/init.js&#45;&gt;separated/todos/presentations/isolate/src/app.js</title>
<path fill="none" stroke="#000000" stroke-width="2" stroke-opacity="0.200000" d="M102.06,-496C104.32,-496 106.61,-496 108.9,-496"/>
<polygon fill="#000000" fill-opacity="0.200000" stroke="#000000" stroke-width="2" stroke-opacity="0.200000" points="108.93,-498.1 114.93,-496 108.93,-493.9 108.93,-498.1"/>
</g>
</g>
</svg>
