<?xml version="1.0" encoding="UTF-8" standalone="no"?>
<!DOCTYPE svg PUBLIC "-//W3C//DTD SVG 1.1//EN"
 "http://www.w3.org/Graphics/SVG/1.1/DTD/svg11.dtd">
<!-- Generated by graphviz version 2.44.0 (20200408.0750)
 -->
<!-- Title: dependency&#45;cruiser output Pages: 1 -->
<svg width="528pt" height="437pt"
 viewBox="0.00 0.00 528.03 437.00" xmlns="http://www.w3.org/2000/svg" xmlns:xlink="http://www.w3.org/1999/xlink">
<g id="graph0" class="graph" transform="scale(1 1) rotate(0) translate(4 433)">
<title>dependency&#45;cruiser output</title>
<polygon fill="white" stroke="transparent" points="-4,4 -4,-433 524.03,-433 524.03,4 -4,4"/>
<g id="clust1" class="cluster">
<title>cluster_data&#45;access</title>
<path fill="#ffffff" stroke="black" stroke-width="2" d="M447.02,-236C447.02,-236 500.03,-236 500.03,-236 506.03,-236 512.03,-242 512.03,-248 512.03,-248 512.03,-339 512.03,-339 512.03,-345 506.03,-351 500.03,-351 500.03,-351 447.02,-351 447.02,-351 441.02,-351 435.02,-345 435.02,-339 435.02,-339 435.02,-248 435.02,-248 435.02,-242 441.02,-236 447.02,-236"/>
<text text-anchor="middle" x="473.52" y="-338.9" font-family="Helvetica,sans-Serif" font-weight="bold" font-size="9.00">data&#45;access</text>
</g>
<g id="clust2" class="cluster">
<title>cluster_example&#45;apps</title>
<path fill="#ffffff" stroke="black" stroke-width="2" d="M20,-8C20,-8 415.02,-8 415.02,-8 421.02,-8 427.02,-14 427.02,-20 427.02,-20 427.02,-409 427.02,-409 427.02,-415 421.02,-421 415.02,-421 415.02,-421 20,-421 20,-421 14,-421 8,-415 8,-409 8,-409 8,-20 8,-20 8,-14 14,-8 20,-8"/>
<text text-anchor="middle" x="217.51" y="-408.9" font-family="Helvetica,sans-Serif" font-weight="bold" font-size="9.00">example&#45;apps</text>
</g>
<g id="clust3" class="cluster">
<title>cluster_example&#45;apps/welcome</title>
<path fill="#ffffff" stroke="black" stroke-width="2" d="M28,-16C28,-16 407.02,-16 407.02,-16 413.02,-16 419.02,-22 419.02,-28 419.02,-28 419.02,-382 419.02,-382 419.02,-388 413.02,-394 407.02,-394 407.02,-394 28,-394 28,-394 22,-394 16,-388 16,-382 16,-382 16,-28 16,-28 16,-22 22,-16 28,-16"/>
<text text-anchor="middle" x="217.51" y="-381.9" font-family="Helvetica,sans-Serif" font-weight="bold" font-size="9.00">welcome</text>
</g>
<g id="clust4" class="cluster">
<title>cluster_example&#45;apps/welcome/business&#45;logic</title>
<path fill="#ffffff" stroke="black" stroke-width="2" d="M303.01,-252C303.01,-252 387.03,-252 387.03,-252 393.03,-252 399.03,-258 399.03,-264 399.03,-264 399.03,-355 399.03,-355 399.03,-361 393.03,-367 387.03,-367 387.03,-367 303.01,-367 303.01,-367 297.01,-367 291.01,-361 291.01,-355 291.01,-355 291.01,-264 291.01,-264 291.01,-258 297.01,-252 303.01,-252"/>
<text text-anchor="middle" x="345.02" y="-354.9" font-family="Helvetica,sans-Serif" font-weight="bold" font-size="9.00">business&#45;logic</text>
</g>
<g id="clust5" class="cluster">
<title>cluster_example&#45;apps/welcome/data</title>
<path fill="#ffffff" stroke="black" stroke-width="2" d="M122,-252C122,-252 168,-252 168,-252 174,-252 180,-258 180,-264 180,-264 180,-293 180,-293 180,-299 174,-305 168,-305 168,-305 122,-305 122,-305 116,-305 110,-299 110,-293 110,-293 110,-264 110,-264 110,-258 116,-252 122,-252"/>
<text text-anchor="middle" x="145" y="-292.9" font-family="Helvetica,sans-Serif" font-weight="bold" font-size="9.00">data</text>
</g>
<g id="clust6" class="cluster">
<title>cluster_example&#45;apps/welcome/presentations</title>
<path fill="#ffffff" stroke="black" stroke-width="2" d="M36,-24C36,-24 399.02,-24 399.02,-24 405.02,-24 411.02,-30 411.02,-36 411.02,-36 411.02,-232 411.02,-232 411.02,-238 405.02,-244 399.02,-244 399.02,-244 36,-244 36,-244 30,-244 24,-238 24,-232 24,-232 24,-36 24,-36 24,-30 30,-24 36,-24"/>
<text text-anchor="middle" x="217.51" y="-231.9" font-family="Helvetica,sans-Serif" font-weight="bold" font-size="9.00">presentations</text>
</g>
<g id="clust7" class="cluster">
<title>cluster_example&#45;apps/welcome/presentations/isolate</title>
<path fill="#ffffff" stroke="black" stroke-width="2" d="M44,-32C44,-32 391.02,-32 391.02,-32 397.02,-32 403.02,-38 403.02,-44 403.02,-44 403.02,-205 403.02,-205 403.02,-211 397.02,-217 391.02,-217 391.02,-217 44,-217 44,-217 38,-217 32,-211 32,-205 32,-205 32,-44 32,-44 32,-38 38,-32 44,-32"/>
<text text-anchor="middle" x="217.51" y="-204.9" font-family="Helvetica,sans-Serif" font-weight="bold" font-size="9.00">isolate</text>
</g>
<g id="clust8" class="cluster">
<title>cluster_example&#45;apps/welcome/presentations/isolate/src</title>
<path fill="#ffffff" stroke="black" stroke-width="2" d="M52,-40C52,-40 383.02,-40 383.02,-40 389.02,-40 395.02,-46 395.02,-52 395.02,-52 395.02,-178 395.02,-178 395.02,-184 389.02,-190 383.02,-190 383.02,-190 52,-190 52,-190 46,-190 40,-184 40,-178 40,-178 40,-52 40,-52 40,-46 46,-40 52,-40"/>
<text text-anchor="middle" x="217.51" y="-177.9" font-family="Helvetica,sans-Serif" font-weight="bold" font-size="9.00">src</text>
</g>
<g id="clust9" class="cluster">
<title>cluster_example&#45;apps/welcome/presentations/isolate/src/controllers</title>
<path fill="#ffffff" stroke="black" stroke-width="2" d="M200,-48C200,-48 271.01,-48 271.01,-48 277.01,-48 283.01,-54 283.01,-60 283.01,-60 283.01,-151 283.01,-151 283.01,-157 277.01,-163 271.01,-163 271.01,-163 200,-163 200,-163 194,-163 188,-157 188,-151 188,-151 188,-60 188,-60 188,-54 194,-48 200,-48"/>
<text text-anchor="middle" x="235.5" y="-150.9" font-family="Helvetica,sans-Serif" font-weight="bold" font-size="9.00">controllers</text>
</g>
<g id="clust10" class="cluster">
<title>cluster_example&#45;apps/welcome/presentations/isolate/src/views</title>
<path fill="#ffffff" stroke="black" stroke-width="2" d="M315.02,-48C315.02,-48 375.02,-48 375.02,-48 381.02,-48 387.02,-54 387.02,-60 387.02,-60 387.02,-151 387.02,-151 387.02,-157 381.02,-163 375.02,-163 375.02,-163 315.02,-163 315.02,-163 309.02,-163 303.02,-157 303.02,-151 303.02,-151 303.02,-60 303.02,-60 303.02,-54 309.02,-48 315.02,-48"/>
<text text-anchor="middle" x="345.02" y="-150.9" font-family="Helvetica,sans-Serif" font-weight="bold" font-size="9.00">views</text>
</g>
<!-- data&#45;access/initialize.js -->
<g id="node1" class="node">
<title>data&#45;access/initialize.js</title>
<g id="a_node1"><a xlink:href="data-access/initialize.js" xlink:title="initialize.js">
<polygon fill="#ffffcc" stroke="black" points="502.02,-262.3 500.46,-264.37 489.61,-264.37 488.06,-262.3 445.03,-262.3 445.03,-243.7 502.02,-243.7 502.02,-262.3"/>
<text text-anchor="middle" x="473.52" y="-250.3" font-family="Helvetica,sans-Serif" font-size="9.00">initialize.js</text>
</a>
</g>
</g>
<!-- data&#45;access/read&#45;one.js -->
<g id="node2" class="node">
<title>data&#45;access/read&#45;one.js</title>
<g id="a_node2"><a xlink:href="data-access/read-one.js" xlink:title="read&#45;one.js">
<polygon fill="#ffffcc" stroke="black" points="504.03,-324.3 502.48,-326.37 491.63,-326.37 490.08,-324.3 443.01,-324.3 443.01,-305.7 504.03,-305.7 504.03,-324.3"/>
<text text-anchor="middle" x="473.52" y="-312.3" font-family="Helvetica,sans-Serif" font-size="9.00">read&#45;one.js</text>
</a>
</g>
</g>
<!-- data&#45;access/update.js -->
<g id="node3" class="node">
<title>data&#45;access/update.js</title>
<g id="a_node3"><a xlink:href="data-access/update.js" xlink:title="update.js">
<polygon fill="#ffffcc" stroke="black" points="500.52,-293.3 498.97,-295.37 488.12,-295.37 486.57,-293.3 446.52,-293.3 446.52,-274.7 500.52,-274.7 500.52,-293.3"/>
<text text-anchor="middle" x="473.52" y="-281.3" font-family="Helvetica,sans-Serif" font-size="9.00">update.js</text>
</a>
</g>
</g>
<!-- example&#45;apps/welcome/business&#45;logic/be&#45;welcoming.js -->
<g id="node4" class="node">
<title>example&#45;apps/welcome/business&#45;logic/be&#45;welcoming.js</title>
<g id="a_node4"><a xlink:href="example-apps/welcome/business-logic/be-welcoming.js" xlink:title="be&#45;welcoming.js">
<path fill="#ffffcc" stroke="black" d="M378.82,-340.3C378.82,-340.3 311.22,-340.3 311.22,-340.3 308.12,-340.3 305.02,-337.2 305.02,-334.1 305.02,-334.1 305.02,-327.9 305.02,-327.9 305.02,-324.8 308.12,-321.7 311.22,-321.7 311.22,-321.7 378.82,-321.7 378.82,-321.7 381.92,-321.7 385.02,-324.8 385.02,-327.9 385.02,-327.9 385.02,-334.1 385.02,-334.1 385.02,-337.2 381.92,-340.3 378.82,-340.3"/>
<text text-anchor="middle" x="345.02" y="-328.3" font-family="Helvetica,sans-Serif" font-size="9.00">be&#45;welcoming.js</text>
</a>
</g>
</g>
<!-- example&#45;apps/welcome/business&#45;logic/be&#45;welcoming.js&#45;&gt;data&#45;access/read&#45;one.js -->
<g id="edge1" class="edge">
<title>example&#45;apps/welcome/business&#45;logic/be&#45;welcoming.js&#45;&gt;data&#45;access/read&#45;one.js</title>
<path fill="none" stroke="#000000" stroke-width="2" stroke-opacity="0.200000" d="M385.35,-326.03C401.74,-323.95 420.65,-321.56 436.65,-319.54"/>
<polygon fill="#000000" fill-opacity="0.200000" stroke="#000000" stroke-width="2" stroke-opacity="0.200000" points="437.17,-321.59 442.86,-318.75 436.65,-317.42 437.17,-321.59"/>
</g>
<!-- example&#45;apps/welcome/business&#45;logic/update&#45;greeting.js -->
<g id="node5" class="node">
<title>example&#45;apps/welcome/business&#45;logic/update&#45;greeting.js</title>
<g id="a_node5"><a xlink:href="example-apps/welcome/business-logic/update-greeting.js" xlink:title="update&#45;greeting.js">
<path fill="#ffffcc" stroke="black" d="M382.84,-309.3C382.84,-309.3 307.2,-309.3 307.2,-309.3 304.1,-309.3 301,-306.2 301,-303.1 301,-303.1 301,-296.9 301,-296.9 301,-293.8 304.1,-290.7 307.2,-290.7 307.2,-290.7 382.84,-290.7 382.84,-290.7 385.94,-290.7 389.04,-293.8 389.04,-296.9 389.04,-296.9 389.04,-303.1 389.04,-303.1 389.04,-306.2 385.94,-309.3 382.84,-309.3"/>
<text text-anchor="middle" x="345.02" y="-297.3" font-family="Helvetica,sans-Serif" font-size="9.00">update&#45;greeting.js</text>
</a>
</g>
</g>
<!-- example&#45;apps/welcome/business&#45;logic/update&#45;greeting.js&#45;&gt;data&#45;access/update.js -->
<g id="edge2" class="edge">
<title>example&#45;apps/welcome/business&#45;logic/update&#45;greeting.js&#45;&gt;data&#45;access/update.js</title>
<path fill="none" stroke="#000000" stroke-width="2" stroke-opacity="0.200000" d="M389.2,-294.54C406.01,-292.41 424.92,-290.02 440.48,-288.05"/>
<polygon fill="#000000" fill-opacity="0.200000" stroke="#000000" stroke-width="2" stroke-opacity="0.200000" points="440.8,-290.13 446.49,-287.29 440.27,-285.96 440.8,-290.13"/>
</g>
<!-- example&#45;apps/welcome/business&#45;logic/update&#45;message.js -->
<g id="node6" class="node">
<title>example&#45;apps/welcome/business&#45;logic/update&#45;message.js</title>
<g id="a_node6"><a xlink:href="example-apps/welcome/business-logic/update-message.js" xlink:title="update&#45;message.js">
<path fill="#ffffcc" stroke="black" d="M384.84,-278.3C384.84,-278.3 305.2,-278.3 305.2,-278.3 302.1,-278.3 299,-275.2 299,-272.1 299,-272.1 299,-265.9 299,-265.9 299,-262.8 302.1,-259.7 305.2,-259.7 305.2,-259.7 384.84,-259.7 384.84,-259.7 387.94,-259.7 391.04,-262.8 391.04,-265.9 391.04,-265.9 391.04,-272.1 391.04,-272.1 391.04,-275.2 387.94,-278.3 384.84,-278.3"/>
<text text-anchor="middle" x="345.02" y="-266.3" font-family="Helvetica,sans-Serif" font-size="9.00">update&#45;message.js</text>
</a>
</g>
</g>
<!-- example&#45;apps/welcome/business&#45;logic/update&#45;message.js&#45;&gt;data&#45;access/update.js -->
<g id="edge3" class="edge">
<title>example&#45;apps/welcome/business&#45;logic/update&#45;message.js&#45;&gt;data&#45;access/update.js</title>
<path fill="none" stroke="#000000" stroke-width="2" stroke-opacity="0.200000" d="M391.33,-274.37C407.46,-276.29 425.28,-278.4 440.11,-280.16"/>
<polygon fill="#000000" fill-opacity="0.200000" stroke="#000000" stroke-width="2" stroke-opacity="0.200000" points="440.07,-282.27 446.27,-280.89 440.56,-278.1 440.07,-282.27"/>
</g>
<!-- example&#45;apps/welcome/data/friendly.js -->
<g id="node7" class="node">
<title>example&#45;apps/welcome/data/friendly.js</title>
<g id="a_node7"><a xlink:href="example-apps/welcome/data/friendly.js" xlink:title="friendly.js">
<path fill="#ffffcc" stroke="black" d="M165.8,-278.3C165.8,-278.3 124.2,-278.3 124.2,-278.3 121.1,-278.3 118,-275.2 118,-272.1 118,-272.1 118,-265.9 118,-265.9 118,-262.8 121.1,-259.7 124.2,-259.7 124.2,-259.7 165.8,-259.7 165.8,-259.7 168.9,-259.7 172,-262.8 172,-265.9 172,-265.9 172,-272.1 172,-272.1 172,-275.2 168.9,-278.3 165.8,-278.3"/>
<text text-anchor="middle" x="145" y="-266.3" font-family="Helvetica,sans-Serif" font-size="9.00">friendly.js</text>
</a>
</g>
</g>
<!-- example&#45;apps/welcome/presentations/isolate/src/app.js -->
<g id="node8" class="node">
<title>example&#45;apps/welcome/presentations/isolate/src/app.js</title>
<g id="a_node8"><a xlink:href="example-apps/welcome/presentations/isolate/src/app.js" xlink:title="app.js">
<path fill="#ffffcc" stroke="black" d="M165.8,-105.3C165.8,-105.3 124.2,-105.3 124.2,-105.3 121.1,-105.3 118,-102.2 118,-99.1 118,-99.1 118,-92.9 118,-92.9 118,-89.8 121.1,-86.7 124.2,-86.7 124.2,-86.7 165.8,-86.7 165.8,-86.7 168.9,-86.7 172,-89.8 172,-92.9 172,-92.9 172,-99.1 172,-99.1 172,-102.2 168.9,-105.3 165.8,-105.3"/>
<text text-anchor="middle" x="145" y="-93.3" font-family="Helvetica,sans-Serif" font-size="9.00">app.js</text>
</a>
</g>
</g>
<!-- example&#45;apps/welcome/presentations/isolate/src/controllers/edit&#45;greeting.js -->
<g id="node9" class="node">
<title>example&#45;apps/welcome/presentations/isolate/src/controllers/edit&#45;greeting.js</title>
<g id="a_node9"><a xlink:href="example-apps/welcome/presentations/isolate/src/controllers/edit-greeting.js" xlink:title="edit&#45;greeting.js">
<path fill="#ffffcc" stroke="black" d="M266.81,-105.3C266.81,-105.3 204.2,-105.3 204.2,-105.3 201.1,-105.3 198,-102.2 198,-99.1 198,-99.1 198,-92.9 198,-92.9 198,-89.8 201.1,-86.7 204.2,-86.7 204.2,-86.7 266.81,-86.7 266.81,-86.7 269.91,-86.7 273.01,-89.8 273.01,-92.9 273.01,-92.9 273.01,-99.1 273.01,-99.1 273.01,-102.2 269.91,-105.3 266.81,-105.3"/>
<text text-anchor="middle" x="235.5" y="-93.3" font-family="Helvetica,sans-Serif" font-size="9.00">edit&#45;greeting.js</text>
</a>
</g>
</g>
<!-- example&#45;apps/welcome/presentations/isolate/src/app.js&#45;&gt;example&#45;apps/welcome/presentations/isolate/src/controllers/edit&#45;greeting.js -->
<g id="edge4" class="edge">
<title>example&#45;apps/welcome/presentations/isolate/src/app.js&#45;&gt;example&#45;apps/welcome/presentations/isolate/src/controllers/edit&#45;greeting.js</title>
<path fill="none" stroke="#000000" stroke-width="2" stroke-opacity="0.200000" d="M172.08,-96C178.24,-96 184.98,-96 191.68,-96"/>
<polygon fill="#000000" fill-opacity="0.200000" stroke="#000000" stroke-width="2" stroke-opacity="0.200000" points="191.8,-98.1 197.79,-96 191.79,-93.9 191.8,-98.1"/>
</g>
<!-- example&#45;apps/welcome/presentations/isolate/src/controllers/edit&#45;message.js -->
<g id="node10" class="node">
<title>example&#45;apps/welcome/presentations/isolate/src/controllers/edit&#45;message.js</title>
<g id="a_node10"><a xlink:href="example-apps/welcome/presentations/isolate/src/controllers/edit-message.js" xlink:title="edit&#45;message.js">
<path fill="#ffffcc" stroke="black" d="M268.81,-74.3C268.81,-74.3 202.2,-74.3 202.2,-74.3 199.1,-74.3 196,-71.2 196,-68.1 196,-68.1 196,-61.9 196,-61.9 196,-58.8 199.1,-55.7 202.2,-55.7 202.2,-55.7 268.81,-55.7 268.81,-55.7 271.91,-55.7 275.01,-58.8 275.01,-61.9 275.01,-61.9 275.01,-68.1 275.01,-68.1 275.01,-71.2 271.91,-74.3 268.81,-74.3"/>
<text text-anchor="middle" x="235.5" y="-62.3" font-family="Helvetica,sans-Serif" font-size="9.00">edit&#45;message.js</text>
</a>
</g>
</g>
<!-- example&#45;apps/welcome/presentations/isolate/src/app.js&#45;&gt;example&#45;apps/welcome/presentations/isolate/src/controllers/edit&#45;message.js -->
<g id="edge5" class="edge">
<title>example&#45;apps/welcome/presentations/isolate/src/app.js&#45;&gt;example&#45;apps/welcome/presentations/isolate/src/controllers/edit&#45;message.js</title>
<path fill="none" stroke="#000000" stroke-width="2" stroke-opacity="0.200000" d="M172.2,-86.59C177.43,-84.73 182.89,-82.79 188,-81 192.21,-79.52 196.64,-77.98 201.02,-76.47"/>
<polygon fill="#000000" fill-opacity="0.200000" stroke="#000000" stroke-width="2" stroke-opacity="0.200000" points="201.96,-78.37 206.94,-74.42 200.59,-74.4 201.96,-78.37"/>
</g>
<!-- example&#45;apps/welcome/presentations/isolate/src/controllers/welcome.js -->
<g id="node11" class="node">
<title>example&#45;apps/welcome/presentations/isolate/src/controllers/welcome.js</title>
<g id="a_node11"><a xlink:href="example-apps/welcome/presentations/isolate/src/controllers/welcome.js" xlink:title="welcome.js">
<path fill="#ffffcc" stroke="black" d="M259.8,-136.3C259.8,-136.3 211.2,-136.3 211.2,-136.3 208.1,-136.3 205,-133.2 205,-130.1 205,-130.1 205,-123.9 205,-123.9 205,-120.8 208.1,-117.7 211.2,-117.7 211.2,-117.7 259.8,-117.7 259.8,-117.7 262.9,-117.7 266,-120.8 266,-123.9 266,-123.9 266,-130.1 266,-130.1 266,-133.2 262.9,-136.3 259.8,-136.3"/>
<text text-anchor="middle" x="235.5" y="-124.3" font-family="Helvetica,sans-Serif" font-size="9.00">welcome.js</text>
</a>
</g>
</g>
<!-- example&#45;apps/welcome/presentations/isolate/src/app.js&#45;&gt;example&#45;apps/welcome/presentations/isolate/src/controllers/welcome.js -->
<g id="edge6" class="edge">
<title>example&#45;apps/welcome/presentations/isolate/src/app.js&#45;&gt;example&#45;apps/welcome/presentations/isolate/src/controllers/welcome.js</title>
<path fill="none" stroke="#000000" stroke-width="2" stroke-opacity="0.200000" d="M172.2,-105.41C177.43,-107.27 182.89,-109.21 188,-111 192.21,-112.48 196.64,-114.02 201.02,-115.53"/>
<polygon fill="#000000" fill-opacity="0.200000" stroke="#000000" stroke-width="2" stroke-opacity="0.200000" points="200.59,-117.6 206.94,-117.58 201.96,-113.63 200.59,-117.6"/>
</g>
<!-- example&#45;apps/welcome/presentations/isolate/src/controllers/edit&#45;greeting.js&#45;&gt;example&#45;apps/welcome/business&#45;logic/update&#45;greeting.js -->
<g id="edge7" class="edge">
<title>example&#45;apps/welcome/presentations/isolate/src/controllers/edit&#45;greeting.js&#45;&gt;example&#45;apps/welcome/business&#45;logic/update&#45;greeting.js</title>
<path fill="none" stroke="#000000" stroke-width="2" stroke-opacity="0.200000" d="M273.41,-103.77C277.11,-105.89 280.45,-108.58 283.01,-112 305.95,-142.62 267.48,-253.82 291.01,-284 292.31,-285.67 293.78,-287.17 295.37,-288.52"/>
<polygon fill="#000000" fill-opacity="0.200000" stroke="#000000" stroke-width="2" stroke-opacity="0.200000" points="294.4,-290.4 300.52,-292.12 296.81,-286.96 294.4,-290.4"/>
</g>
<!-- example&#45;apps/welcome/presentations/isolate/src/views/info.js -->
<g id="node12" class="node">
<title>example&#45;apps/welcome/presentations/isolate/src/views/info.js</title>
<g id="a_node12"><a xlink:href="example-apps/welcome/presentations/isolate/src/views/info.js" xlink:title="info.js">
<path fill="#ffffcc" stroke="black" d="M365.82,-74.3C365.82,-74.3 324.22,-74.3 324.22,-74.3 321.12,-74.3 318.02,-71.2 318.02,-68.1 318.02,-68.1 318.02,-61.9 318.02,-61.9 318.02,-58.8 321.12,-55.7 324.22,-55.7 324.22,-55.7 365.82,-55.7 365.82,-55.7 368.92,-55.7 372.02,-58.8 372.02,-61.9 372.02,-61.9 372.02,-68.1 372.02,-68.1 372.02,-71.2 368.92,-74.3 365.82,-74.3"/>
<text text-anchor="middle" x="345.02" y="-62.3" font-family="Helvetica,sans-Serif" font-size="9.00">info.js</text>
</a>
</g>
</g>
<!-- example&#45;apps/welcome/presentations/isolate/src/controllers/edit&#45;greeting.js&#45;&gt;example&#45;apps/welcome/presentations/isolate/src/views/info.js -->
<g id="edge8" class="edge">
<title>example&#45;apps/welcome/presentations/isolate/src/controllers/edit&#45;greeting.js&#45;&gt;example&#45;apps/welcome/presentations/isolate/src/views/info.js</title>
<path fill="none" stroke="#000000" stroke-width="2" stroke-opacity="0.200000" d="M269.05,-86.61C282.56,-82.72 298.19,-78.21 311.68,-74.32"/>
<polygon fill="#000000" fill-opacity="0.200000" stroke="#000000" stroke-width="2" stroke-opacity="0.200000" points="312.52,-76.27 317.71,-72.59 311.36,-72.23 312.52,-76.27"/>
</g>
<!-- example&#45;apps/welcome/presentations/isolate/src/views/warning.js -->
<g id="node13" class="node">
<title>example&#45;apps/welcome/presentations/isolate/src/views/warning.js</title>
<g id="a_node13"><a xlink:href="example-apps/welcome/presentations/isolate/src/views/warning.js" xlink:title="warning.js">
<path fill="#ffffcc" stroke="black" d="M366.82,-105.3C366.82,-105.3 323.21,-105.3 323.21,-105.3 320.11,-105.3 317.01,-102.2 317.01,-99.1 317.01,-99.1 317.01,-92.9 317.01,-92.9 317.01,-89.8 320.11,-86.7 323.21,-86.7 323.21,-86.7 366.82,-86.7 366.82,-86.7 369.92,-86.7 373.02,-89.8 373.02,-92.9 373.02,-92.9 373.02,-99.1 373.02,-99.1 373.02,-102.2 369.92,-105.3 366.82,-105.3"/>
<text text-anchor="middle" x="345.02" y="-93.3" font-family="Helvetica,sans-Serif" font-size="9.00">warning.js</text>
</a>
</g>
</g>
<!-- example&#45;apps/welcome/presentations/isolate/src/controllers/edit&#45;greeting.js&#45;&gt;example&#45;apps/welcome/presentations/isolate/src/views/warning.js -->
<g id="edge9" class="edge">
<title>example&#45;apps/welcome/presentations/isolate/src/controllers/edit&#45;greeting.js&#45;&gt;example&#45;apps/welcome/presentations/isolate/src/views/warning.js</title>
<path fill="none" stroke="#000000" stroke-width="2" stroke-opacity="0.200000" d="M273.2,-96C285.43,-96 298.97,-96 310.9,-96"/>
<polygon fill="#000000" fill-opacity="0.200000" stroke="#000000" stroke-width="2" stroke-opacity="0.200000" points="310.98,-98.1 316.98,-96 310.98,-93.9 310.98,-98.1"/>
</g>
<!-- example&#45;apps/welcome/presentations/isolate/src/controllers/edit&#45;message.js&#45;&gt;example&#45;apps/welcome/business&#45;logic/update&#45;message.js -->
<g id="edge10" class="edge">
<title>example&#45;apps/welcome/presentations/isolate/src/controllers/edit&#45;message.js&#45;&gt;example&#45;apps/welcome/business&#45;logic/update&#45;message.js</title>
<path fill="none" stroke="#000000" stroke-width="2" stroke-opacity="0.200000" d="M275.01,-73.94C278.05,-75.86 280.79,-78.18 283.01,-81 294.74,-95.91 285.68,-147.79 291.01,-166 300.78,-199.41 321.57,-234.73 334.01,-254.1"/>
<polygon fill="#000000" fill-opacity="0.200000" stroke="#000000" stroke-width="2" stroke-opacity="0.200000" points="332.55,-255.7 337.59,-259.58 336.07,-253.41 332.55,-255.7"/>
</g>
<!-- example&#45;apps/welcome/presentations/isolate/src/controllers/edit&#45;message.js&#45;&gt;example&#45;apps/welcome/presentations/isolate/src/views/info.js -->
<g id="edge11" class="edge">
<title>example&#45;apps/welcome/presentations/isolate/src/controllers/edit&#45;message.js&#45;&gt;example&#45;apps/welcome/presentations/isolate/src/views/info.js</title>
<path fill="none" stroke="#000000" stroke-width="2" stroke-opacity="0.200000" d="M275.01,-65C287.01,-65 300.12,-65 311.65,-65"/>
<polygon fill="#000000" fill-opacity="0.200000" stroke="#000000" stroke-width="2" stroke-opacity="0.200000" points="311.88,-67.1 317.88,-65 311.88,-62.9 311.88,-67.1"/>
</g>
<!-- example&#45;apps/welcome/presentations/isolate/src/controllers/edit&#45;message.js&#45;&gt;example&#45;apps/welcome/presentations/isolate/src/views/warning.js -->
<g id="edge12" class="edge">
<title>example&#45;apps/welcome/presentations/isolate/src/controllers/edit&#45;message.js&#45;&gt;example&#45;apps/welcome/presentations/isolate/src/views/warning.js</title>
<path fill="none" stroke="#000000" stroke-width="2" stroke-opacity="0.200000" d="M269.05,-74.39C282.34,-78.22 297.7,-82.64 311.03,-86.49"/>
<polygon fill="#000000" fill-opacity="0.200000" stroke="#000000" stroke-width="2" stroke-opacity="0.200000" points="310.66,-88.57 317,-88.21 311.82,-84.53 310.66,-88.57"/>
</g>
<!-- example&#45;apps/welcome/presentations/isolate/src/controllers/welcome.js&#45;&gt;example&#45;apps/welcome/business&#45;logic/be&#45;welcoming.js -->
<g id="edge13" class="edge">
<title>example&#45;apps/welcome/presentations/isolate/src/controllers/welcome.js&#45;&gt;example&#45;apps/welcome/business&#45;logic/be&#45;welcoming.js</title>
<path fill="none" stroke="#000000" stroke-width="2" stroke-opacity="0.200000" d="M236.29,-136.35C236.14,-166.66 239.87,-263.3 291.01,-315 293.46,-317.48 296.28,-319.57 299.31,-321.35"/>
<polygon fill="#000000" fill-opacity="0.200000" stroke="#000000" stroke-width="2" stroke-opacity="0.200000" points="298.67,-323.38 304.97,-324.21 300.56,-319.63 298.67,-323.38"/>
</g>
<!-- example&#45;apps/welcome/presentations/isolate/src/views/pretty&#45;print.js -->
<g id="node14" class="node">
<title>example&#45;apps/welcome/presentations/isolate/src/views/pretty&#45;print.js</title>
<g id="a_node14"><a xlink:href="example-apps/welcome/presentations/isolate/src/views/pretty-print.js" xlink:title="pretty&#45;print.js">
<path fill="#ffffcc" stroke="black" d="M372.82,-136.3C372.82,-136.3 317.22,-136.3 317.22,-136.3 314.12,-136.3 311.02,-133.2 311.02,-130.1 311.02,-130.1 311.02,-123.9 311.02,-123.9 311.02,-120.8 314.12,-117.7 317.22,-117.7 317.22,-117.7 372.82,-117.7 372.82,-117.7 375.92,-117.7 379.02,-120.8 379.02,-123.9 379.02,-123.9 379.02,-130.1 379.02,-130.1 379.02,-133.2 375.92,-136.3 372.82,-136.3"/>
<text text-anchor="middle" x="345.02" y="-124.3" font-family="Helvetica,sans-Serif" font-size="9.00">pretty&#45;print.js</text>
</a>
</g>
</g>
<!-- example&#45;apps/welcome/presentations/isolate/src/controllers/welcome.js&#45;&gt;example&#45;apps/welcome/presentations/isolate/src/views/pretty&#45;print.js -->
<g id="edge14" class="edge">
<title>example&#45;apps/welcome/presentations/isolate/src/controllers/welcome.js&#45;&gt;example&#45;apps/welcome/presentations/isolate/src/views/pretty&#45;print.js</title>
<path fill="none" stroke="#000000" stroke-width="2" stroke-opacity="0.200000" d="M265.88,-127C277.85,-127 291.86,-127 304.69,-127"/>
<polygon fill="#000000" fill-opacity="0.200000" stroke="#000000" stroke-width="2" stroke-opacity="0.200000" points="304.88,-129.1 310.88,-127 304.88,-124.9 304.88,-129.1"/>
</g>
<!-- example&#45;apps/welcome/presentations/isolate/src/init.js -->
<g id="node15" class="node">
<title>example&#45;apps/welcome/presentations/isolate/src/init.js</title>
<g id="a_node15"><a xlink:href="example-apps/welcome/presentations/isolate/src/init.js" xlink:title="init.js">
<path fill="#ffffcc" stroke="black" d="M95.8,-105.3C95.8,-105.3 54.2,-105.3 54.2,-105.3 51.1,-105.3 48,-102.2 48,-99.1 48,-99.1 48,-92.9 48,-92.9 48,-89.8 51.1,-86.7 54.2,-86.7 54.2,-86.7 95.8,-86.7 95.8,-86.7 98.9,-86.7 102,-89.8 102,-92.9 102,-92.9 102,-99.1 102,-99.1 102,-102.2 98.9,-105.3 95.8,-105.3"/>
<text text-anchor="middle" x="75" y="-93.3" font-family="Helvetica,sans-Serif" font-size="9.00">init.js</text>
</a>
</g>
</g>
<!-- example&#45;apps/welcome/presentations/isolate/src/init.js&#45;&gt;data&#45;access/initialize.js -->
<g id="edge15" class="edge">
<title>example&#45;apps/welcome/presentations/isolate/src/init.js&#45;&gt;data&#45;access/initialize.js</title>
<path fill="none" stroke="#000000" stroke-width="2" stroke-opacity="0.200000" d="M91.44,-86.55C144.74,-55.24 323.4,38.4 427.02,-45 457.15,-69.25 468.42,-192.83 471.54,-237.15"/>
<polygon fill="#000000" fill-opacity="0.200000" stroke="#000000" stroke-width="2" stroke-opacity="0.200000" points="469.45,-237.48 471.95,-243.33 473.65,-237.2 469.45,-237.48"/>
</g>
<!-- example&#45;apps/welcome/presentations/isolate/src/init.js&#45;&gt;example&#45;apps/welcome/data/friendly.js -->
<g id="edge16" class="edge">
<title>example&#45;apps/welcome/presentations/isolate/src/init.js&#45;&gt;example&#45;apps/welcome/data/friendly.js</title>
<path fill="none" stroke="#000000" stroke-width="2" stroke-opacity="0.200000" d="M79.02,-105.46C84.67,-122.92 97.39,-161.33 110,-193 118.5,-214.34 129.55,-238.47 136.7,-253.7"/>
<polygon fill="#000000" fill-opacity="0.200000" stroke="#000000" stroke-width="2" stroke-opacity="0.200000" points="134.87,-254.75 139.33,-259.27 138.67,-252.95 134.87,-254.75"/>
</g>
<!-- example&#45;apps/welcome/presentations/isolate/src/init.js&#45;&gt;example&#45;apps/welcome/presentations/isolate/src/app.js -->
<g id="edge17" class="edge">
<title>example&#45;apps/welcome/presentations/isolate/src/init.js&#45;&gt;example&#45;apps/welcome/presentations/isolate/src/app.js</title>
<path fill="none" stroke="#000000" stroke-width="2" stroke-opacity="0.200000" d="M102.1,-96C105.12,-96 108.23,-96 111.33,-96"/>
<polygon fill="#000000" fill-opacity="0.200000" stroke="#000000" stroke-width="2" stroke-opacity="0.200000" points="111.64,-98.1 117.64,-96 111.64,-93.9 111.64,-98.1"/>
</g>
</g>
</svg>
